<?xml version="1.0" standalone="no"?>
<!DOCTYPE svg PUBLIC "-//W3C//DTD SVG 1.1//EN" "http://www.w3.org/Graphics/SVG/1.1/DTD/svg11.dtd" >
<svg>
<metadata>
Created by FontForge 20090914 at Wed Jul  8 00:42:57 2015
 By www-data
Dubiel Italic 
</metadata>
<defs>
<font id="DubielItalic" horiz-adv-x="525" >
  <font-face 
    font-family="Dubiel"
    font-weight="5"
    font-style="italic"
    font-stretch="normal"
    units-per-em="1000"
    panose-1="0 0 0 0 0 0 0 0 0 0"
    ascent="800"
    descent="-200"
    x-height="421"
    cap-height="650"
    bbox="-102 -212.002 962 817"
    underline-thickness="17"
    underline-position="-103"
    unicode-range="U+0020-U+F002"
  />
<missing-glyph horiz-adv-x="817" 
d="M51 0v817h715v-817h-715zM715 51v715h-613v-715h613z" />
    <glyph glyph-name=".notdef" horiz-adv-x="817" 
d="M51 0v817h715v-817h-715zM715 51v715h-613v-715h613z" />
    <glyph glyph-name="space" unicode=" " horiz-adv-x="242" 
 />
    <glyph glyph-name="exclam" unicode="!" horiz-adv-x="279" 
d="M263 629c2 -9.33301 3.00098 -18.332 3.00098 -26.999c0 -26 -3.5 -47 -10.5 -63s-26.667 -55 -59 -117s-64.5 -142 -96.5 -240h-8c12 36.667 21.167 74 27.5 112s14.166 89 23.499 153s17 108.667 23 134s13.333 43.166 22 53.499s19.667 15.5 33 15.5
c10.667 0 20 -1.5 28 -4.5s12.667 -8.5 14 -16.5zM63.001 87.001c13.333 0 24.5 -4.5 33.5 -13.5s13.5 -20.167 13.5 -33.5s-4.5 -24.5 -13.5 -33.5s-20.167 -13.5 -33.5 -13.5s-24.333 4.33301 -33 13s-13 20 -13 34c0 12.667 4.33301 23.667 13 33s19.667 14 33 14z" />
    <glyph glyph-name="quotedbl" unicode="&#x22;" horiz-adv-x="333" 
d="M165 725c2.66699 -10 3.99609 -20.6641 3.99609 -31.9971c0 -30.667 -10.167 -57.334 -30.5 -80.001s-48.833 -46.334 -85.5 -71.001c-2.66699 2 -5.66699 1.66699 -9 -1s-6 -2.33398 -8 0.999023c2.66699 4 18.834 18 48.501 42s44.5 44.333 44.5 61
c0 6.66699 -2 14 -6 22c-15.333 4.66699 -28.166 10.167 -38.499 16.5s-15.5 15.5 -15.5 27.5c0 28.667 6.83301 45 20.5 49s21.834 6 24.501 6c12 0 22.833 -3.83301 32.5 -11.5s15.834 -17.5 18.501 -29.5zM310.996 725.003
c2.66699 -10 3.99902 -20.3281 3.99902 -30.9951c0 -30.667 -10.5 -57.667 -31.5 -81s-49.167 -47 -84.5 -71c-2 2 -5 1.66699 -9 -1s-6.66699 -2.33398 -8 0.999023c4 5.33301 20.5 19.666 49.5 42.999s43.5 43.666 43.5 60.999c0 6.66699 -2 13.667 -6 21
c-15.333 4 -28.166 9.33301 -38.499 16s-15.5 16 -15.5 28c0 13.333 2.5 24.666 7.5 33.999s11.667 15.166 20 17.499s13.833 3.5 16.5 3.5c12 0 23 -4 33 -12s16.333 -17.667 19 -29z" />
    <glyph glyph-name="dollar" unicode="$" horiz-adv-x="246" 
d="M189 637c0 -13.333 -0.667969 -25.8379 -2.00098 -37.5049s-4 -23.167 -8 -34.5c18 -10 31 -18 39 -24s12.667 -12.667 14 -20s2 -13.333 2 -18c0 -10 -2.16699 -18.667 -6.5 -26s-11.166 -12.333 -20.499 -15c-8.66699 -1.33301 -15.834 1 -21.501 7
s-8.5 13.667 -8.5 23c0 2.66699 1 6.66699 3 12s7 9.33301 15 12s12 7.33398 12 14.001c-12 17.333 -28.667 26 -50 26c-11.333 0 -23.5 -3.66699 -36.5 -11s-22.667 -13.5 -29 -18.5s-9.5 -12.5 -9.5 -22.5c0 -23.333 19.833 -46.166 59.5 -68.499
s59.5 -45.166 59.5 -68.499c0 -8.66699 -2 -20 -6 -34s-16.667 -30.333 -38 -49s-43.333 -26.667 -66 -24c-4 -14.667 -8.66699 -29.334 -14 -44.001s-12 -22 -20 -22c0 8.66699 2.5 19.834 7.5 33.501s7.5 23.834 7.5 30.501c-17.333 2.66699 -34.166 10 -50.499 22
s-24.5 26.333 -24.5 43c0 14 2 25 6 33s9.83301 13.167 17.5 15.5s12.5 3.5 14.5 3.5c17.333 0 27 -8 29 -24c1.33301 -8 -4.33398 -16.833 -17.001 -26.5s-19 -17.167 -19 -22.5c0 -3.33301 2 -8 6 -14s10 -10.5 18 -13.5s17 -4.5 27 -4.5c6 0 13.167 0.666992 21.5 2
s17.333 3.33301 27 6s18.834 9.66699 27.501 21s13 23.666 13 36.999c0 8.66699 -3.33301 17.834 -10 27.501s-22 18.834 -46 27.501s-39 16.5 -45 23.5s-10.333 12.667 -13 17s-4 10.166 -4 17.499v13c0 17.333 4.83301 33 14.5 47s20.167 24.833 31.5 32.5
s21.833 12.834 31.5 15.501s21.167 5 34.5 7l11 34c6.66699 20.667 12 33.667 16 39z" />
    <glyph glyph-name="ampersand" unicode="&#x26;" horiz-adv-x="719" 
d="M525 648c10.667 -7.33301 18.1689 -15.668 22.502 -25.001s6.5 -20.666 6.5 -33.999v-12c0 -41.333 -22.833 -74.5 -68.5 -99.5l-131.5 -69.5c0 -36.667 2.33301 -80 7 -130s10 -90.333 16 -121c8.66699 8 37.834 54.833 87.501 140.5s99.834 128.5 150.501 128.5
c12.667 0 25.5 -1.66699 38.5 -5s22 -9.5 27 -18.5s7.5 -20.167 7.5 -33.5c0 -10 -1.33301 -20 -4 -30s-7.16699 -18.5 -13.5 -25.5s-12.5 -11.333 -18.5 -13s-11.667 -2.5 -17 -2.5c-16.667 0 -28.334 4.66699 -35.001 14s-10 17.666 -10 24.999c0 8.66699 3.5 21 10.5 37
s10.5 25.667 10.5 29c0 5.33301 -3.33301 8 -10 8c-4 0 -15 -2.5 -33 -7.5s-44.667 -39 -80 -102l-101 -180.5c12.667 -30.667 22.5 -52 29.5 -64s17.167 -19.5 30.5 -22.5s23.666 -4.5 30.999 -4.5c39.333 0 73.166 18.333 101.499 55l69.5 91
c-9.33301 -36.667 -27.5 -70.834 -54.5 -102.501s-53.833 -51.834 -80.5 -60.501s-46 -13 -58 -13c-21.333 0 -41.333 6 -60 18s-36 28.333 -52 49c-26 -23.333 -51.333 -41.666 -76 -54.999s-50.667 -20 -78 -20c-17.333 0 -38.166 4.83301 -62.499 14.5
s-46.333 26.834 -66 51.501s-29.5 52.334 -29.5 83.001c0 56.667 20.667 107.5 62 152.5s86.333 76.167 135 93.5l48 17c0 5.33301 -0.166992 11.333 -0.5 18s-0.5 13.667 -0.5 21c0 18 1.16699 35.667 3.5 53s9.16602 39.5 20.499 66.5s26.666 51 45.999 72
s39.833 33.167 61.5 36.5s34.5 5 38.5 5c14 0 27.5 -2.5 40.5 -7.5s25.833 -11.833 38.5 -20.5zM140.002 276.998c-13.333 -31.333 -19.999 -62.667 -19.999 -94c0 -18.667 2 -36.167 6 -52.5s10 -34.166 18 -53.499c8.66699 -15.333 20.5 -27.5 35.5 -36.5
s31.5 -13.5 49.5 -13.5h10c16.667 2 32.667 8.66699 48 20s28.666 24.666 39.999 39.999c-24 42 -38.5 91.667 -43.5 149s-8.83301 105.333 -11.5 144c-13.333 -3.33301 -34.333 -11 -63 -23s-51.667 -38.667 -69 -80zM429.003 657.997
c-24.667 -5.33301 -43.5 -20.167 -56.5 -44.5s-19.5 -67.166 -19.5 -128.499v-48c44.667 13.333 80 32.166 106 56.499s40.833 41.333 44.5 51s5.5 20.167 5.5 31.5c0 18 -4.83301 36.5 -14.5 55.5s-26.5 28.5 -50.5 28.5c-3.33301 0 -8.33301 -0.666992 -15 -2z" />
    <glyph glyph-name="quotesingle" unicode="'" horiz-adv-x="207" 
d="M285 725c2.66699 -10 3.99609 -20.6641 3.99609 -31.9971c0 -30.667 -10.167 -57.334 -30.5 -80.001s-48.833 -46.334 -85.5 -71.001c-2.66699 2 -5.66699 1.66699 -9 -1s-6 -2.33398 -8 0.999023c2.66699 4 18.834 18 48.501 42s44.5 44.333 44.5 61
c0 6.66699 -2 14 -6 22c-15.333 4.66699 -28.166 10.167 -38.499 16.5s-15.5 15.5 -15.5 27.5c0 28.667 6.83301 45 20.5 49s21.834 6 24.501 6c12 0 22.833 -3.83301 32.5 -11.5s15.834 -17.5 18.501 -29.5z" />
    <glyph glyph-name="parenleft" unicode="(" horiz-adv-x="304" 
d="M387 788c-106.667 -124.667 -186.667 -258.169 -240 -400.502s-80 -297.5 -80 -465.5c2.66699 -19.333 9 -41 19 -65l29 -69h-12c-32.667 42 -57 90.167 -73 144.5s-24 111.833 -24 172.5c0 100.667 19 192.834 57 276.501s84 160.834 138 231.501s116 129 186 175z" />
    <glyph glyph-name="parenright" unicode=")" horiz-adv-x="304" 
d="M248 292c-28.667 -109.333 -71.167 -201.833 -127.5 -277.5s-130.5 -144.834 -222.5 -207.501c101.333 113.333 180 231.5 236 354.5s84 255.5 84 397.5c0 34 -1.5 66.167 -4.5 96.5s-8 55.5 -15 75.5s-16.833 44 -29.5 72c36 -42.667 62.833 -90.5 80.5 -143.5
s26.5 -109.5 26.5 -169.5c0 -31.333 -2.33301 -63.166 -7 -95.499s-11.667 -66.5 -21 -102.5z" />
    <glyph glyph-name="asterisk" unicode="*" horiz-adv-x="203" 
d="M122 645l-12.002 -52.0029c0 -6 1.33301 -11.333 4 -16c7.33301 0 17.833 6.83301 31.5 20.5s23.5 20.5 29.5 20.5c6.66699 0 12.667 -4.66699 18 -14c-1.33301 -12.667 -12.5 -21.834 -33.5 -27.501s-33.5 -10.167 -37.5 -13.5c2.66699 -8 15.167 -14.667 37.5 -20
s33.5 -11.333 33.5 -18c0 -5.33301 -4.33301 -12.666 -13 -21.999c-9.33301 0 -19.166 4.66699 -29.499 14l-33.5 31c-5.33301 -3.33301 -8 -9.33301 -8 -18c0 -5.33301 1.83301 -14.666 5.5 -27.999s5.5 -20.666 5.5 -21.999c0 -9.33301 -6 -14 -18 -14
c-4.66699 0 -8.66699 0.333008 -12 1c-2.66699 5.33301 -4 11.333 -4 18c0 5.33301 1.5 13.166 4.5 23.499s4.5 17.5 4.5 21.5c0 4.66699 -1 9.66699 -3 15c-8 0 -19 -7 -33 -21s-24.333 -21 -31 -21c-6 0 -12.333 4.66699 -19 14c2.66699 11.333 13.834 19.333 33.501 24
s32.5 10.334 38.5 17.001c-2.66699 10.667 -14.5 17.667 -35.5 21s-31.5 9.66602 -31.5 18.999c0 4.66699 1.33301 10 4 16c4 2 7.33301 3 10 3c8 0 18.833 -6.33301 32.5 -19s24.167 -19.667 31.5 -21c2 5.33301 3 10.333 3 15c0 5.33301 -1.33301 13.833 -4 25.5
s-4 18.834 -4 21.501c0 8.66699 4.33301 15.334 13 20.001c6 2 11.167 1.66699 15.5 -1s6.5 -7 6.5 -13z" />
    <glyph glyph-name="plus" unicode="+" horiz-adv-x="315" 
d="M186 372l111.004 0.00195312c-8.66699 -6.66699 -13.834 -17.334 -15.501 -32.001s-3.16699 -25.667 -4.5 -33h-91v-104c-9.33301 6 -19.833 10.5 -31.5 13.5s-22.834 5.5 -33.501 7.5v83h-99c6 8.66699 10.5 19 13.5 31s5.5 23.333 7.5 34h78v105
c7.33301 -8.66699 18.166 -13.834 32.499 -15.501s25.166 -3.16699 32.499 -4.5v-85z" />
    <glyph glyph-name="comma" unicode="," horiz-adv-x="198" 
d="M161 33c2 -8 3 -16 3 -24c0 -29.333 -10.5 -55.166 -31.5 -77.499s-40.667 -39.833 -59 -52.5s-36.833 -19 -55.5 -19c-6.66699 0 -13.667 1 -21 3c26 8.66699 48.833 19.5 68.5 32.5s35.5 30.5 47.5 52.5c-16.667 3.33301 -30.5 12.5 -41.5 27.5
s-16.5 30.833 -16.5 47.5c0 16 5.66699 27.667 17 35s24.333 11 39 11c12.667 0 23.5 -2.83301 32.5 -8.5s14.833 -14.834 17.5 -27.501z" />
    <glyph glyph-name="hyphen" unicode="-" horiz-adv-x="350" 
d="M294 307l-253.999 -0.00292969c6 9.33301 10.5 19.833 13.5 31.5s5.5 22.834 7.5 33.501h253c-8.66699 -7.33301 -13.834 -18.166 -15.501 -32.499s-3.16699 -25.166 -4.5 -32.499z" />
    <glyph glyph-name="period" unicode="." horiz-adv-x="152" 
d="M77 78c14 0 26.001 -5 36.001 -15s15 -22 15 -36s-4.83301 -26.167 -14.5 -36.5s-21.834 -15.5 -36.501 -15.5s-27 5 -37 15s-15 22.333 -15 37c0 14 5 26 15 36s22.333 15 37 15z" />
    <glyph glyph-name="slash" unicode="/" horiz-adv-x="329" 
d="M338 745l-97.999 -274.5l-111.5 -311.5l-82.5 -221c-3.33301 -2 -6.83301 -3.33301 -10.5 -4s-7.83398 -1 -12.501 -1c-10 0.666992 -17.667 1 -23 1l294 807c4.66699 2.66699 12.667 4 24 4h20z" />
    <glyph glyph-name="zero" unicode="0" horiz-adv-x="494" 
d="M427 607c16.667 -32 28.8369 -63.499 36.5039 -94.499s11.5 -62.833 11.5 -95.5c0 -36 -4.83301 -71.167 -14.5 -105.5s-25.834 -72.833 -48.501 -115.5s-53.834 -83.834 -93.501 -123.501s-73.834 -62 -102.501 -67s-45.334 -7.5 -50.001 -7.5
c-32.667 0 -60.667 13.333 -84 40c-20 25.333 -35.167 53.333 -45.5 84s-15.5 62.667 -15.5 96c0 36 9.5 82 28.5 138s50.833 113.333 95.5 172s87.667 94.167 129 106.5s67.666 18.5 78.999 18.5c32.667 0 57.334 -15.333 74.001 -46zM291.003 620.001
c-25.333 -22.667 -47.3291 -50.499 -65.9961 -83.499s-36.667 -72.667 -54 -119l-44.5 -120.5c-12.333 -34 -22.333 -62.833 -30 -86.5s-11.5 -48.167 -11.5 -73.5c0 -21.333 3.5 -40.833 10.5 -58.5s16.833 -33 29.5 -46s26.334 -19.5 41.001 -19.5
c15.333 0 30.666 3.66699 45.999 11s30.666 22 45.999 44s30.666 46.167 45.999 72.5s31.166 60.166 47.499 101.499s28.166 91.5 35.499 150.5s11 124.5 11 196.5c0 16 -5.5 28 -16.5 36s-24.833 12 -41.5 12c-20 0 -36.333 -5.66699 -49 -17z" />
    <glyph glyph-name="one" unicode="1" horiz-adv-x="381" 
d="M226 48c-3.33301 -10 0.164062 -17.667 10.4971 -23s31.5 -8 63.5 -8h28c5.33301 0 7.33301 -1.66699 6 -5s-3.33301 -7.33301 -6 -12h-302c-5.33301 8 -5.66602 13 -0.999023 15c2 0.666992 5.66699 1 11 1c4 0 11.667 -0.333008 23 -1s17.333 -1 18 -1
c16 0 29 2.33301 39 7s17.333 14 22 28l129 423c0.666992 4 -0.166016 8 -2.49902 12s-6.16602 8.33301 -11.499 13c-2.66699 0.666992 -6.66699 1 -12 1c-10.667 0 -30 -3 -58 -9s-47.333 -9 -58 -9v10c49.333 0 95.5 14.667 138.5 44s79.5 68 109.5 116h30z" />
    <glyph glyph-name="two" unicode="2" horiz-adv-x="543" 
d="M499 557c13.333 -26 20.001 -52.3359 20.001 -79.0029c0 -34 -13 -70.5 -39 -109.5s-65.667 -74.5 -119 -106.5l-148 -78c-50.667 -27.333 -90.334 -60.666 -119.001 -99.999c2.66699 -5.33301 6 -8 10 -8l273 8c22 13.333 38.333 33.666 49 60.999l27 68
c-4.66699 -32 -14 -72.667 -28 -122s-22.333 -80 -25 -92l-375 1c16.667 58.667 58.167 112.834 124.5 162.501l190.5 142.5c61.333 56 92 117.333 92 184c0 22 -2.33301 43.167 -7 63.5s-13.667 37.333 -27 51s-25.333 21.5 -36 23.5s-20.334 3.33301 -29.001 4
s-16.667 1 -24 1c-21.333 0 -41.333 -3.16699 -60 -9.5s-35.667 -16.5 -51 -30.5c-8.66699 -10.667 -16.334 -21 -23.001 -31s-10 -23.333 -10 -40c0 -6 1.16699 -13.833 3.5 -23.5s17 -15.5 44 -17.5s41.5 -7 43.5 -15s3 -14.667 3 -20c0 -24.667 -7 -39.667 -21 -45
s-24 -8 -30 -8c-7.33301 0 -14.166 1.33301 -20.499 4s-14.5 7.33398 -24.5 14.001s-18.167 17.334 -24.5 32.001s-9.5 30.667 -9.5 48c0 9.33301 2.16699 25.333 6.5 48s19 44.667 44 66s51.667 34.5 80 39.5s46 7.66699 53 8s12.5 0.5 16.5 0.5
c37.333 0 70.833 -7.66699 100.5 -23s52.834 -39.333 69.501 -72z" />
    <glyph glyph-name="three" unicode="3" horiz-adv-x="449" 
d="M450 570c6 -10 10.3281 -20.5059 12.9951 -31.5059s4 -23.5 4 -37.5c0 -16.667 -3.5 -36.5 -10.5 -59.5s-21.167 -40.167 -42.5 -51.5s-57.666 -26 -108.999 -44c32 -15.333 58.333 -36.166 79 -62.499s31 -57.166 31 -92.499c0 -38 -11.333 -71 -34 -99
s-49 -48.833 -79 -62.5s-55.5 -23.334 -76.5 -29.001s-42.167 -8.5 -63.5 -8.5c-20.667 0 -40.167 3.16699 -58.5 9.5s-36 17.333 -53 33s-29.5 29 -37.5 40s-12 25.167 -12 42.5c0 28 8 50.833 24 68.5s34.333 26.5 55 26.5c9.33301 0 19.166 -2.83301 29.499 -8.5
s15.5 -16.167 15.5 -31.5c0 -8.66699 -1.66699 -17.667 -5 -27s-17.666 -17.166 -42.999 -23.499s-38 -17.5 -38 -33.5c0 -5.33301 0.333008 -9.66602 1 -12.999c11.333 -16.667 24.833 -30.167 40.5 -40.5s31.167 -16.666 46.5 -18.999s25.333 -3.5 30 -3.5
c28.667 0 54 8.5 76 25.5s41.5 39 58.5 66s29.333 50.833 37 71.5s11.5 41.334 11.5 62.001c0 15.333 -2.33301 29.166 -7 41.499s-12 23.333 -22 33s-22.167 16.334 -36.5 20.001s-30.166 5.5 -47.499 5.5c-15.333 0 -35.666 -1.83301 -60.999 -5.5l-52 -7.5l-12 19
c12.667 4 25.5 6.66699 38.5 8s26.833 2 41.5 2c8 0 17.167 -0.166992 27.5 -0.5s21.833 -0.5 34.5 -0.5c13.333 0 22.833 0.333008 28.5 1s18.834 5.33398 39.501 14.001s38.834 27.167 54.501 55.5s23.5 61.5 23.5 99.5c-0.666992 8 -1 14 -1 18v12
c0 16.667 -5 31.334 -15 44.001s-23.667 23.334 -41 32.001s-35 13 -53 13c-13.333 0 -26 -1.83301 -38 -5.5s-23.667 -9.5 -35 -17.5c-9.33301 -5.33301 -16.666 -11.333 -21.999 -18s-8 -14.334 -8 -23.001c0 -5.33301 1.83301 -10.833 5.5 -16.5s13.167 -13 28.5 -22
s23 -18.833 23 -29.5c0 -26.667 -7 -41.334 -21 -44.001s-22.667 -4 -26 -4c-13.333 0 -26 3.5 -38 10.5s-19.833 15.667 -23.5 26s-5.5 19.833 -5.5 28.5c0 10.667 2.16699 21 6.5 31s12.666 23.333 24.999 40s29.666 30.167 51.999 40.5s47.5 15.5 75.5 15.5
c22 0 50.833 -4.83301 86.5 -14.5s63.834 -32.5 84.501 -68.5z" />
    <glyph glyph-name="four" unicode="4" horiz-adv-x="485" 
d="M481 632l-76.498 -255c-21 -70 -37.167 -128.333 -48.5 -175c10 -4.66699 24 -7.5 42 -8.5s42.333 -1.5 73 -1.5l-4 -23l-123 1l-34 -115c-1.33301 -5.33301 -2 -9 -2 -11c0 -14.667 8.5 -23.667 25.5 -27s32.5 -5 46.5 -5h18c5.33301 0 10.333 0.333008 15 1
c3.33301 0 4.66602 -1.33301 3.99902 -4s-2 -5.66699 -4 -9h-319c-0.666992 8 0 12 2 12c6.66699 0 13.167 -0.166992 19.5 -0.5s12.5 -0.5 18.5 -0.5c24.667 0 45.834 2.83301 63.501 8.5s28.5 16.834 32.5 33.501l27 109l-5 9c-26.667 0 -67.834 0.333008 -123.501 1
s-96.834 1 -123.501 1c-2.66699 3.33301 -2.66699 6.66602 0 9.99902l119.5 130l176 186.5l122.5 127.5c16.667 16.667 29 25 37 25c17.333 0 24.333 -6.66699 21 -20zM363.002 520l-299 -314.999c6.66699 -0.666992 19 -1.33398 37 -2.00098s40.333 -1 67 -1h102z" />
    <glyph glyph-name="five" unicode="5" horiz-adv-x="442" 
d="M463 637c-12 -28 -30.498 -50.334 -55.498 -67.001s-54.833 -26.667 -89.5 -30c-42.667 0 -84 11 -124 33c-5.33301 -13.333 -15.833 -46.833 -31.5 -100.5s-24.167 -82.5 -25.5 -86.5c10 4 28.667 12.833 56 26.5s52 20.5 74 20.5c6.66699 0 21.334 -1.33301 44.001 -4
s45.167 -13.167 67.5 -31.5s36.166 -39.166 41.499 -62.499s8.16602 -37.166 8.49902 -41.499s0.5 -9.16602 0.5 -14.499c0 -34 -8 -68.333 -24 -103s-37.167 -65.667 -63.5 -93s-54.166 -48.666 -83.499 -63.999s-60 -23 -92 -23c-16 0 -35 2.83301 -57 8.5
s-41.167 14.167 -57.5 25.5s-28.166 27.166 -35.499 47.499s-11 37.5 -11 51.5c0 17.333 5.16699 36.333 15.5 57s28.5 31 54.5 31c8.66699 0 18.5 -3.33301 29.5 -10s16.5 -18.667 16.5 -36c0 -4.66699 -1.33301 -10.667 -4 -18s-16.834 -15.5 -42.501 -24.5
s-38.5 -20.833 -38.5 -35.5c0 -6.66699 1.33301 -13.667 4 -21c22.667 -24.667 36.834 -39.334 42.501 -44.001s15 -9.16699 28 -13.5s26.5 -6.5 40.5 -6.5c20 0 38.667 4.33301 56 13s37.833 26.667 61.5 54s43.667 65.166 60 113.499s24.5 98.833 24.5 151.5
c0 14.667 -4.33301 27.834 -13 39.501s-20 21.5 -34 29.5s-28 12 -42 12c-19.333 0 -36.833 -3.5 -52.5 -10.5s-31.167 -15.5 -46.5 -25.5s-29.833 -23.833 -43.5 -41.5s-25.834 -34.5 -36.501 -50.5c1.33301 3.33301 2.66602 7 3.99902 11s2 7.33301 2 10
c-1.33301 0 -3.5 -1.16699 -6.5 -3.5s-7.16699 -7.83301 -12.5 -16.5l31 56.5c10.667 20.333 21.334 48.166 32.001 83.499l32 107c10.667 36 19.667 72.333 27 109c24.667 -12 51.667 -22 81 -30s57.666 -12 84.999 -12c20.667 0 39.167 2.16699 55.5 6.5
s32.166 11.833 47.499 22.5z" />
    <glyph glyph-name="six" unicode="6" horiz-adv-x="438" 
d="M462 576c6 -15.333 8.99902 -30.335 8.99902 -45.002c0 -17.333 -6.5 -33.166 -19.5 -47.499s-29.833 -21.5 -50.5 -21.5c-6.66699 0 -16.334 2.33301 -29.001 7s-19 18.334 -19 41.001c0 8 1.83301 16.333 5.5 25s14.5 17.167 32.5 25.5s27 16.833 27 25.5
c0 4 -2 9.66699 -6 17c-19.333 26.667 -43.333 40 -72 40c-14 0 -34.833 -8.5 -62.5 -25.5s-53.5 -48.333 -77.5 -94s-50.667 -109.5 -80 -191.5c32 28 58.667 48.833 80 62.5s44.666 19.5 69.999 17.5c26.667 -2.66699 50.667 -9.83398 72 -21.501s37.333 -32.167 48 -61.5
s16 -58 16 -86c0 -22 -3.5 -43.333 -10.5 -64s-20.5 -45.167 -40.5 -73.5s-45.833 -53.166 -77.5 -74.499s-65.5 -32 -101.5 -32c-11.333 0 -21.666 0.666992 -30.999 2s-24.666 6 -45.999 14s-41.166 24.333 -59.499 49s-28.833 50.5 -31.5 77.5s-4 50.167 -4 69.5
c0 80 17.833 152.667 53.5 218s75.5 114.666 119.5 147.999s75 54 93 62s36.667 12 56 12c17.333 0 36.5 -4.16699 57.5 -12.5s37.667 -16.666 50 -24.999s21.833 -20.833 28.5 -37.5zM251.999 396.998c-34 -8.66699 -62.5 -23.333 -85.5 -44s-41.667 -45.667 -56 -75
s-25 -55.333 -32 -78s-10.5 -43.667 -10.5 -63c0 -38.667 9.66699 -69.667 29 -93s39.333 -35 60 -35c13.333 0 45.833 18.5 97.5 55.5s77.5 106.5 77.5 208.5c0 26 -2.16699 49.167 -6.5 69.5s-11.833 34.833 -22.5 43.5s-22.667 13 -36 13
c-3.33301 0 -8.33301 -0.666992 -15 -2z" />
    <glyph glyph-name="seven" unicode="7" horiz-adv-x="355" 
d="M449 650c-21.333 -55.333 -64.999 -125.169 -130.999 -209.502s-115.167 -154.666 -147.5 -210.999s-48.5 -124.166 -48.5 -203.499c0 -8.66699 -4.5 -15.167 -13.5 -19.5s-19.5 -6.5 -31.5 -6.5c-3.33301 -0 -7 0.333008 -11 1s-9.33301 1.66699 -16 3s-12.5 7 -17.5 17
s-7.5 22.333 -7.5 37c0 7.33301 0.666992 15.166 2 23.499s6.33301 27.833 15 58.5s38 74 88 130l145.5 147c50.333 51.333 85.833 101.333 106.5 150c-14 -2 -31.333 -3 -52 -3c-23.333 0 -62.833 1.66699 -118.5 5s-86.167 5 -91.5 5
c-12.667 0 -23.334 -3.5 -32.001 -10.5s-20.667 -24.167 -36 -51.5s-25.333 -43.666 -30 -48.999c6 26.667 16.333 57 31 91l44 98c32.667 0 79.5 -1.5 140.5 -4.5s95.5 -4.5 103.5 -4.5c39.333 0 75.333 2.33301 108 7z" />
    <glyph glyph-name="eight" unicode="8" horiz-adv-x="502" 
d="M490 569c12.667 -28.667 19.002 -52.3311 19.002 -70.998c0 -16.667 -4.83301 -35.334 -14.5 -56.001s-29.834 -40 -60.501 -58c-37.333 -18 -64.666 -32 -81.999 -42c23.333 -20.667 42.833 -44.334 58.5 -71.001s23.5 -54 23.5 -82
c0 -9.33301 -0.333008 -16.5 -1 -21.5s-5.66699 -21.667 -15 -50s-34.333 -55 -75 -80s-86 -37.5 -136 -37.5c-38.667 0 -71.334 4 -98.001 12s-50.334 26.167 -71.001 54.5s-31 59.166 -31 92.499c0 14 2 29 6 45c10.667 34 29 59.167 55 75.5s62.333 33.833 109 52.5
c-23.333 25.333 -40 46 -50 62s-15 36.333 -15 61c0 46.667 14.5 86.334 43.5 119.001s61.5 53.667 97.5 63s65.667 14 89 14c34 0 63.667 -6.33301 89 -19s45 -33.667 59 -63zM217.002 587.003c-20 -24.667 -30 -52.334 -30 -83.001c0 -11.333 1.83301 -27.333 5.5 -48
s15.167 -37.667 34.5 -51s51.333 -30.666 96 -51.999c33.333 10.667 62 28 86 52s36 52.667 36 86c0 38.667 -3 65.5 -9 80.5s-18.333 29.333 -37 43s-44 20.5 -76 20.5c-44.667 0 -80 -16 -106 -48zM216.002 314.003c-2.66699 0.666992 -6.66699 0.999023 -12 0.999023
c-19.333 0 -37.666 -7.16699 -54.999 -21.5s-34.5 -34.5 -51.5 -60.5s-25.5 -54 -25.5 -84c0 -10 2 -23.667 6 -41s11.5 -33.333 22.5 -48s26.167 -26.834 45.5 -36.501s38.666 -14.5 57.999 -14.5c12 0 23.833 1.33301 35.5 4s31 9.33398 58 20.001s45 29.5 54 56.5
s13.5 45.5 13.5 55.5c0 18 -4.33301 34 -13 48s-19.167 28.833 -31.5 44.5s-28.5 29.834 -48.5 42.501z" />
    <glyph glyph-name="nine" unicode="9" horiz-adv-x="491" 
d="M420 603c16.667 -22 29.165 -48.333 37.498 -79s12.5 -64 12.5 -100c0 -34 -4 -68.167 -12 -102.5s-23.5 -72.666 -46.5 -114.999s-54.167 -83.333 -93.5 -123s-75.666 -63.834 -108.999 -72.501s-57.666 -13 -72.999 -13c-17.333 0 -32.5 2.5 -45.5 7.5
s-26.167 14 -39.5 27s-23.333 24.5 -30 34.5s-10 21.667 -10 35c0 8 1.66699 18.333 5 31s8.5 23.167 15.5 31.5s16.167 12.5 27.5 12.5c3.33301 0.666992 9 1 17 1c14 0 25.667 -2 35 -6s15.166 -10 17.499 -18s3.5 -13.333 3.5 -16c0 -12 -5.16699 -23.167 -15.5 -33.5
s-20.833 -17.333 -31.5 -21s-16 -9.16699 -16 -16.5c-2 -8.66699 0.5 -17 7.5 -25s16.333 -15.833 28 -23.5s24.5 -11.5 38.5 -11.5c11.333 0 22 1.83301 32 5.5s28 12.834 54 27.501s50 47.167 72 97.5s42 110.833 60 181.5c-26 -24.667 -51.5 -44.834 -76.5 -60.501
s-50.5 -23.5 -76.5 -23.5c-15.333 0 -33.833 4.5 -55.5 13.5s-41 24.167 -58 45.5s-25.5 46.333 -25.5 75c0 105.333 30.333 179 91 221s111.667 63 153 63c22.667 0 42.834 -3.83301 60.501 -11.5s33.167 -20.5 46.5 -38.5zM236.998 589
c-29.333 -42.667 -51.3301 -80.666 -65.9971 -113.999s-22 -70.333 -22 -111c0 -20 2 -40.333 6 -61s12.333 -35.334 25 -44.001s27 -13 43 -13c8 0 22.5 5.33301 43.5 16s41.167 25.667 60.5 45s35.666 44.5 48.999 75.5s23.333 57.167 30 78.5s10 41.666 10 60.999
c0 18 -2.83301 33.833 -8.5 47.5s-16.334 26.834 -32.001 39.501s-35.834 19 -60.501 19c-34.667 0 -60.667 -13 -78 -39z" />
    <glyph glyph-name="colon" unicode=":" horiz-adv-x="250" 
d="M177 387c14 0 26 -5 36 -15s15 -22.333 15 -37c0 -13.333 -5 -25.333 -15 -36s-22 -16 -36 -16c-14.667 0 -27 5 -37 15s-15 22.333 -15 37c0 14 5.16699 26.167 15.5 36.5s22.5 15.5 36.5 15.5zM77 78c14 0 26.001 -5 36.001 -15s15 -22 15 -36
s-4.83301 -26.167 -14.5 -36.5s-21.834 -15.5 -36.501 -15.5s-27 5 -37 15s-15 22.333 -15 37c0 14 5 26 15 36s22.333 15 37 15z" />
    <glyph glyph-name="semicolon" unicode=";" horiz-adv-x="267" 
d="M161 33c2 -8 3 -16 3 -24c0 -29.333 -10.5 -55.166 -31.5 -77.499s-40.667 -39.833 -59 -52.5s-36.833 -19 -55.5 -19c-6.66699 0 -13.667 1 -21 3c26 8.66699 48.833 19.5 68.5 32.5s35.5 30.5 47.5 52.5c-16.667 3.33301 -30.5 12.5 -41.5 27.5
s-16.5 30.833 -16.5 47.5c0 16 5.66699 27.667 17 35s24.333 11 39 11c12.667 0 23.5 -2.83301 32.5 -8.5s14.833 -14.834 17.5 -27.501zM200 380c14 0 26.167 -5.16699 36.5 -15.5s15.5 -22.5 15.5 -36.5s-5 -26 -15 -36s-22.333 -15 -37 -15c-13.333 0 -25.333 5 -36 15
s-16 22 -16 36c0 14.667 5 27 15 37s22.333 15 37 15z" />
    <glyph glyph-name="equal" unicode="=" horiz-adv-x="338" 
d="M294 307l-253.999 -0.00292969c6 9.33301 10.5 19.833 13.5 31.5s5.5 22.834 7.5 33.501h253c-8.66699 -7.33301 -13.834 -18.166 -15.501 -32.499s-3.16699 -25.166 -4.5 -32.499zM294.001 206.997l-253.999 -0.00292969c6 9.33301 10.5 19.833 13.5 31.5
s5.5 22.834 7.5 33.501h253c-8.66699 -7.33301 -13.834 -18.166 -15.501 -32.499s-3.16699 -25.166 -4.5 -32.499z" />
    <glyph glyph-name="question" unicode="?" horiz-adv-x="401" 
d="M369 552c10 -17.333 14.999 -36.335 14.999 -57.002c0 -18 -3.5 -35.833 -10.5 -53.5s-17.333 -38.167 -31 -61.5s-51 -52.333 -112 -87s-96.333 -59.834 -106 -75.501s-14.5 -27.167 -14.5 -34.5c0 -16 4.66699 -25.833 14 -29.5s16.333 -5.5 21 -5.5
c13.333 0 24.333 6.16699 33 18.5l22 30.5c-1.33301 -10 -5.5 -20 -12.5 -30s-14.5 -17.833 -22.5 -23.5s-16 -8.5 -24 -8.5c-10 0 -19.5 3.33301 -28.5 10s-14.833 14.667 -17.5 24s-4 19 -4 29c0 32 18 66 54 102l107 105c38 42.667 57 84.667 57 126
c0 4 -0.166992 8.83301 -0.5 14.5s-2 15.167 -5 28.5s-10.333 25 -22 35s-24.667 17 -39 21s-25.333 6.66699 -33 8s-16.5 2 -26.5 2c-37.333 0 -69.166 -13.667 -95.499 -41s-39.5 -57.666 -39.5 -90.999c0 -12 2.66699 -24 8 -36c5.33301 4 10.5 7.66699 15.5 11
s12.167 5 21.5 5c8 0 16.667 -2.33301 26 -7c16 -10 24 -24 24 -42c0 -5.33301 -1.5 -11.666 -4.5 -18.999s-9 -13.333 -18 -18s-18.833 -7 -29.5 -7c-8.66699 0 -15.167 0.666992 -19.5 2s-11 3.5 -20 6.5s-16.833 12 -23.5 27s-10 32.5 -10 52.5v14
c0 30.667 9.5 57.834 28.5 81.501s43.167 41.5 72.5 53.5c26 12 52.667 18 80 18c34.667 0 67.5 -8.66699 98.5 -26s54.833 -41.333 71.5 -72zM91.999 92.998c13.333 0 24.5 -4.5 33.5 -13.5s13.5 -20.167 13.5 -33.5s-4.66699 -24.666 -14 -33.999s-20.333 -14 -33 -14
c-13.333 0 -24.666 4.66699 -33.999 14s-14 20.666 -14 33.999c0 12.667 4.66699 23.667 14 33s20.666 14 33.999 14z" />
    <glyph glyph-name="A" unicode="A" horiz-adv-x="635" 
d="M533 650l-1.99707 -618.998c0 -6.66699 8 -11 24 -13l65 -4c2 -0.666992 2.66699 -2.33398 2 -5.00098s-1.33398 -5 -2.00098 -7l-286 -1c-1.33301 7.33301 -0.333008 11 3 11c9.33301 -0.666992 17.666 -1 24.999 -1c23.333 0 42.166 1.83301 56.499 5.5
s21.5 11.167 21.5 22.5v176l-173 3l-94 -166c-2.66699 -4.66699 -4 -9 -4 -13c0 -10.667 8 -17.834 24 -21.501s35.333 -5.5 58 -5.5h16l-1 -13l-256 1c0 7.33301 0.666992 11 2 11c5.33301 -1.33301 12 -2 20 -2c22 0 43.167 3.16699 63.5 9.5s40 25.333 59 57l92 152.5
l153.5 255.5c60 100.333 92.667 155.833 98 166.5c0.666992 2.66699 4.66699 4 12 4c4 0 8 -0.333008 12 -1s7.66699 -1.66699 11 -3zM442.003 513.002l-165 -271.001h163c0 22 1.16699 63.333 3.5 124s3.5 106.334 3.5 137.001z" />
    <glyph glyph-name="B" unicode="B" horiz-adv-x="605" 
d="M630 568c7.33301 -18 11.0029 -37.667 11.0029 -59c0 -32.667 -9.66699 -58.667 -29 -78c-18.667 -24 -46.667 -43.167 -84 -57.5s-61 -23.833 -71 -28.5c36.667 -16 63.167 -29.167 79.5 -39.5s28.166 -26.166 35.499 -47.499s11 -42.333 11 -63
c0 -48 -17.167 -87.667 -51.5 -119s-78 -53 -131 -65s-114.167 -18 -183.5 -18c-34.667 0 -78.667 0.833008 -132 2.5s-82.333 2.5 -87 2.5c4 3.33301 5.5 6.66602 4.5 9.99902s-0.166992 5 2.5 5c27.333 0 52.166 2.66699 74.499 8s36.5 18.333 42.5 39l155 557
c0.666992 4.66699 -4 8.5 -14 11.5s-29 4.5 -57 4.5c-9.33301 0 -17.5 -0.166992 -24.5 -0.5s-12.833 -0.5 -17.5 -0.5s-6.66699 1.5 -6 4.5s2 6.16699 4 9.5c32 0 72 0.5 120 1.5s74.333 1.5 79 1.5h40c13.333 0 26.666 0.333008 39.999 1c47.333 0 86 -5.16699 116 -15.5
s54.333 -32.5 73 -66.5zM365.003 620c-3.33301 -2 -12.335 -31.333 -27.002 -88l-44 -170c18.667 -4.66699 39.334 -7 62.001 -7c30.667 0 60.667 4.5 90 13.5s51.5 23.167 66.5 42.5s24.833 38.666 29.5 57.999s8 35.333 10 48s3 23.334 3 32.001
c0 15.333 -2.16699 28.333 -6.5 39s-12.666 19.5 -24.999 26.5s-26.5 12.833 -42.5 17.5s-32.333 7 -49 7c-24 0 -46.333 -6.33301 -67 -19zM422.001 331c-26 6 -55.333 9 -88 9s-50.334 -5 -53.001 -15c-9.33301 -26.667 -20.5 -64.5 -33.5 -113.5l-50.5 -189.5
c10.667 0 21.834 -0.166992 33.501 -0.5s23.834 -0.5 36.501 -0.5c32.667 0 56.667 1.5 72 4.5s32.5 9 51.5 18s37.167 25 54.5 48s30.666 48.5 39.999 76.5c4 17.333 6 34.333 6 51c0 19.333 -2.5 36.5 -7.5 51.5s-11.667 27 -20 36s-15.333 14.833 -21 17.5
s-12.5 5 -20.5 7z" />
    <glyph glyph-name="C" unicode="C" horiz-adv-x="471" 
d="M487 585c14 2 27.501 12.3311 40.501 30.998s24.167 29.667 33.5 33c-18.667 -80.667 -31.5 -135 -38.5 -163s-18.833 -65 -35.5 -111c-2 -0.666992 -4.33301 0.166016 -7 2.49902s-4 4.83301 -4 7.5c0 70 -4.33301 126 -13 168s-25.334 67.167 -50.001 75.5
s-42.667 12.5 -54 12.5c-15.333 0 -40.333 -10.333 -75 -31s-60.5 -49.667 -77.5 -87s-37.833 -93.5 -62.5 -168.5s-39.167 -122.167 -43.5 -141.5s-6.5 -39.333 -6.5 -60c0 -21.333 3.5 -40.833 10.5 -58.5s20.833 -35.667 41.5 -54s46.667 -27.5 78 -27.5
c22.667 0 48 8.66699 76 26s53.5 41.833 76.5 73.5s47.167 71.5 72.5 119.5h11c-10 -29.333 -19.833 -53.5 -29.5 -72.5s-24.834 -43.167 -45.501 -72.5s-44.5 -52.166 -71.5 -68.499s-56.833 -24.5 -89.5 -24.5c-18 0 -40.833 4.33301 -68.5 13s-53.667 28.667 -78 60
s-38.666 60.833 -42.999 88.5s-6.66602 45.834 -6.99902 54.501s-0.5 15.334 -0.5 20.001c0 77.333 20.833 152 62.5 224s82.167 120 121.5 144s70 39.167 92 45.5s42.333 9.5 61 9.5c14.667 0 28.667 -2 42 -6s28.166 -14.167 44.499 -30.5s28.5 -26.833 36.5 -31.5z" />
    <glyph glyph-name="D" unicode="D" horiz-adv-x="638" 
d="M565 605c28.667 -22.667 48.832 -49.999 60.499 -81.999s17.5 -67.667 17.5 -107c0 -11.333 -0.5 -23 -1.5 -35s-4.66699 -40.833 -11 -86.5s-35 -98.834 -86 -159.501s-99.667 -98 -146 -112s-81.5 -22.5 -105.5 -25.5s-48.333 -4.5 -73 -4.5
c-22.667 0 -60.334 1.66699 -113.001 5s-90.334 5 -113.001 5c2 2 2.33301 4.83301 1 8.5s-0.666016 5.5 2.00098 5.5c11.333 -1.33301 21 -2 29 -2c20 0 38 4 54 12s26.667 22.667 32 44l144 525c4 15.333 -0.5 25.5 -13.5 30.5s-29.833 7.5 -50.5 7.5h-20
c-3.33301 0.666992 -4.66602 3.16699 -3.99902 7.5s3 6.5 7 6.5c5.33301 0 24.333 0.666992 57 2s61.334 2 86.001 2c56.667 0 106 -3.16699 148 -9.5s75 -18.833 99 -37.5zM473.998 627.001c-4.66699 2 -12 3.83105 -22 5.49805s-19 2.5 -27 2.5
c-20 0 -37.667 -3.83301 -53 -11.5s-25.333 -21.167 -30 -40.5l-141 -519c-4 -12 -7.66699 -23.667 -11 -35c0 -5.33301 6 -9.16602 18 -11.499s30 -3.5 54 -3.5c26 0 55 4.5 87 13.5s59.667 26.667 83 53s39.5 50.5 48.5 72.5s22.833 60 41.5 114s31.167 95.333 37.5 124
s9.5 56.667 9.5 84c0 22.667 -2.33301 43.834 -7 63.501s-10.667 35.667 -18 48s-16.833 21 -28.5 26s-25.5 9.83301 -41.5 14.5z" />
    <glyph glyph-name="E" unicode="E" horiz-adv-x="612" 
d="M676 650c4 -1.33301 6.00195 -8.32812 6.00195 -20.9951c0 -31.333 -9.66699 -79.833 -29 -145.5s-33 -97.834 -41 -96.501c1.33301 6 2.83301 16.5 4.5 31.5s2.5 33.833 2.5 56.5c0 27.333 -2.33301 51.666 -7 72.999s-13.334 38.333 -26.001 51
s-27.667 21.334 -45 26.001s-37.666 7 -60.999 7c-15.333 0 -30.166 -0.333008 -44.499 -1l-42.5 -2c-8.66699 -0.666992 -15.667 -4.16699 -21 -10.5s-9 -13.833 -11 -22.5l-67 -242c-0.666992 -3.33301 0 -6 2 -8s8 -3 18 -3c18.667 0 41 5 67 15s44 21.667 54 35l35 48.5
c13.333 19 22.666 39.5 27.999 61.5h8c-30.667 -118.667 -62.667 -231.667 -96 -339h-8c3.33301 17.333 6 32.666 8 45.999s3 25.666 3 36.999c0 17.333 -3.33301 31.666 -10 42.999s-18.167 21 -34.5 29s-32.833 12 -49.5 12c-23.333 0 -37.333 -9.66699 -42 -29l-60 -241
c-0.666992 -2 -1 -4.16699 -1 -6.5v-4.5c0 -14 8 -23.833 24 -29.5s36.333 -8.5 61 -8.5c12 0 25 0.5 39 1.5s34.667 2.66699 62 5s59.666 29.166 96.999 80.499l91 162c2.66699 0 4 -5.33301 4 -16c0 -31.333 -9.33301 -80 -28 -146s-34 -99 -46 -99h-140.5h-187h-180.5
c-0.666992 1.33301 -1 2.83301 -1 4.5s0.333008 3.83398 1 6.50098c2 -0.666992 6.66699 -1 14 -1c20.667 0 41.5 4 62.5 12s33.833 20.333 38.5 37l150 550c3.33301 13.333 -9.66699 21.666 -39 24.999c-18.667 0.666992 -37.334 1.66699 -56.001 3c-0.666992 2 -1 4 -1 6
s0.666992 5 2 9h96h146h164.5c53.667 0 82.5 -0.666992 86.5 -2z" />
    <glyph glyph-name="F" unicode="F" horiz-adv-x="633" 
d="M709 649l-36.5 -143.497c-9.66699 -39.667 -20.167 -76.167 -31.5 -109.5h-9c0 10 0.666992 26 2 48s2 39 2 51c0 32.667 -4.16699 59.834 -12.5 81.501s-27.166 37.334 -56.499 47.001s-62.333 14.5 -99 14.5c-21.333 0 -38.833 -2 -52.5 -6
s-21.834 -10.667 -24.501 -20l-68 -229c-3.33301 -13.333 5.33398 -20 26.001 -20c12.667 0 26.334 1.83301 41.001 5.5s30.5 8.66699 47.5 15s33.833 24.5 50.5 54.5c16.667 36 28.334 60.667 35.001 74l9 -3l-55.5 -189.5l-41.5 -145.5h-6c0 13.333 1.5 33.166 4.5 59.499
s4.5 40.5 4.5 42.5c0 15.333 -1.83301 27.166 -5.5 35.499s-10.834 13.833 -21.501 16.5c-16 5.33301 -30 9.66602 -42 12.999s-22.333 5 -31 5c-10 0 -18.333 -2.5 -25 -7.5s-11.667 -13.833 -15 -26.5l-70 -256c-1.33301 -6.66699 -2 -11 -2 -13c0 -12 5.66699 -20 17 -24
s25.666 -6 42.999 -6h16.5h10.5c2 -0.666992 2.66699 -2.33398 2 -5.00098s-1.66699 -5.33398 -3 -8.00098c-4.66699 -0.666992 -41.334 -1 -110.001 -1h-131h-28.5h-12.5c-0.666992 4 -1 7.83301 -1 11.5s2 5.5 6 5.5h11c24.667 0 45.834 2.5 63.501 7.5
s28.834 16.167 33.501 33.5l154 557c2 8.66699 -2.5 14.667 -13.5 18s-26.5 5 -46.5 5c-2 0 -9.33301 -0.333008 -22 -1s-20.334 -0.666992 -23.001 0c1.33301 4 2.66602 8.33301 3.99902 13h513z" />
    <glyph glyph-name="G" unicode="G" horiz-adv-x="521" 
d="M492 582c4 -4 8.00293 -6.00098 12.0029 -6.00098c6.66699 0 15.334 6.5 26.001 19.5l36 43.5c-5.33301 -37.333 -16.833 -84.5 -34.5 -141.5s-27.167 -88.5 -28.5 -94.5h-7c0 74.667 -8.83301 128.834 -26.5 162.501s-38.167 54 -61.5 61s-43 10.5 -59 10.5
c-41.333 0 -79.666 -25.667 -114.999 -77s-64.333 -109.5 -87 -174.5s-38 -123.333 -46 -175s-12 -79.5 -12 -83.5c0 -28 11.5 -53.5 34.5 -76.5s48.5 -34.5 76.5 -34.5c10.667 0 31.167 5.5 61.5 16.5s57.166 40 80.499 87s41.666 104.167 54.999 171.5
c1.33301 8 -8 14.667 -28 20l-20 10c2 1.33301 11.667 2 29 2s32.333 0.333008 45 1h114c-6.66699 -10.667 -18.5 -19.167 -35.5 -25.5s-31.333 -30.833 -43 -73.5l-37.5 -138.5c-13.333 -49.667 -21.333 -74.5 -24 -74.5c-4 0 -9 12.833 -15 38.5s-12.333 37.167 -19 34.5
c-33.333 -26.667 -62.333 -47.5 -87 -62.5s-48 -22.5 -70 -22.5h-9c-28.667 2.66699 -52.667 10.167 -72 22.5s-37.333 30.5 -54 54.5s-28.834 49.333 -36.501 76s-11.5 55 -11.5 85c0 37.333 5.83301 74.5 17.5 111.5s35.5 82.167 71.5 135.5s74.833 94.166 116.5 122.499
s83.167 42.5 124.5 42.5c12 0 25.667 -1.33301 41 -4s31.166 -9.66699 47.499 -21s33.166 -25.666 50.499 -42.999z" />
    <glyph glyph-name="H" unicode="H" horiz-adv-x="683" 
d="M807 650l-0.00195312 -11.002c0 -3.33301 -1 -5 -3 -5c-10 0.666992 -19 1 -27 1c-21.333 0 -39.5 -2.5 -54.5 -7.5s-24.833 -15.167 -29.5 -30.5l-157 -547c-4.66699 -15.333 5.66602 -24.666 30.999 -27.999c29.333 -1.33301 46.666 -2.33301 51.999 -3
c2.66699 -0.666992 3.66699 -2.66699 3 -6s-2 -7 -4 -11h-268c0.666992 0.666992 0.833984 3.16699 0.500977 7.5s-0.166016 8.16602 0.500977 11.499c4 -1.33301 9.66699 -2.5 17 -3.5s14.333 -1.5 21 -1.5c15.333 0 28.666 2.66699 39.999 8s19 15.333 23 30l80 288h-235
l-84 -290c-4 -14.667 -0.666992 -23.5 10 -26.5s21 -4.5 31 -4.5h14c4.66699 0 9.33398 0.333008 14.001 1c1.33301 -1.33301 3 -2.33301 5 -3c-4.66699 -8.66699 -6.66699 -14 -6 -16l-268 2c0 4 0.166992 7.66699 0.5 11s1.5 5 3.5 5c10 -0.666992 19 -1 27 -1
c25.333 0 44 2.83301 56 8.5s19.333 13.5 22 23.5l148 540c1.33301 6.66699 2 10.667 2 12c0 14 -9.5 22 -28.5 24s-36.5 3.66699 -52.5 5c-2 0.666992 -2 3.33398 0 8.00098s2.33301 8 1 10l272 -1c0.666992 -4 1 -8 1 -12s-1 -6 -3 -6c-10.667 0.666992 -19.667 1 -27 1
c-24 0 -41.5 -4.16699 -52.5 -12.5s-18.167 -19.833 -21.5 -34.5l-59 -224h234l75 244c3.33301 10.667 -0.666992 17.834 -12 21.501s-26.333 5.5 -45 5.5c-7.33301 0 -13.666 -0.166992 -18.999 -0.5s-9.66602 -0.5 -12.999 -0.5c-0.666992 4 -1 7.5 -1 10.5
s0.333008 5.83301 1 8.5z" />
    <glyph glyph-name="I" unicode="I" horiz-adv-x="324" 
d="M484 650c1.33301 -2.66699 2.16699 -5.33203 2.5 -7.99902s-0.5 -4.33398 -2.5 -5.00098h-12c-4 0 -8.33301 0.333008 -13 1c-21.333 0 -39.666 -2.66699 -54.999 -8s-25.333 -16 -30 -32l-154 -546c-0.666992 -2.66699 -1 -6 -1 -10c0 -12 6.33301 -20.167 19 -24.5
s27.667 -6.5 45 -6.5h14c-0.666992 -4 -1.33398 -7.66699 -2.00098 -11l-275 -1c-0.666992 4 -1 7.16699 -1 9.5s0.333008 3.5 1 3.5c2 -0.666992 8.33301 -1 19 -1c22 0 42 3 60 9s29 16.667 33 32l164 550c3.33301 13.333 -0.5 22.333 -11.5 27s-26.167 7 -45.5 7h-32
c-1.33301 0 -2.83301 0.666992 -4.5 2s-0.166992 5 4.5 11z" />
    <glyph glyph-name="J" unicode="J" horiz-adv-x="471" 
d="M597 650l0.00488281 -12.001c-18 -1.33301 -36 -2.33301 -54 -3c-28.667 -6.66699 -47.334 -23.667 -56.001 -51l-148 -477c-11.333 -36 -32.333 -62.833 -63 -80.5s-65.334 -26.5 -104.001 -26.5c-30 0 -56.833 5.5 -80.5 16.5s-40.5 26 -50.5 45s-15 34.833 -15 47.5
c0 14 3.66699 27.167 11 39.5s16 22 26 29s20.333 10.5 31 10.5c6 0 15 -2.5 27 -7.5s19.333 -15.167 22 -30.5c2.66699 -12 1 -21.667 -5 -29s-16.667 -16.333 -32 -27l-47 -19c-2.66699 -11.333 -0.333984 -21.166 6.99902 -29.499s18.666 -16 33.999 -23
s32 -10.5 50 -10.5c21.333 0 39.666 4.83301 54.999 14.5s26.333 18.167 33 25.5s17.167 36.5 31.5 87.5l48.5 168.5l49 166.5l30 101.5c5.33301 18 8 28 8 30c0 12 -6.66699 20.167 -20 24.5s-28 6.5 -44 6.5c-12 -0.666992 -18.667 -1 -20 -1c-0.666992 2.66699 -1 5 -1 7
s0.333008 4.33301 1 7h162.5h113.5z" />
    <glyph glyph-name="K" unicode="K" horiz-adv-x="679" 
d="M472 638c-8 0.666992 -15.002 1.00293 -21.002 1.00293c-18.667 0 -34.5 -2.5 -47.5 -7.5s-21.833 -15.833 -26.5 -32.5l-81 -277l312 257c18.667 14.667 28 26.667 28 36c0 11.333 -11.833 17.666 -35.5 18.999s-44.834 2.33301 -63.501 3
c-3.33301 0.666992 -4.66602 2 -3.99902 4s2 4.66699 4 8l264 -1c-3.33301 -1.33301 -3.33301 -4.33301 0 -9c-0.666992 -1.33301 -1 -2.33301 -1 -3c-18 0 -34.167 -1.16699 -48.5 -3.5s-28.166 -8.83301 -41.499 -19.5l-275 -229l124 -348
c3.33301 -10 11.666 -16.833 24.999 -20.5s28 -5.5 44 -5.5c13.333 0.666992 21.333 1 24 1c0 -2.66699 0.166992 -4.66699 0.5 -6s0.166016 -3 -0.500977 -5l-269 -2c0 2 -0.166992 4.66699 -0.5 8s0.5 5 2.5 5h21c19.333 0 35.166 1.66699 47.499 5s16.833 10.333 13.5 21
l-93 302l-67 -50.5c-16.667 -12.333 -26 -22.166 -28 -29.499l-65 -212c-5.33301 -16.667 1.5 -26.834 20.5 -30.501s42.5 -5.5 70.5 -5.5v-12h-267c-2 3.33301 -3.33301 5.66602 -4 6.99902c0.666992 2 1.66699 4 3 6c22.667 0 43.334 2 62.001 6s30.334 14.333 35.001 31
l159 556c4 14.667 -1.66699 23.5 -17 26.5s-28.666 4.5 -39.999 4.5h-19c0.666992 4 1.33398 8.33301 2.00098 13h253c0.666992 -1.33301 1.5 -3.33301 2.5 -6s0.166992 -4.33398 -2.5 -5.00098z" />
    <glyph glyph-name="L" unicode="L" horiz-adv-x="551" 
d="M469 638h-11.998c-4 0 -8.33301 0.333008 -13 1c-18.667 0 -34.834 -2.5 -48.501 -7.5s-22.834 -14.833 -27.501 -29.5l-162 -559c-3.33301 -10.667 -1.16602 -18.167 6.50098 -22.5s19.167 -6.5 34.5 -6.5c14 0 29.167 1.33301 45.5 4s38.333 6.66699 66 12
s60.167 31.333 97.5 78s66.666 94.667 87.999 144c0.666992 1.33301 3.66699 1.33301 9 0c-8 -38 -18.667 -79.5 -32 -124.5l-39 -127.5h-455c-1.33301 2.66699 -1.83301 4.66699 -1.5 6s0.833008 3 1.5 5c9.33301 -0.666992 17.333 -1 24 -1c18 0 32.667 2.16699 44 6.5
s19 13.833 23 28.5l163 562c3.33301 12 -2.5 20.333 -17.5 25s-33.167 7 -54.5 7c-15.333 -0.666992 -24.333 -1 -27 -1v12h288c-0.666992 -4 -1 -8 -1 -12z" />
    <glyph glyph-name="M" unicode="M" horiz-adv-x="787" 
d="M399 636c0 -24 1.50586 -73.1689 4.50586 -147.502s5.66699 -137.833 8 -190.5s4.5 -95.667 6.5 -129l283 476c0.666992 1.33301 8 2.33301 22 3s31.333 1 52 1c23.333 0 45.666 -0.166992 66.999 -0.5s40.333 -0.833008 57 -1.5c2 -3.33301 3.33301 -5.66602 4 -6.99902
c-1.33301 -2.66699 -2.33301 -5 -3 -7h-20c-23.333 0 -44.5 -3 -63.5 -9s-30.833 -17.667 -35.5 -35l-154 -552c-3.33301 -10 0.333984 -16.333 11.001 -19s26.667 -4 48 -4h19.5c6.33301 0 12.166 -0.666992 17.499 -2c3.33301 -0.666992 4.66602 -2 3.99902 -4
s-2 -4.66699 -4 -8l-282 -1c0 4 0.333008 8.33301 1 13h15c23.333 0 43.166 2.33301 59.499 7s26.5 15 30.5 31l152 539l-352 -586h-10l-21 587l-139 -506c-2.66699 -10 -4 -19.333 -4 -28c0 -14 4.33301 -25 13 -33s23.667 -12 45 -12c11.333 0.666992 18.666 1 21.999 1
c0 -2 0.166992 -3.83301 0.5 -5.5s-0.166992 -4.16699 -1.5 -7.5l-210 1c-2 2.66699 -3.33301 5.33398 -4 8.00098s1.66602 4 6.99902 4c20.667 0 40 4.5 58 13.5s32.333 31.167 43 66.5l141 497c1.33301 6.66699 2 11 2 13c0 14 -7.5 23.333 -22.5 28s-32.5 7 -52.5 7h-18
c0 2 0.166992 3.83301 0.5 5.5s1.83301 4.16699 4.5 7.5c16 0 47.667 -0.333008 95 -1s77.666 -1 90.999 -1c8 0 12 -4 12 -12z" />
    <glyph glyph-name="N" unicode="N" horiz-adv-x="663" 
d="M379 583l161.999 -410.997l104 363c4 13.333 6 24.666 6 33.999c0 25.333 -10 42.833 -30 52.5s-41.667 14.5 -65 14.5c-9.33301 -0.666992 -15 -1 -17 -1c0 4 0.333008 8.33301 1 13h259c-0.666992 -4 -1 -7.66699 -1 -11h-25c-20 0 -38 -3.83301 -54 -11.5
s-27.667 -23.834 -35 -48.501l-165 -577h-6l-200 531l-118 -446c-2 -9.33301 -3 -17.333 -3 -24c0 -20 8.16699 -33.333 24.5 -40s35.166 -10 56.499 -10h18c0 -4 0.333008 -8 1 -12h-264l1 12h15c24.667 0 47.834 5.66699 69.501 17s37.834 35.666 48.501 72.999l125 447
c3.33301 14.667 5 25.667 5 33c0 17.333 -5.83301 30.666 -17.5 39.999s-33.5 14 -65.5 14h-32c-2 0.666992 -2.66699 2.33398 -2 5.00098l2 8h39c12.667 0 25 0.333008 37 1c36.667 0 64.167 -4 82.5 -12s32.833 -26 43.5 -54z" />
    <glyph glyph-name="O" unicode="O" horiz-adv-x="521" 
d="M483 577c29.333 -51.333 43.999 -107.332 43.999 -167.999c0 -85.333 -23.167 -160.5 -69.5 -225.5s-89 -111.833 -128 -140.5s-83.167 -43 -132.5 -43c-30 0 -57 9.83301 -81 29.5s-42.5 48 -55.5 85s-19.5 79.167 -19.5 126.5c0 66 14.833 130 44.5 192
s64.834 109.167 105.501 141.5s71.167 53.166 91.5 62.499s42.5 14 66.5 14c11.333 0 26.333 -2.16699 45 -6.5s35.667 -12 51 -23s28 -25.833 38 -44.5zM336.999 633.001c-47.333 -26.667 -80.665 -55.668 -99.998 -87.001s-46.333 -93.5 -81 -186.5s-52 -158.5 -52 -196.5
c0 -24.667 3.5 -47.667 10.5 -69s17.333 -40 31 -56s30.5 -24 50.5 -24c8 0 15.333 0.833008 22 2.5s20.167 7.66699 40.5 18s41.833 32.333 64.5 66s40.167 66 52.5 97s27.666 72.5 45.999 124.5s30 89.167 35 111.5s7.5 42.5 7.5 60.5
c0 20.667 -2.83301 40.334 -8.5 59.001s-15.334 38 -29.001 58s-33.167 30 -58.5 30c-12 0 -22.333 -2.66699 -31 -8z" />
    <glyph glyph-name="P" unicode="P" horiz-adv-x="632" 
d="M654 562c12.667 -20.667 19.001 -43.0029 19.001 -67.0029c0 -36 -12.333 -71.333 -37 -106s-57.667 -58.167 -99 -70.5s-88 -18.5 -140 -18.5c-12.667 0 -24.5 0.333008 -35.5 1l-64.5 4l-39.5 -128l-42.5 -132c-4 -13.333 1.33301 -22.666 16 -27.999s33.667 -8 57 -8
c13.333 0 24.666 0.666992 33.999 2v-12h-292c-0.666992 4 -1 7.16699 -1 9.5s0.333008 3.5 1 3.5c9.33301 -0.666992 17.333 -1 24 -1c19.333 0 36.5 2.5 51.5 7.5s24.5 15.167 28.5 30.5l156 567c2 8 -2.16699 13.167 -12.5 15.5s-24.833 3.5 -43.5 3.5h-15.5
c-5 0 -9.83301 0.333008 -14.5 1h-11c-2 0.666992 -2.66699 2.33398 -2 5.00098l2 8c22 0 63.5 0.333008 124.5 1s93.167 1 96.5 1c20.667 0 39.667 -0.166992 57 -0.5s43.833 -2.66602 79.5 -6.99902s70.167 -31.5 103.5 -81.5zM556.001 609.997
c-29.333 15.333 -59.9971 22.9961 -91.9971 22.9961c-12 0 -24.333 -1 -37 -3s-27.667 -8 -45 -18l-76 -285c28.667 -6.66699 54.334 -10 77.001 -10c20.667 0 38.667 2.16699 54 6.5s35.666 14.333 60.999 30s47.166 37.834 65.499 66.501s27.5 60.334 27.5 95.001
c0 20.667 -2.33301 37.834 -7 51.501s-8.83398 23.334 -12.501 29.001s-8.83398 10.5 -15.501 14.5z" />
    <glyph glyph-name="Q" unicode="Q" horiz-adv-x="502" 
d="M417 -69c-12 -12.667 -24.833 -23 -38.5 -31s-27.5 -12 -41.5 -12c-8.66699 0 -19.334 2.66699 -32.001 8s-22.167 18.333 -28.5 39s-11.833 40.334 -16.5 59.001c-22 -4.66699 -43 -7 -63 -7c-24.667 0 -46.667 3.33301 -66 10s-37.666 20.5 -54.999 41.5
s-31.166 49.333 -41.499 85s-15.5 71.834 -15.5 108.501c0 26 2 50.5 6 73.5s14.833 58.667 32.5 107s51 98.666 100 150.999s107.833 78.5 176.5 78.5c36 0 67.333 -9.66699 94 -29s46.5 -48.666 59.5 -87.999s19.5 -82.333 19.5 -129
c0 -65.333 -14.5 -127.833 -43.5 -187.5s-59.5 -103 -91.5 -130s-53.667 -44.5 -65 -52.5c-6 -6.66699 -8 -15.334 -6 -26.001c8.66699 -12.667 19.667 -23.667 33 -33s27 -14 41 -14c17.333 0 31.166 4.66699 41.499 14s27.833 34 52.5 74c2 -11.333 -2 -28.333 -12 -51
s-23.333 -42.334 -40 -59.001zM247 588c-41.333 -51.333 -73.332 -105.166 -95.999 -161.499s-38.167 -109.666 -46.5 -159.999s-13.333 -82.833 -15 -97.5s-2.5 -27.667 -2.5 -39c0 -22.667 2.83301 -42.334 8.5 -59.001s15.5 -29.667 29.5 -39
c-2.66699 8.66699 -4 18 -4 28c0 16 5.83301 31 17.5 45s28.5 21 50.5 21c4 0 11.833 -1 23.5 -3s25.834 -12.167 42.501 -30.5s27.667 -28.833 33 -31.5c36 48 66 101 90 159s41.167 104.167 51.5 138.5s15.5 67.166 15.5 98.499c0 22 -2.33301 43 -7 63
s-11.334 38.667 -20.001 56s-20.834 29.5 -36.501 36.5s-32.5 10.5 -50.5 10.5c-37.333 0 -65.333 -11.667 -84 -35zM147.001 81c-4 -7.33301 -6 -15.3311 -6 -23.998c0 -16 5.83301 -28.333 17.5 -37s25.167 -13 40.5 -13c12.667 0 23.334 2.66699 32.001 8
s14.834 11.166 18.501 17.499s4.16699 13.166 1.5 20.499c-4.66699 14 -13.334 26 -26.001 36s-26 15 -40 15c-16.667 0 -29.334 -7.66699 -38.001 -23z" />
    <glyph glyph-name="R" unicode="R" horiz-adv-x="615" 
d="M16 0l0.999023 9.00098c4 -0.666992 8 -1 12 -1c20.667 0 37 4.66699 49 14s20 22.333 24 39l148 541c3.33301 14.667 -2.83398 24.167 -18.501 28.5s-35.834 6.5 -60.501 6.5h-17c0 1.33301 0.5 3.33301 1.5 6s0.833008 4.66699 -0.5 6c6.66699 -1.33301 15 -2 25 -2h32
c12 0 34.333 0.333008 67 1s58.334 1 77.001 1c26.667 0 50 -0.333008 70 -1s44.5 -2.83398 73.5 -6.50098s59.167 -17.834 90.5 -42.501s47 -55.667 47 -93c0 -30.667 -8.66699 -56.834 -26 -78.501s-37.5 -39.167 -60.5 -52.5s-47.5 -22.666 -73.5 -27.999
s-42.333 -9 -49 -11l48 -28c20 -11.333 31.333 -23.5 34 -36.5s4.33398 -23.667 5.00098 -32s1 -16.166 1 -23.499c0 -25.333 -5.66699 -55.333 -17 -90s-17 -58 -17 -70c0 -8.66699 1.33301 -16.667 4 -24s9 -11 19 -11c8.66699 0 20.834 3.66699 36.501 11
s30.5 24 44.5 50s29.333 60.667 46 104c2 -2 3.66699 -2.33301 5 -1c-16 -46.667 -33.667 -86.167 -53 -118.5s-39.5 -52 -60.5 -59s-36.167 -10.5 -45.5 -10.5c-23.333 0 -40.166 7 -50.499 21s-17.333 26.833 -21 38.5s-5.5 24.167 -5.5 37.5c0 22 7 51.333 21 88
s21 62 21 76c0 15.333 -5.5 29 -16.5 41s-24.667 20.667 -41 26s-34.833 8 -55.5 8c-13.333 0 -25.333 -0.666992 -36 -2s-19.334 -2.33301 -26.001 -3l-68 -263c-2 -6 -3 -11.667 -3 -17c0 -15.333 7 -26 21 -32s29.667 -9 47 -9c12 0 20.667 0.666992 26 2v-9h-275z
M352.999 637.001l-76.001 -282.001c10.667 0 21.667 -0.166992 33 -0.5s22.666 -0.5 33.999 -0.5c46.667 0 80.834 3.83301 102.501 11.5s40.167 19.834 55.5 36.501s27.333 34.5 36 53.5s13 38.833 13 59.5c0 15.333 -4.5 34.5 -13.5 57.5s-28.167 39.833 -57.5 50.5
s-60.666 16 -93.999 16c-8 0 -14.5 -0.166992 -19.5 -0.5s-9.5 -0.833008 -13.5 -1.5z" />
    <glyph glyph-name="S" unicode="S" horiz-adv-x="488" 
d="M491 591c4 -4 8 -6.00684 12 -6.00684c6.66699 0 17.334 9.66699 32.001 29s24 30 28 32l6 -1c-5.33301 -27.333 -16.166 -69.333 -32.499 -126s-26.166 -93 -29.499 -109h-9c0 49.333 -5.16699 91.5 -15.5 126.5s-31.166 60.833 -62.499 77.5s-60.666 25 -87.999 25
c-26 0 -49.833 -6.66699 -71.5 -20s-37.167 -26.166 -46.5 -38.499s-14 -27.166 -14 -44.499c0 -50.667 25.667 -92.667 77 -126l143 -75c52 -32 78 -71.667 78 -119c0 -10 -1 -20.667 -3 -32s-6.5 -28.666 -13.5 -51.999s-23.833 -48.5 -50.5 -75.5
s-49.834 -42.667 -69.501 -47s-33.5 -6.83301 -41.5 -7.5s-15.667 -1 -23 -1c-35.333 0 -68.666 7.66699 -99.999 23s-53.833 30.833 -67.5 46.5s-23.167 23.5 -28.5 23.5c-9.33301 0 -21.833 -14.167 -37.5 -42.5s-27.834 -45.166 -36.501 -50.499
c-2.66699 -0.666992 -5 -1 -7 -1l48 167.5c18 63.667 31.333 113.5 40 149.5c2 -2 3.83301 -3.33301 5.5 -4s3.16699 0.666016 4.5 3.99902c-2 -21.333 -3 -43.666 -3 -66.999c0 -31.333 2.16699 -58.666 6.5 -81.999s12.833 -45.333 25.5 -66c14 -25.333 32 -45 54 -59
s41.167 -21.833 57.5 -23.5s29.166 -2.5 38.499 -2.5c63.333 0 105.666 17.333 126.999 52s32 63.334 32 86.001c0 17.333 -7 36.5 -21 57.5s-52.5 49 -115.5 84s-107 62.167 -132 81.5s-37.5 48 -37.5 86c0 25.333 7.16699 53.333 21.5 84s33.166 55.334 56.499 74.001
s50.666 28 81.999 28c38 0 71.333 -4.33301 100 -13s55.667 -24 81 -46z" />
    <glyph glyph-name="T" unicode="T" horiz-adv-x="489" 
d="M589 650l-32.9971 -129.498c-12 -45.667 -24.333 -87.834 -37 -126.501h-6c0 10 1.66699 27 5 51s5 42.667 5 56c0 16 -1.83301 30.333 -5.5 43s-11.5 25.667 -23.5 39s-25.5 24 -40.5 32s-31.5 12 -49.5 12h-12l-62.5 -203.5l-63.5 -213l-42 -142.5
c-1.33301 -6.66699 -2 -11.334 -2 -14.001c0 -18 10.5 -29.667 31.5 -35s45.167 -8 72.5 -8h14v-12l-328 1c1.33301 7.33301 2.66602 11 3.99902 11c6.66699 -0.666992 12.667 -1 18 -1c22.667 0 45 4.16699 67 12.5s36.333 23.5 43 45.5l158 551c-10 4.66699 -21 7 -33 7
c-18 0 -36.833 -5.66699 -56.5 -17s-40.334 -27 -62.001 -47s-41.334 -46.5 -59.001 -79.5l-50.5 -96.5h-10l79 263z" />
    <glyph glyph-name="U" unicode="U" horiz-adv-x="500" 
d="M656 650c1.33301 -2.66699 1.99902 -4.83301 1.99902 -6.5v-5.5c-22 0 -47.167 -2.5 -75.5 -7.5s-47.5 -29.5 -57.5 -73.5l-83 -361c-8.66699 -40 -15.5 -66.333 -20.5 -79s-16.833 -30 -35.5 -52s-43.167 -39 -73.5 -51s-62.166 -18 -95.499 -18c-25.333 0 -50 4 -74 12
s-47.167 21.667 -69.5 41s-35.833 35 -40.5 47s-7 24 -7 36c0 8.66699 1.66699 19 5 31l122 443c4 14 -7 23 -33 27l-53 4v12l259 1v-12h-29c-15.333 0 -28 -2.16699 -38 -6.5s-17 -14.166 -21 -29.499l-132 -470c-3.33301 -13.333 -5 -25.333 -5 -36
c0 -11.333 1.5 -20.833 4.5 -28.5s13.833 -18.667 32.5 -33s46.334 -21.5 83.001 -21.5c34.667 0 68.167 9.16699 100.5 27.5s54.333 37.166 66 56.499s22.5 52.666 32.5 99.999l87 405c4 18 -6 29 -30 33c-27.333 1.33301 -42.333 2.33301 -45 3
s-3.83398 2.33398 -3.50098 5.00098s0.5 5 0.5 7h227z" />
    <glyph glyph-name="V" unicode="V" horiz-adv-x="462" 
d="M633 650l-0.000976562 -10.999c-5.33301 0.666992 -10 1 -14 1c-20 0 -40.833 -6 -62.5 -18s-45.167 -38.833 -70.5 -80.5l-101 -166.5l-142 -232.5c-52.667 -85.667 -81.334 -131.834 -86.001 -138.501c-1.33301 -2 -4.66602 -2.66699 -9.99902 -2
s-8 3.33398 -8 8.00098l-12 588c0 15.333 -6.5 25.5 -19.5 30.5s-28.833 7.5 -47.5 7.5c-11.333 0 -18.666 0.333008 -21.999 1v12h281c0.666992 -4 1 -7.16699 1 -9.5s-0.333008 -3.5 -1 -3.5c-8.66699 0.666992 -16.334 1 -23.001 1c-28.667 0 -49 -3.66699 -61 -11
s-18 -17.666 -18 -30.999l5 -433l236 389c12 19.333 18 35.666 18 48.999c0 15.333 -7.16699 25.666 -21.5 30.999s-30.833 8 -49.5 8c-13.333 -0.666992 -21 -1 -23 -1c-1.33301 0 -2.16602 1 -2.49902 3s-0.5 4.66699 -0.5 8z" />
    <glyph glyph-name="W" unicode="W" horiz-adv-x="753" 
d="M577 637c-26.667 0 -50.0039 -2.33398 -70.0039 -7.00098s-30 -17.334 -30 -38.001c0.666992 -40 1.66699 -111.333 3 -214s2 -176 2 -220l252 412c6.66699 11.333 10 21.333 10 30c0 15.333 -10 25.5 -30 30.5s-42 7.5 -66 7.5h-11v12h280
c0.666992 -2.66699 1.16699 -5.5 1.5 -8.5s-0.5 -4.5 -2.5 -4.5l-43 -4c-47.333 -10 -86.166 -39.167 -116.499 -87.5l-110 -174.5l-143 -225.5c-52.333 -82.333 -83.5 -130.5 -93.5 -144.5c-1.33301 -2.66699 -4.66602 -2.66699 -9.99902 0s-8 6 -8 10v113.5
c0 43 0.166992 90.5 0.5 142.5s0.833008 103.333 1.5 154c-24 -35.333 -49 -75.666 -75 -120.999l-98 -175c-39.333 -71.333 -61.5 -110.5 -66.5 -117.5s-9.16699 -10.5 -12.5 -10.5c-4 0 -6 1.33301 -6 4c-2.66699 19.333 -4.83398 98.166 -6.50098 236.499
s-2.5 246.5 -2.5 324.5v15.5v6.5c0 19.333 -5.16699 32.333 -15.5 39s-23.5 10 -39.5 10c-0.666992 0 -6 -0.333008 -16 -1s-16.333 -0.666992 -19 0c-3.33301 0.666992 -4.66602 3.16699 -3.99902 7.5s1.33398 7.83301 2.00098 10.5h242c2 -4.66699 2.83301 -8.5 2.5 -11.5
s-1.16602 -4.5 -2.49902 -4.5c-4 1.33301 -9.33301 2 -16 2c-14.667 0 -27.5 -3.33301 -38.5 -10s-16.5 -19 -16.5 -37l14 -416l178 314l2 106c0 24 -10.5 37 -31.5 39s-37.167 3.66699 -48.5 5c-0.666992 2.66699 -1 4.83398 -1 6.50098s0.333008 3.83398 1 6.50098l257 -1
v-12z" />
    <glyph glyph-name="X" unicode="X" horiz-adv-x="613" 
d="M422 635h-30c-22 0 -38.833 -1.5 -50.5 -4.5s-17.5 -9.83301 -17.5 -20.5c0 -1.33301 0.666992 -4.66602 2 -9.99902l71 -196l155 200c4.66699 6.66699 7 12 7 16c0 6.66699 -5.16699 11.167 -15.5 13.5s-22.5 3.5 -36.5 3.5h-17c-3.33301 0 -4.66602 1.33301 -3.99902 4
s2 5.66699 4 9h246c3.33301 -3.33301 5.16602 -5.83301 5.49902 -7.5s-1.16699 -2.5 -4.5 -2.5c-24 -2.66699 -48 -5 -72 -7c-43.333 -8.66699 -74.666 -25.667 -93.999 -51l-164 -209l119 -320c6 -18 18.667 -29 38 -33s34.333 -6 45 -6c12 0.666992 19.333 1 22 1
c0 -2.66699 0.166992 -4.83398 0.5 -6.50098s0.166016 -4.5 -0.500977 -8.5h-285c0 4 0.333008 8 1 12c30 0 56.333 1.83301 79 5.5s31.334 13.5 26.001 29.5l-96 263l-175 -223c-13.333 -17.333 -20 -31.333 -20 -42c0 -10 6 -18 18 -24s32 -9 60 -9
c17.333 0.666992 27.333 1 30 1c-0.666992 -4.66699 -1.33398 -9 -2.00098 -13h-254c-4 2 -6 5 -6 9c0 2.66699 2.66699 4 8 4c7.33301 -0.666992 13.333 -1 18 -1c17.333 0 34.833 4.5 52.5 13.5s38.167 29.167 61.5 60.5l198 252l-98 270c-4 10.667 -11 17.834 -21 21.501
s-21.667 5.5 -35 5.5h-31c-2.66699 0.666992 -3.5 2.66699 -2.5 6s1.83301 6.33301 2.5 9h262c0.666992 -2 1.5 -4.83301 2.5 -8.5s0.166992 -5.83398 -2.5 -6.50098z" />
    <glyph glyph-name="Y" unicode="Y" horiz-adv-x="481" 
d="M657 636h-23.999c-16.667 0 -33.167 -3.83301 -49.5 -11.5s-33.5 -23.5 -51.5 -47.5l-228 -306l-56 -232c-2 -10.667 3.16699 -18 15.5 -22s28.166 -6 47.499 -6h19.5c5.66699 0 10.834 0.333008 15.501 1c0 -2.66699 0.166992 -4.83398 0.5 -6.50098
s0.166016 -3.83398 -0.500977 -6.50098h-294c-0.666992 4 -1 7.16699 -1 9.5s0.333008 3.5 1 3.5c36.667 0 64.667 4.16699 84 12.5s31.666 23.833 36.999 46.5l58 221l-109 314c-4 12 -11.667 20.167 -23 24.5s-23.666 6.5 -36.999 6.5
c-11.333 -0.666992 -18.333 -1 -21 -1c-0.666992 2 -1.16699 3.83301 -1.5 5.5s0.5 4.16699 2.5 7.5l267 1c3.33301 -3.33301 5 -6.66602 5 -9.99902s-1.33301 -5.33301 -4 -6h-19.5h-24.5c-18 0 -32 -1.16699 -42 -3.5s-13.667 -7.5 -11 -15.5l100 -289l172 233
c12.667 17.333 19 32 19 44c0 12.667 -6.5 21 -19.5 25s-29.833 6 -50.5 6h-37c-2 0.666992 -2.66699 2.33398 -2 5.00098l2 8l259 1c1.33301 -2.66699 2.33301 -5.16699 3 -7.5s0 -3.83301 -2 -4.5z" />
    <glyph glyph-name="Z" unicode="Z" horiz-adv-x="536" 
d="M612 626c-4.66699 -7.33301 -65.001 -83.334 -181.001 -228.001l-236 -294c-41.333 -51.333 -62.333 -77 -63 -77c22.667 -6.66699 49.667 -10 81 -10c16.667 0 30 0.666992 40 2s33.5 4 70.5 8s78.833 28.833 125.5 74.5s83.334 102.5 110.001 170.5
c-6.66699 -38.667 -17.5 -83 -32.5 -133s-29.833 -96.667 -44.5 -140h-453c-3.33301 0 -4.33301 2.66699 -3 8s2.33301 8.66602 3 9.99902c6 10.667 45.167 61.334 117.5 152.001l208.5 261l161 201c-20 2 -39.667 3 -59 3c-42.667 0 -82.167 -6 -118.5 -18s-66 -28 -89 -48
s-39.5 -38.667 -49.5 -56s-28.333 -55.666 -55 -114.999c-1.33301 2.66699 -3 4.5 -5 5.5s-4 -0.5 -6 -4.5l32 122c13.333 52 23.666 95.667 30.999 131c50.667 0 108.334 -0.166992 173.001 -0.5s146.667 -0.833008 246 -1.5c0 -4 -0.166992 -8 -0.5 -12
s-1.5 -7.66699 -3.5 -11z" />
    <glyph glyph-name="backslash" unicode="\" horiz-adv-x="329" 
d="M44 741l293.999 -807c-11.333 -0.666992 -19.666 -1 -24.999 -1c-8.66699 0 -15.667 1.66699 -21 5l-98 266.5l-105 291l-89 249.5h23c8.66699 0 15.667 -1.33301 21 -4z" />
    <glyph glyph-name="asciicircum" unicode="^" horiz-adv-x="486" 
d="M107 491l140 146l127 -146h-82l-74 92l-87 -92h-24z" />
    <glyph glyph-name="grave" unicode="`" horiz-adv-x="413" 
d="M133 552c-2 4 -3.33301 10 -4 18s-1 13 -1 15c0 13.333 0.5 23.833 1.5 31.5s2.16699 13.5 3.5 17.5c-4 -7.33301 13.333 -25 52 -53l118 -83z" />
    <glyph glyph-name="a" unicode="a" horiz-adv-x="471" 
d="M326 370l8.99512 23.5039c2.66699 7 6.66699 15.5 12 25.5l65 1c-7.33301 -34.667 -20.5 -82.834 -39.5 -144.501s-33.667 -111.834 -44 -150.501s-15.5 -72 -15.5 -100c0 -6.66699 4.33301 -10 13 -10c10 0 22.5 7 37.5 21s30.667 35.167 47 63.5l45.5 80.5
c-13.333 -38.667 -29.833 -74.334 -49.5 -107.001s-37.667 -53.334 -54 -62.001s-27.833 -13 -34.5 -13c-9.33301 0 -18.666 3.16699 -27.999 9.5s-16.666 13.333 -21.999 21s-8.66602 15.167 -9.99902 22.5s-2 15.333 -2 24c0 13.333 0.166992 21.5 0.5 24.5
s1.16602 5.83301 2.49902 8.5c-26 -32 -49.5 -59.667 -70.5 -83s-46.833 -35 -77.5 -35c-6.66699 0 -16.667 2.16699 -30 6.5s-24.666 14.5 -33.999 30.5s-15.666 32.5 -18.999 49.5s-5 30.833 -5 41.5c0 43.333 11.5 86.5 34.5 129.5s49.167 78.5 78.5 106.5
s50 45.667 62 53s28.667 12.333 50 15c18 0 33.333 -4.5 46 -13.5s23.334 -21.833 32.001 -38.5zM205.995 386.004c-38 -44.667 -66.667 -96.333 -86 -155s-29 -118.334 -29 -179.001c0 -15.333 3.16699 -27.166 9.5 -35.499s14.5 -12.5 24.5 -12.5
c2 0 8.83301 2.66699 20.5 8s26.5 17.5 44.5 36.5s36.833 44 56.5 75s36.167 63 49.5 96s20 63.833 20 92.5c0 28 -5.83301 50.833 -17.5 68.5s-26.5 26.5 -44.5 26.5c-20 0 -36 -7 -48 -21z" />
    <glyph glyph-name="b" unicode="b" horiz-adv-x="381" 
d="M217 600c-4 -21.333 -10.835 -53.833 -20.502 -97.5l-30.5 -139.5c14 18 29 32.333 45 43s35 16 57 16c16 0 30.833 -4.83301 44.5 -14.5s26 -25.167 37 -46.5s16.5 -47 16.5 -77c0 -26.667 -4.66699 -52.834 -14 -78.501s-24.5 -55.167 -45.5 -88.5
s-46.333 -61.5 -76 -84.5s-62.5 -34.5 -98.5 -34.5c-10 0 -23 1.5 -39 4.5s-29.667 11.5 -41 25.5s-18.5 29.667 -21.5 47s-4.5 31.333 -4.5 42c0 22 3.33301 43.667 10 65l106 386c1.33301 6.66699 -0.666992 11.334 -6 14.001s-12.666 4 -21.999 4s-20 -0.5 -32 -1.5
s-19 -1.16699 -21 -0.5v10l151 16c1.33301 0 2.33301 -1 3 -3s1.33398 -4.33301 2.00098 -7zM234.998 399c-39.333 -21.333 -71.167 -63.833 -95.5 -127.5s-42.833 -136.834 -55.5 -219.501c-0.666992 -9.33301 2 -16.666 8 -21.999s13.833 -9.83301 23.5 -13.5
s17.834 -5.5 24.501 -5.5c22 0 45.667 18.5 71 55.5s46.666 76.667 63.999 119s26 87.5 26 135.5v34c-2 10 -3.33301 18.333 -4 25s-4.66699 12.5 -12 17.5s-16.333 7.5 -27 7.5c-8 0 -15.667 -2 -23 -6z" />
    <glyph glyph-name="c" unicode="c" horiz-adv-x="333" 
d="M297 400c18 -16 27 -34.667 27 -56c0 -8.66699 -3.83301 -22.334 -11.5 -41.001s-23.5 -28 -47.5 -28c-4 0 -9 1.16699 -15 3.5s-10.5 6.5 -13.5 12.5s-4.5 13.333 -4.5 22c0 10.667 1.5 18.334 4.5 23.001s11.333 11.834 25 21.501s20.5 17.5 20.5 23.5
c0 1.33301 -0.666992 4.66602 -2 9.99902c-10 12.667 -23.333 19 -40 19c-15.333 0 -35.333 -12.667 -60 -38s-46.334 -69.166 -65.001 -131.499s-28 -127.166 -28 -194.499c0 -11.333 5.83301 -20.166 17.5 -26.499s24.834 -9.5 39.501 -9.5c7.33301 0 20 3.16699 38 9.5
s38.667 24.166 62 53.499s44 62.666 62 99.999h5c-12 -41.333 -31.167 -78.666 -57.5 -111.999s-51.5 -52.5 -75.5 -57.5s-40 -7.5 -48 -7.5c-32 0 -55.333 9.66699 -70 29s-24.667 39.166 -30 59.499s-8 42.166 -8 65.499c0 20 1.66699 39 5 57s12.166 44 26.499 78
s36.333 64.833 66 92.5s65.834 41.5 108.501 41.5c15.333 0 28.333 -1.16699 39 -3.5s20.667 -7.5 30 -15.5z" />
    <glyph glyph-name="d" unicode="d" horiz-adv-x="456" 
d="M70 12c-20.667 12.667 -36.1631 29.165 -46.4961 49.498s-15.5 43.5 -15.5 69.5c0 18 8.16699 53 24.5 105s39.166 93 68.499 123s56.333 48 81 54s38.667 9 42 9c14 0 26.667 -3.83301 38 -11.5s19.833 -16 25.5 -25s9.5 -17 11.5 -24s4 -13.167 6 -18.5l57 229
c-6.66699 5.33301 -14.167 8.5 -22.5 9.5s-16.166 1.5 -23.499 1.5h-18c-10.667 0 -19.667 1.33301 -27 4c20 6 44.333 9.83301 73 11.5s57 3.16699 85 4.5l10 -5l-60 -222.5l-55 -197l-37 -132.5c-2.66699 -7.33301 -1.33398 -14 3.99902 -20s10.666 -7.66699 15.999 -5
c32.667 16.667 58.167 41.5 76.5 74.5l45.5 81.5c-14 -41.333 -28.833 -75.333 -44.5 -102s-32.334 -45 -50.001 -55s-29.167 -15 -34.5 -15c-8.66699 0 -16.834 3.16699 -24.501 9.5s-14.5 14.5 -20.5 24.5s-9.5 20.833 -10.5 32.5s-1.83301 22.834 -2.5 33.501
c-28 -39.333 -49.833 -67 -65.5 -83s-37.167 -24 -64.5 -24c-9.33301 1.33301 -17 2.83301 -23 4.5s-12.333 4.83398 -19 9.50098zM112.004 15.998c8 -2.66699 16.333 -2.66309 25 0.00390625s14.334 5.66699 17.001 9c40 38.667 71.833 82.167 95.5 130.5
s35.5 97.166 35.5 146.499c0 21.333 -2.66699 44.333 -8 69c-4 12.667 -7.83301 20.834 -11.5 24.501s-8.33398 6 -14.001 7s-11.167 1.5 -16.5 1.5c-15.333 0 -29.166 -5.16699 -41.499 -15.5s-27.833 -31.833 -46.5 -64.5s-35.667 -74.334 -51 -125.001
s-23 -101.334 -23 -152.001c0 -8.66699 4.66699 -15.834 14 -21.501s17.666 -8.83398 24.999 -9.50098z" />
    <glyph glyph-name="e" unicode="e" horiz-adv-x="342" 
d="M298 400c23.333 -18 35.0029 -40.333 35.0029 -67c0 -9.33301 -5.16699 -25.833 -15.5 -49.5s-34.5 -43.834 -72.5 -60.501s-86.667 -31 -146 -43c-4 -16.667 -7.66699 -34.167 -11 -52.5s-5 -33.833 -5 -46.5c0 -19.333 2.66699 -34.833 8 -46.5
s11.666 -19.334 18.999 -23.001s16.666 -5.5 27.999 -5.5c8 0 16 1 24 3c32 10.667 61.333 30.834 88 60.501s47.667 62.167 63 97.5h5c-8 -36 -24.5 -68.5 -49.5 -97.5s-49.833 -49 -74.5 -60s-43 -16.5 -55 -16.5c-14.667 0 -28 2.83301 -40 8.5
s-29.167 20.167 -51.5 43.5s-33.5 57 -33.5 101c0 16.667 10.333 56.834 31 120.501s57.167 105.667 109.5 126s82.833 30.5 91.5 30.5c17.333 0 34.666 -7.66699 51.999 -23zM232.003 402c-28.667 -10 -52.668 -33.668 -72.001 -71.001s-37 -82 -53 -134
c58 5.33301 99 23.333 123 54s38.667 51.5 44 62.5s8 23.167 8 36.5c0 12 -2.33301 22.333 -7 31s-9.16699 14.834 -13.5 18.501s-10.166 5.5 -17.499 5.5c-4 0 -8 -1 -12 -3z" />
    <glyph glyph-name="f" unicode="f" horiz-adv-x="269" 
d="M370 604c8 -8.66699 13.667 -16.501 17 -23.501s5 -15.167 5 -24.5c0 -5.33301 -1.5 -12.333 -4.5 -21s-7.83301 -16.334 -14.5 -23.001s-15.334 -10 -26.001 -10s-20.167 3.33301 -28.5 10s-13.5 15.334 -15.5 26.001c-1.33301 10.667 2.5 21.334 11.5 32.001l28.5 34
c0 5.33301 -5.5 9.5 -16.5 12.5s-18.167 4.5 -21.5 4.5c-16 0 -29.833 -4.33301 -41.5 -13s-19.167 -20.667 -22.5 -36l-39 -151h84l-4 -19h-87l-147 -504l-61 5l141 502h-83l2 16l89 1c18 65.333 40.333 114 67 146s49.834 50.5 69.501 55.5s33.5 7.5 41.5 7.5
c21.333 0 40 -9 56 -27z" />
    <glyph glyph-name="g" unicode="g" horiz-adv-x="389" 
d="M303 360l19.0029 46.9971l56 4c-30 -144 -61.333 -262.5 -94 -355.5s-65.334 -148.333 -98.001 -166s-66.667 -26.5 -102 -26.5c-18 0 -33.333 1.83301 -46 5.5s-25.5 10.167 -38.5 19.5s-19.5 22 -19.5 38c0 8.66699 4 19 12 31s20 18 36 18
c5.33301 0 10.666 -1.5 15.999 -4.5s9.5 -7.66699 12.5 -14s4.5 -13.166 4.5 -20.499l-2 -17c-0.666992 -3.33301 -4.33398 -7.66602 -11.001 -12.999s-9.33398 -10.666 -8.00098 -15.999c4 -5.33301 9.66699 -9.33301 17 -12s15.333 -4 24 -4s15.834 0.5 21.501 1.5
s17.834 3 36.501 6s33.667 15.333 45 37s27 79.5 47 173.5c-15.333 -24.667 -35.333 -46.5 -60 -65.5s-48.334 -28.5 -71.001 -28.5c-8.66699 0 -25.167 4.83301 -49.5 14.5s-36.5 35.167 -36.5 76.5c0 72.667 20.167 141.667 60.5 207s74.666 102.333 102.999 111
s45.5 13 51.5 13c14.667 0 28.834 -6 42.501 -18s24.167 -26 31.5 -42zM221.003 402.997c-14.667 -3.33301 -26.166 -9.16797 -34.499 -17.501s-22.5 -31.5 -42.5 -69.5s-37.5 -79.5 -52.5 -124.5s-22.5 -94.167 -22.5 -147.5c0 -8 3.66699 -15 11 -21s16.333 -9 27 -9
c4.66699 0 11.834 1.33301 21.501 4s21.167 9.83398 34.5 21.501s29.666 32 48.999 61s35.666 61.333 48.999 97s20 73.167 20 112.5c0 18 -1.33301 34 -4 48c-1.33301 13.333 -6.33301 24.333 -15 33s-19 13 -31 13c-4 0 -7.33301 -0.333008 -10 -1z" />
    <glyph glyph-name="h" unicode="h" horiz-adv-x="436" 
d="M233 607c-6 -38 -21.499 -101.497 -46.499 -190.497s-37.5 -134.167 -37.5 -135.5l68 84.5c24 29 41 44.5 51 46.5s17.667 3 23 3c13.333 0 25.166 -3.83301 35.499 -11.5s18.333 -19 24 -34s8.5 -32.5 8.5 -52.5c0 -31.333 -12.667 -79.333 -38 -144
s-38 -113.334 -38 -146.001c0 -3.33301 1.83301 -6.83301 5.5 -10.5s10.167 -5.5 19.5 -5.5c7.33301 0 17.5 4.66699 30.5 14s27.333 28.666 43 57.999l44.5 83c-10 -37.333 -24 -71.833 -42 -103.5s-35.167 -51 -51.5 -58s-28.5 -10.5 -36.5 -10.5
c-13.333 0 -26 4.66699 -38 14s-18.5 18.666 -19.5 27.999s-1.66699 16.5 -2 21.5s-0.5 10.833 -0.5 17.5c0 34.667 12.667 88.834 38 162.501s38 119.167 38 136.5c0 8 -0.666992 15.167 -2 21.5s-7.66602 9.5 -18.999 9.5c-8 0 -16.5 -2.16699 -25.5 -6.5
s-31 -28.5 -66 -72.5s-57.833 -81.5 -68.5 -112.5s-21.834 -71.5 -33.501 -121.5s-19.167 -81 -22.5 -93h-65l142 563c-7.33301 10.667 -20.5 16.667 -39.5 18s-30.833 3.66602 -35.5 6.99902c18.667 4 40.5 7.33301 65.5 10z" />
    <glyph glyph-name="i" unicode="i" horiz-adv-x="293" 
d="M198 383c8 -18.667 11.9971 -38.998 11.9971 -60.998c0 -24.667 -13.333 -67.334 -40 -128.001s-40 -105 -40 -133c0 -10.667 1 -22 3 -34c2.66699 -8.66699 11 -13 25 -13c7.33301 0 17.833 5.16699 31.5 15.5s28.667 32.166 45 65.499l46.5 96
c-5.33301 -38 -17 -73.833 -35 -107.5s-36 -56.167 -54 -67.5s-30.667 -17 -38 -17c-11.333 0 -22.166 4.16699 -32.499 12.5s-18.166 18.333 -23.499 30s-9.16602 22.5 -11.499 32.5s-3.5 21 -3.5 33c0 30.667 12.5 75.834 37.5 135.501s37.5 104.167 37.5 133.5
c0 9.33301 -0.333008 16.333 -1 21c0 8 -6 12 -18 12c-9.33301 0 -21.333 -6.66699 -36 -20s-29 -31.5 -43 -54.5s-25 -48.167 -33 -75.5h-11c17.333 49.333 34.5 85.666 51.5 108.999s32.5 39 46.5 47s24.333 12 31 12c10.667 0 21 -4.33301 31 -13s17.333 -19 22 -31z
M191.997 603.002c13.333 0 25 -4.66699 35 -14s15 -21 15 -35s-4.66699 -25.667 -14 -35s-21.333 -14 -36 -14c-14 0 -25.667 4.66699 -35 14s-14 21 -14 35s4.66699 25.667 14 35s21 14 35 14z" />
    <glyph glyph-name="j" unicode="j" horiz-adv-x="281" 
d="M232 374c2 -11.333 3.00195 -22.999 3.00195 -34.999c0 -23.333 -2.5 -46.333 -7.5 -69s-15.5 -60.834 -31.5 -114.501l-54 -182.5c-30 -66.667 -78 -104.667 -144 -114c-18 -2 -34.333 1.5 -49 10.5s-23.667 19.667 -27 32s-5 21.833 -5 28.5
c0 16.667 5.66699 31.167 17 43.5s24.666 18.5 39.999 18.5c6 0 13.333 -2.5 22 -7.5s13 -16.167 13 -33.5c0 -5.33301 -1 -11 -3 -17s-10.333 -12.333 -25 -19s-22 -12.667 -22 -18c0 -3.33301 2 -8 6 -14c10 -6 21.667 -9 35 -9c8 0 15.833 1.66699 23.5 5
s13.834 7.5 18.501 12.5s9.83398 18 15.501 39l29.5 105l51 179.5c20 70.667 34.333 124 43 160c1.33301 6 0.166016 12.5 -3.50098 19.5s-8.16699 9.83301 -13.5 8.5c-21.333 -4 -38.833 -14.5 -52.5 -31.5s-40.834 -62.5 -81.501 -136.5h-13
c24 54.667 45.167 96.167 63.5 124.5s37 45.5 56 51.5s31.833 9 38.5 9c14 0 26.167 -3.83301 36.5 -11.5s17.166 -19.167 20.499 -34.5zM215.002 583.001c12.667 0 23.667 -4.66699 33 -14s14 -20.666 14 -33.999s-4.33301 -24.666 -13 -33.999s-20 -14 -34 -14
c-13.333 0 -24.666 4.66699 -33.999 14s-14 20.666 -14 33.999s4.66699 24.666 14 33.999s20.666 14 33.999 14z" />
    <glyph glyph-name="k" unicode="k" horiz-adv-x="453" 
d="M152 252c9.33301 -4.66699 19.3359 -7.00293 30.0029 -7.00293c7.33301 0 13.833 1 19.5 3s18.667 8.33301 39 19s39.666 39.834 57.999 87.501s38.833 71.5 61.5 71.5c9.33301 0 22.666 -3.5 39.999 -10.5s26 -23.833 26 -50.5c0 -10.667 -1.66699 -20.5 -5 -29.5
s-8.83301 -16.333 -16.5 -22s-15.5 -8.5 -23.5 -8.5c-5.33301 0 -10.833 1.33301 -16.5 4s-9.33398 6.83398 -11.001 12.501s-2.5 11.5 -2.5 17.5c0 6.66699 1 12.834 3 18.501s8 13.334 18 23.001s13 17.5 9 23.5c-4.66699 7.33301 -13.334 11 -26.001 11
c-6.66699 0 -13 -3.83301 -19 -11.5s-16.167 -30.167 -30.5 -67.5s-42.166 -68.666 -83.499 -93.999c20.667 -10 36.5 -19 47.5 -27s17.833 -17.333 20.5 -28s4 -17.667 4 -21c0 -8.66699 -3.66699 -25.334 -11 -50.001s-11 -42.334 -11 -53.001
c0 -13.333 2.5 -23.333 7.5 -30s10.5 -10 16.5 -10c3.33301 0 7.5 1 12.5 3s14.833 7.83301 29.5 17.5s27.167 23.667 37.5 42s26.5 51.833 48.5 100.5l10 -3c-18 -48.667 -37.333 -88.167 -58 -118.5s-43 -48.666 -67 -54.999s-37.333 -9.5 -40 -9.5
c-12.667 0 -24.334 4.66699 -35.001 14s-17.667 19.666 -21 30.999s-5 22.666 -5 33.999s2.83301 29.833 8.5 55.5s8.5 41.834 8.5 48.501c0 20.667 -6.16699 33.667 -18.5 39s-22.5 8 -30.5 8c-25.333 0 -40.666 -14.333 -45.999 -43l-52 -189h-73l54.5 200.5l51 186.5
l51.5 192c2.66699 9.33301 -2 14 -14 14c-4 0 -11.333 -0.666992 -22 -2s-18.667 -2 -24 -2c-6.66699 0 -12.667 1 -18 3v7c27.333 0 57.333 1.83301 90 5.5s57.667 6.16699 75 7.5z" />
    <glyph glyph-name="l" unicode="l" horiz-adv-x="244" 
d="M227 606l-142.003 -521.001c-1.33301 -4.66699 -2.33301 -10.5 -3 -17.5s-1 -13.167 -1 -18.5c0 -24.667 4.66699 -37 14 -37c31.333 0 56 18.667 74 56l52 107c-15.333 -55.333 -28.666 -95 -39.999 -119s-27.166 -40.333 -47.499 -49s-33.833 -13 -40.5 -13
c-11.333 0 -22.166 3.66699 -32.499 11s-20 17.833 -29 31.5s-13.5 29.5 -13.5 47.5c0 9.33301 1.33301 19.833 4 31.5l7 30.5l112 439c-4 2.66699 -9.5 4.33398 -16.5 5.00098s-15.167 1 -24.5 1c-12 0.666992 -20.667 1 -26 1h-12c11.333 6 30.833 9.83301 58.5 11.5
s58.167 2.5 91.5 2.5h15z" />
    <glyph glyph-name="m" unicode="m" horiz-adv-x="669" 
d="M583 382c7.33301 -10 11.0039 -23.6631 11.0039 -40.9961c0 -23.333 -13.833 -69.333 -41.5 -138s-41.5 -119.334 -41.5 -152.001c0 -9.33301 1 -18.333 3 -27s8.66699 -13 20 -13c2 0 10.167 3.5 24.5 10.5s28.333 22.333 42 46s28.167 56.5 43.5 98.5h8
c-15.333 -45.333 -30.666 -81.166 -45.999 -107.499s-32.166 -43 -50.499 -50s-29.833 -10.5 -34.5 -10.5c-10.667 0 -20.334 3.5 -29.001 10.5s-15.334 15.167 -20.001 24.5s-8 19 -10 29s-3 18.667 -3 26c0 21.333 4.83301 44.5 14.5 69.5l28 71l30.5 74.5
c10 27.333 15 57 15 89c0 5.33301 -2.83301 9.66602 -8.5 12.999s-12.167 5 -19.5 5c-9.33301 0 -25.666 -13.167 -48.999 -39.5s-49.5 -73 -78.5 -140s-55.833 -144.167 -80.5 -231.5h-28.5c-9.66699 0 -21.167 -0.333008 -34.5 -1
c7.33301 31.333 18.666 72.666 33.999 123.999s28.666 98.166 39.999 140.499s19.666 80.5 24.999 114.5c1.33301 4.66699 0.333008 9.33398 -3 14.001s-7.33301 8.16699 -12 10.5s-9 3.5 -13 3.5c-16 0 -31.833 -13.667 -47.5 -41l-43 -75.5
c-13 -23 -29.667 -61.5 -50 -115.5l-64.5 -176h-69l120 362c2.66699 9.33301 2 19.5 -2 30.5s-10 15.167 -18 12.5c-27.333 -6.66699 -52.5 -30.834 -75.5 -72.501l-55.5 -102.5h-7c15.333 40 32.333 76 51 108s36.334 53.667 53.001 65s29 17 37 17
c12.667 0 22.167 -5.16699 28.5 -15.5s11.166 -21.166 14.499 -32.499s5.33301 -21.5 6 -30.5s1 -20.167 1 -33.5c0 -6.66699 -0.166992 -13.334 -0.5 -20.001s-0.5 -13 -0.5 -19l60.5 107c18.333 31.333 39.833 47 64.5 47c10.667 0 22.167 -3.66699 34.5 -11
s21.166 -18.833 26.499 -34.5s8 -33.834 8 -54.501c0 -6.66699 -0.333008 -15.834 -1 -27.501s-1 -19.5 -1 -23.5c22.667 40.667 44.5 76.834 65.5 108.501s43.5 47.5 67.5 47.5c10.667 0 20.667 -3.16699 30 -9.5s19.666 -17.5 30.999 -33.5z" />
    <glyph glyph-name="n" unicode="n" horiz-adv-x="475" 
d="M390 373c4.66699 -18 6.99707 -36.668 6.99707 -56.001c0 -32 -12 -81.667 -36 -149s-36 -114.333 -36 -141c0 -10 7.66699 -15 23 -15c5.33301 0 14.833 3.83301 28.5 11.5s28 26.167 43 55.5l42.5 85c-24.667 -64 -42.5 -104.333 -53.5 -121
s-24.333 -28.334 -40 -35.001s-27.167 -10 -34.5 -10c-26.667 0 -42.834 8 -48.501 24s-9.5 30.333 -11.5 43s-3 24 -3 34c0 34 12.333 81 37 141s37 104.667 37 134c0 9.33301 -0.333008 16.333 -1 21s-3.16699 8.16699 -7.5 10.5s-10.166 3.5 -17.499 3.5
c-16.667 0 -32.667 -11.5 -48 -34.5s-32.333 -54.833 -51 -95.5s-35.167 -81.334 -49.5 -122.001l-53.5 -157h-68c8 30 22.333 76.333 43 139s35.334 111.334 44.001 146.001s13 68.667 13 102c0 2.66699 -1.66699 5.5 -5 8.5s-8.66602 4.5 -15.999 4.5
c-6 0 -17.833 -8.16699 -35.5 -24.5s-31.667 -33.666 -42 -51.999s-23.166 -51.833 -38.499 -100.5c9.33301 50 20 88.333 32 115s28.167 45.834 48.5 57.501s33.166 17.5 38.499 17.5c12.667 0 25 -5 37 -15s18 -22 18 -36c0 -20.667 0.5 -37.334 1.5 -50.001
s3.5 -25.667 7.5 -39c18.667 41.333 36.167 76.333 52.5 105s39.833 43 70.5 43c16.667 0 31.834 -4.16699 45.501 -12.5s22.5 -20.166 26.5 -35.499z" />
    <glyph glyph-name="o" unicode="o" horiz-adv-x="391" 
d="M349 360c17.333 -34 26.002 -68.667 26.002 -104c0 -24.667 -4.33301 -49.334 -13 -74.001s-23.667 -52 -45 -82s-46 -55.167 -74 -75.5s-61 -30.5 -99 -30.5c-48 4 -81.167 24 -99.5 60s-27.5 72.333 -27.5 109c0 21.333 2.33301 41.333 7 60s16.5 44 35.5 76
s43.833 60.667 74.5 86s65.667 38 105 38c13.333 0 31.166 -2.66699 53.499 -8s41.166 -23.666 56.499 -54.999zM243.002 409c-44.667 -14 -79.999 -52.3311 -105.999 -114.998l-36.5 -99.5c-7.66699 -20.333 -13.667 -38.833 -18 -55.5s-6.5 -32.667 -6.5 -48
c0 -17.333 2.83301 -32 8.5 -44s14.167 -21.5 25.5 -28.5s22.666 -10.5 33.999 -10.5c12 0 24 2.66699 36 8s28.333 24.166 49 56.499s40.167 69.333 58.5 111s27.5 82.5 27.5 122.5c0 21.333 -2.33301 40.166 -7 56.499s-12 28.5 -22 36.5s-20.333 12 -31 12
c-2.66699 0 -6.66699 -0.666992 -12 -2z" />
    <glyph glyph-name="p" unicode="p" horiz-adv-x="468" 
d="M410 394c12 -14.667 20.832 -31 26.499 -49s8.5 -38 8.5 -60c0 -18.667 -1.83301 -37.167 -5.5 -55.5s-12 -44 -25 -77s-33.167 -64.833 -60.5 -95.5s-52.833 -48.5 -76.5 -53.5s-37.5 -7.5 -41.5 -7.5c-14 0 -26.167 3.83301 -36.5 11.5s-20.5 18 -30.5 31
s-16.333 24.5 -19 34.5l-49 -176c-2 -8.66699 1 -14.667 9 -18s18.667 -5 32 -5c5.33301 0 13 0.333008 23 1s16.333 1 19 1v-14l-236 -1l1 9c14 1.33301 27.667 2.33301 41 3c16.667 3.33301 27.334 13 32.001 29l137 482c3.33301 14 -0.333984 21 -11.001 21
s-19.334 -3.33301 -26.001 -10c-23.333 -19.333 -42.666 -40.833 -57.999 -64.5s-32.666 -56.167 -51.999 -97.5c8.66699 38 24.5 74.833 47.5 110.5s43 57.167 60 64.5s28.833 11 35.5 11c18 0 29.833 -7.16699 35.5 -21.5s10 -28.833 13 -43.5s5.16699 -25.667 6.5 -33
c26 41.333 44.833 69 56.5 83s30.5 21 56.5 21c20.667 0 38 -2.16699 52 -6.5s25.667 -12.5 35 -24.5zM353.999 407c-8.66699 4.66699 -17.335 7.00098 -26.002 7.00098c-28 0 -54.167 -20.333 -78.5 -61s-41.333 -77.667 -51 -111s-16.167 -58.833 -19.5 -76.5
s-5 -33.834 -5 -48.501c0 -20 2.5 -37.667 7.5 -53s12 -28.333 21 -39s18.833 -16 29.5 -16c9.33301 0 19 2.83301 29 8.5s24 25.5 42 59.5s35.167 73.667 51.5 119s24.5 91.333 24.5 138c0 15.333 -0.666992 28.5 -2 39.5s-4.16602 18.667 -8.49902 23
s-9.16602 7.83301 -14.499 10.5z" />
    <glyph glyph-name="q" unicode="q" horiz-adv-x="405" 
d="M381 377c-3.33301 -8.66699 -15.332 -50.667 -35.999 -126l-61 -224.5c-20 -74.333 -30.333 -111.5 -31 -111.5c-4 -14 1.5 -22.5 16.5 -25.5s28.5 -4.5 40.5 -4.5h15c4 0 7.33301 0.333008 10 1l-1 -21l-251 1v16h17.5c6.33301 0 12.833 -0.333008 19.5 -1
c18 0 32.667 2 44 6s20.166 17 26.499 39l24 81.5c9.66699 32.333 13.834 50.166 12.501 53.499c-22 -22 -41.833 -39.5 -59.5 -52.5s-36.5 -19.5 -56.5 -19.5c-10.667 0 -24.334 3.5 -41.001 10.5s-30.834 23.833 -42.501 50.5s-17.5 57 -17.5 91
c0 59.333 20.5 115.5 61.5 168.5s86.167 88.167 135.5 105.5c10.667 2.66699 18.334 4.16699 23.001 4.5s8.33398 0.5 11.001 0.5c16 0 29.833 -2.5 41.5 -7.5s22.167 -14.167 31.5 -27.5s18.666 -22 27.999 -26c5.33301 5.33301 13 17.333 23 36s20.667 30.334 32 35.001z
M229.001 403c-45.333 -35.333 -78.501 -75.335 -99.501 -120.002s-34.5 -84.667 -40.5 -120s-9.66699 -59.166 -11 -71.499s-2 -23.166 -2 -32.499c0 -14 0.833008 -24.667 2.5 -32s5.83398 -13 12.501 -17s15 -6 25 -6c18 0 42.333 15 73 45s56 76 76 138
s30 122.333 30 181c0 11.333 -5 21 -15 29s-21 12 -33 12c-6.66699 0 -12.667 -2 -18 -6z" />
    <glyph glyph-name="r" unicode="r" horiz-adv-x="373" 
d="M367 379c2.66699 -8 4.00391 -17 4.00391 -27c0 -20.667 -5.33301 -35.5 -16 -44.5s-19 -15 -25 -18s-12.333 -4.5 -19 -4.5s-13.167 2 -19.5 6s-9.5 11.667 -9.5 23c0 4.66699 0.833008 9.83398 2.5 15.501s3.66699 12 6 19s9.16602 15.5 20.499 25.5s16 17.667 14 23
c-3.33301 6 -9.66602 9 -18.999 9c-6 0 -16.833 -11.333 -32.5 -34s-32.334 -54 -50.001 -94s-34.667 -85.667 -51 -137l-45.5 -146l-77 -2l105 339c2 6 3.16699 12 3.5 18s0.833008 10.667 1.5 14c0 21.333 -7 30.666 -21 27.999
c-24.667 -3.33301 -49.834 -29.833 -75.501 -79.5s-41.834 -78.5 -48.501 -86.5c11.333 38 26.666 74.833 45.999 110.5s36 57 50 64s25 10.5 33 10.5c13.333 0 25.666 -3.16699 36.999 -9.5s18.833 -17.833 22.5 -34.5s5.5 -32.667 5.5 -48l-2 -36l44.5 91
c15.667 32 35.834 48 60.501 48c12.667 0 24 -3.83301 34 -11.5s17 -18.167 21 -31.5z" />
    <glyph glyph-name="s" unicode="s" horiz-adv-x="394" 
d="M363 357c4 -8 6.00586 -16.6699 6.00586 -26.0029c0 -25.333 -6.66699 -39.666 -20 -42.999s-21.333 -5 -24 -5c-22 0 -36.333 9.66699 -43 29c-4.66699 12.667 3.33301 24.334 24 35.001s29.667 21 27 31c-16 21.333 -41 32 -75 32h-12
c-5.33301 -1.33301 -14.333 -2.66602 -27 -3.99902s-26.667 -6.16602 -42 -14.499s-24.333 -18.666 -27 -30.999s-4 -21.5 -4 -27.5c0 -28 26 -53.833 78 -77.5s82.167 -45.834 90.5 -66.501s12.5 -38 12.5 -52c0 -16.667 -3.66699 -32.5 -11 -47.5s-19 -30.333 -35 -46
s-35 -27.667 -57 -36s-45.667 -12.5 -71 -12.5c-18.667 0 -42.334 3.66699 -71.001 11s-46.167 21.5 -52.5 42.5s-9.5 35.5 -9.5 43.5c0 16.667 4.16699 30.834 12.5 42.501s19.833 17.5 34.5 17.5s26 -1.33301 34 -4s13 -8.33398 15 -17.001s3 -14.667 3 -18
c0 -10.667 -3.33301 -19.667 -10 -27s-14.334 -10.5 -23.001 -9.5s-14.834 0.5 -18.501 -1.5s-8.5 -5 -14.5 -9c0 -14 4.16699 -24.833 12.5 -32.5s19.5 -14.167 33.5 -19.5c18 -5.33301 35.667 -8 53 -8c27.333 0 49.666 4.5 66.999 13.5s30.333 19.167 39 30.5
s14 21.5 16 30.5s3 16.167 3 21.5c0 14 -4.33301 26.667 -13 38s-23.834 22.666 -45.501 33.999l-74.5 39c-31.333 20.667 -47 45.334 -47 74.001c0 31.333 10.167 58.666 30.5 81.999s42.666 38 66.999 44s44.5 9 60.5 9c24.667 0 46.5 -5.33301 65.5 -16
s33.167 -27 42.5 -49z" />
    <glyph glyph-name="t" unicode="t" horiz-adv-x="274" 
d="M229 582l-48.001 -166h83v-14h-87l-107 -358c-2.66699 -10 -0.166992 -18.833 7.5 -26.5s15.834 -10.5 24.501 -8.5c32 10 55 26.5 69 49.5s32.667 61.5 56 115.5c-4.66699 -35.333 -16.5 -69.333 -35.5 -102s-38.167 -53.834 -57.5 -63.501s-33.333 -14.5 -42 -14.5
c-16.667 0 -30.167 5.66699 -40.5 17s-17.833 23.333 -22.5 36s-7 26 -7 40c0 10.667 1 20.667 3 30s7.5 27.833 16.5 55.5s19.333 61.667 31 102l35.5 127.5h-74v14h79l49 161c8 -1.33301 19.5 -0.666016 34.5 2.00098s25.833 3.66699 32.5 3z" />
    <glyph glyph-name="u" unicode="u" horiz-adv-x="488" 
d="M444 425l-107.997 -378.997c-0.666992 -7.33301 2.33301 -13.666 9 -18.999s14.334 -8 23.001 -8c4 0 12.167 3.66699 24.5 11s26.5 27 42.5 59l37 83h14c-30 -70.667 -50.833 -116.167 -62.5 -136.5s-33.167 -30.5 -64.5 -30.5c-20.667 0 -34.5 3.83301 -41.5 11.5
s-12.167 18.167 -15.5 31.5s-5.33301 26.833 -6 40.5s-1 25.5 -1 35.5v16v8c-4.66699 -4.66699 -22 -30.834 -52 -78.501s-57.667 -71.5 -83 -71.5c-3.33301 0 -12 1.66699 -26 5s-26.333 14.5 -37 33.5s-16 41.167 -16 66.5c0 8 0.833008 21 2.5 39s14.667 60.167 39 126.5
s37.5 105.5 39.5 117.5c2 5.33301 0.833008 9.83301 -3.5 13.5s-7.5 6.16699 -9.5 7.5c-33.333 -10 -61 -36 -83 -78s-36.333 -67 -43 -75h-9c22.667 48 45 87.833 67 119.5s45.667 47.5 71 47.5c6 0 14.667 -2.16699 26 -6.5s19.666 -13.333 24.999 -27s8 -31.5 8 -53.5
c0 -19.333 -12.833 -60.833 -38.5 -124.5s-38.5 -112.5 -38.5 -146.5c0 -10.667 0.666992 -21.167 2 -31.5s8.66602 -15.5 21.999 -15.5c17.333 0 32.166 8.33301 44.499 25s25.5 36.667 39.5 60s29 51.666 45 84.999s30.333 68.666 43 105.999s25 79.666 37 126.999
c3.33301 1.33301 9 2 17 2c5.33301 0 11 -0.333008 17 -1l18 -2c9.33301 0 17.666 2.33301 24.999 7z" />
    <glyph glyph-name="v" unicode="v" horiz-adv-x="429" 
d="M400 382c1.33301 -8.66699 2.33594 -19.1719 3.00293 -31.5049s1 -23.5 1 -33.5c0 -64 -13.667 -122.667 -41 -176s-58.833 -90.166 -94.5 -110.499s-59.834 -30.5 -72.501 -30.5c-18 0 -36.5 5.66699 -55.5 17s-32.833 25.5 -41.5 42.5s-13 35.833 -13 56.5
c0 24.667 11.833 68.334 35.5 131.001s35.5 111 35.5 145c0 2.66699 -4.66699 4 -14 4c-6 0 -11.333 -0.666992 -16 -2s-13.5 -5 -26.5 -11s-42.5 -52 -88.5 -138l-9 1l53 106c24.667 40 53 60 85 60c7.33301 0 17.166 -1.33301 29.499 -4s22 -10.5 29 -23.5
s10.5 -28.833 10.5 -47.5v-14l-66 -256c0 -10.667 0.5 -19.667 1.5 -27s6.16699 -13.666 15.5 -18.999s19.666 -8 30.999 -8c14 0 36.667 8.5 68 25.5s60.666 51.333 87.999 103s41 106.834 41 165.501c0 22 -2 43.667 -6 65c-11.333 -17.333 -21 -30.333 -29 -39
s-15.667 -13 -23 -13c-2 0 -5 0.666992 -9 2c-13.333 7.33301 -20 21.333 -20 42c0 9.33301 1.5 17.833 4.5 25.5s7.33301 14.334 13 20.001s12.334 9.16699 20.001 10.5s13.167 2 16.5 2c11.333 0 21 -3.33301 29 -10s13 -16.667 15 -30z" />
    <glyph glyph-name="w" unicode="w" horiz-adv-x="613" 
d="M592 378c2 -17.333 3.00195 -33.6689 3.00195 -49.002c0 -120.667 -29.5 -206.334 -88.5 -257.001s-101.5 -76 -127.5 -76c-16 0 -31 4.33301 -45 13s-25.5 20 -34.5 34s-13.5 30.667 -13.5 50v33.5c0 9 0.333008 17.167 1 24.5c-22.667 -48 -43.667 -85.667 -63 -113
s-44.333 -41 -75 -41c-9.33301 0 -21.333 2.66699 -36 8s-25.167 17.333 -31.5 36s-9.5 41.334 -9.5 68.001c0 34 15.833 83.333 47.5 148s47.5 109.334 47.5 134.001c0 8.66699 -4 13 -12 13c-5.33301 0 -11 -1.5 -17 -4.5s-15.833 -9.16699 -29.5 -18.5
s-29.167 -26.833 -46.5 -52.5l-56 -84.5c22.667 48.667 41.667 85 57 109s32.166 40.667 50.499 50s31.5 14 39.5 14c12.667 0 24.167 -3.5 34.5 -10.5s16.333 -14.5 18 -22.5s2.83398 -16.333 3.50098 -25s1 -16.667 1 -24c0 -36 -14.833 -89.333 -44.5 -160
s-44.5 -121 -44.5 -151c0 -4.66699 3 -8.33398 9 -11.001s12.667 -4 20 -4c11.333 0 25.833 6.5 43.5 19.5s37.5 40.833 59.5 83.5s42.333 91.667 61 147l53 158c7.33301 0 14.5 -0.166992 21.5 -0.5s13.833 -0.5 20.5 -0.5h18c6 2 10.333 3.33301 13 4
c-8 -31.333 -27.333 -87.666 -58 -168.999s-46 -153.333 -46 -216c0 -7.33301 5 -13.666 15 -18.999s21.333 -8 34 -8c13.333 0 35.833 10.833 67.5 32.5s61.5 60.834 89.5 117.501s42 118 42 184c0 7.33301 -2.66699 12.666 -8 15.999l-23 -28c-10 -10 -19.667 -15 -29 -15
c-4 0 -8.83301 1.33301 -14.5 4s-9.83398 7.5 -12.501 14.5s-4 15.167 -4 24.5s0.666992 16.166 2 20.499s3.5 12.833 6.5 25.5s15.833 19 38.5 19c12.667 0 24.167 -4.16699 34.5 -12.5s16.166 -19.166 17.499 -32.499z" />
    <glyph glyph-name="x" unicode="x" horiz-adv-x="509" 
d="M492 379c7.33301 -14.667 11.002 -27.998 11.002 -39.998c0 -12.667 -3.5 -24.167 -10.5 -34.5s-13.833 -18.333 -20.5 -24s-14.334 -8.5 -23.001 -8.5c-2.66699 0 -6.83398 0.833008 -12.501 2.5s-10.334 4.66699 -14.001 9s-6.83398 9.33301 -9.50098 15
s-4 10.5 -4 14.5c0 10 8.33301 22.333 25 37s25 25.667 25 33c0 9.33301 -4.33301 17.5 -13 24.5s-15.334 10.5 -20.001 10.5c-10 0 -20.667 -5.83301 -32 -17.5s-26.333 -34.834 -45 -69.501s-34.834 -72.5 -48.501 -113.5s-20.5 -85.167 -20.5 -132.5
c0 -6.66699 0.333008 -13.834 1 -21.501s1 -13.834 1 -18.501c0 -8 3.66699 -15.333 11 -22s14.666 -9.33398 21.999 -8.00098c40.667 8 74.334 29.667 101.001 65c26.667 45.333 46.667 78 60 98c-11.333 -43.333 -30.833 -81.666 -58.5 -114.999
s-61.834 -53.333 -102.501 -60c-16 -2.66699 -29.5 0.5 -40.5 9.5s-20.167 22.5 -27.5 40.5l-13 45l-64 -62c-28 -24 -54.667 -36 -80 -36c-7.33301 0 -15.666 1 -24.999 3c-30 8.66699 -46.5 21.334 -49.5 38.001s-4.5 27.667 -4.5 33c0 15.333 3.83301 29 11.5 41
s15.834 21 24.501 27s16 9 22 9c13.333 0 23 -5.5 29 -16.5s9 -20.167 9 -27.5c0 -12 -5 -25.167 -15 -39.5l-31 -44.5c0 -5.33301 3.33301 -9.33301 10 -12s14 -4 22 -4c26.667 0 50.667 21.333 72 64l51.5 105.5c13 27.667 24.5 55.334 34.5 83.001s15 54.5 15 80.5
c0 12.667 -1.33301 24.667 -4 36s-7.66699 19 -15 23s-15.666 6 -24.999 6c-6 0 -17.833 -3.5 -35.5 -10.5s-38 -25 -61 -54l-64.5 -81.5c26.667 49.333 50.5 86.833 71.5 112.5s50.833 40.5 89.5 44.5c30 0 48.667 -6.66699 56 -20s12.5 -25.333 15.5 -36
s7.5 -17.667 13.5 -21l45 51c18 16.667 33.333 26.5 46 29.5s21.667 4.5 27 4.5c14.667 0 27.834 -3.83301 39.501 -11.5s20.834 -18.834 27.501 -33.501z" />
    <glyph glyph-name="y" unicode="y" horiz-adv-x="448" 
d="M447 419l-139.998 -466c-12 -38.667 -39.167 -68.167 -81.5 -88.5s-92.833 -30.5 -151.5 -30.5c-22.667 0 -41.5 3.5 -56.5 10.5s-23.833 19.5 -26.5 37.5c-2 14 0.166992 26.5 6.5 37.5s15.166 20 26.499 27s21.333 10.5 30 10.5c16.667 0 29.334 -11.333 38.001 -34
c2.66699 -7.33301 -1 -19.166 -11 -35.499s-15 -26.5 -15 -30.5c0 -8 4.5 -12.333 13.5 -13s17.5 -1 25.5 -1c28 0 53.5 6.66699 76.5 20s38.833 34.5 47.5 63.5l32.5 106.5c13 42 22.167 74.667 27.5 98c-28.667 -39.333 -54.334 -72.666 -77.001 -99.999s-47 -41 -73 -41
c-8.66699 0 -19 2.16699 -31 6.5s-22 14.333 -30 30s-12 34.167 -12 55.5v15c0 35.333 16 84.666 48 147.999s48 108.666 48 135.999v12c0 9.33301 -7 14 -21 14c-12.667 0 -25.5 -6 -38.5 -18s-28.5 -32.167 -46.5 -60.5l-51 -81.5c6.66699 36 21.667 71.333 45 106
s43.5 54.5 60.5 59.5s28.5 7.5 34.5 7.5c12 0 23 -3.66699 33 -11s16.833 -15.833 20.5 -25.5s6.66699 -19.334 9 -29.001s3.5 -21.167 3.5 -34.5c0 -34 -15 -79.667 -45 -137s-45 -101.666 -45 -132.999c0 -14 1.5 -26 4.5 -36s8.83301 -15 17.5 -15
c10 0 26 10.167 48 30.5s45.5 51.833 70.5 94.5s45.667 86.667 62 132s34.166 100.333 53.499 165h15c9.33301 0 18.833 -0.166992 28.5 -0.5s18.5 -0.833008 26.5 -1.5z" />
    <glyph glyph-name="z" unicode="z" horiz-adv-x="372" 
d="M342 366c0.666992 2.66699 1 6.66602 1 11.999c0 4.66699 -0.833008 11.834 -2.5 21.501s-2.5 15.5 -2.5 17.5c5.33301 2.66699 10 4 14 4s7.33301 -1.33301 10 -4c2 -9.33301 3 -18 3 -26c0 -36.667 -14.333 -69 -43 -97s-51.667 -48.333 -69 -61
s-52.5 -31.167 -105.5 -55.5s-88.5 -50.833 -106.5 -79.5h14c18 0 47.333 -5.33301 88 -16s70.667 -16 90 -16c22.667 0 42.167 5.33301 58.5 16s29.833 29.334 40.5 56.001l13 29c0 -32.667 -12.167 -65.167 -36.5 -97.5s-47.666 -52.166 -69.999 -59.499
s-36.166 -11 -41.499 -11c-20.667 0 -45.5 13.833 -74.5 41.5s-49.167 41.5 -60.5 41.5c-10.667 0 -20.667 -5.66699 -30 -17c-4 -4.66699 -2.83301 -12.5 3.5 -23.5s8.16602 -18.833 5.49902 -23.5c-3.33301 -4.66699 -8.66602 -7 -15.999 -7
c-5.33301 0 -8.66602 3.16699 -9.99902 9.5s-2 13.5 -2 21.5c0 28.667 9.5 56.334 28.5 83.001s41.5 48.667 67.5 66s64.5 38.666 115.5 63.999s88.833 53.666 113.5 84.999c-8.66699 -2.66699 -18.667 -4 -30 -4c-14.667 0 -39.667 4 -75 12s-58 12 -68 12
c-18 0 -34 -3.83301 -48 -11.5s-26.333 -21.834 -37 -42.501l-10 -26c-2.66699 -6.66699 -7 -11.667 -13 -15c12.667 38 29.667 72.167 51 102.5s49.666 49.5 84.999 57.5c15.333 3.33301 41.166 -8.5 77.499 -35.5s55.166 -40.5 56.499 -40.5
c7.33301 0 12.333 5.66699 15 17z" />
    <glyph glyph-name="asciitilde" unicode="~" horiz-adv-x="408" 
d="M29 472c0 37.333 9.83398 67.4971 29.501 90.4971s45.5 34.5 77.5 34.5c14.667 0 38 -12.667 70 -38s57.333 -36.666 76 -33.999c24 2.66699 43.167 8.33398 57.5 17.001s29.166 23.667 44.499 45c-10.667 -39.333 -22.5 -69.166 -35.5 -89.499s-28.5 -32.5 -46.5 -36.5
s-28.333 -6 -31 -6c-16 0 -38.5 14 -67.5 42s-53.167 42 -72.5 42c-24.667 0 -43 -3.83301 -55 -11.5s-27.667 -26.167 -47 -55.5z" />
    <glyph glyph-name="nonbreakingspace" unicode="&#xa0;" horiz-adv-x="242" 
 />
    <glyph glyph-name="exclamdown" unicode="&#xa1;" horiz-adv-x="268" 
d="M19 14c-2 9.33301 -3.00098 18.332 -3.00098 26.999c0 26 3.5 47 10.5 63s26.667 55 59 117s64.5 142 96.5 240h8c-12 -36.667 -21.167 -74 -27.5 -112s-14.166 -89 -23.499 -153s-17 -108.667 -23 -134s-13.333 -43.166 -22 -53.499s-19.667 -15.5 -33 -15.5
c-10.667 0 -20 1.5 -28 4.5s-12.667 8.5 -14 16.5zM218.999 555.999c-13.333 0 -24.5 4.5 -33.5 13.5s-13.5 20.167 -13.5 33.5s4.5 24.5 13.5 33.5s20.167 13.5 33.5 13.5s24.333 -4.33301 33 -13s13 -20 13 -34c0 -12.667 -4.33301 -23.667 -13 -33s-19.667 -14 -33 -14z
" />
    <glyph glyph-name="cent" unicode="&#xa2;" horiz-adv-x="267" 
d="M191 575c16 -8.66699 28.0039 -16.168 36.0039 -22.501s13.167 -15 15.5 -26s3.5 -17.833 3.5 -20.5c0 -22 -5.16699 -34.333 -15.5 -37s-16.666 -4 -18.999 -4h-4.5c-14 0 -22.667 6.33301 -26 19c-2 9.33301 -0.166992 19.166 5.5 29.499s12.167 21.166 19.5 32.499
c0 4.66699 -3.83301 8.16699 -11.5 10.5s-13.834 3.5 -18.501 3.5c-22.667 0 -41.167 -16.333 -55.5 -49l-32.5 -75c-7.33301 -17.333 -13.333 -33.166 -18 -47.499s-7 -28.833 -7 -43.5c0 -18.667 4.16699 -34.5 12.5 -47.5s18.166 -19.5 29.499 -19.5
c7.33301 0 15.166 1.83301 23.499 5.5s17.166 8.16699 26.499 13.5c14.667 10 28.167 23.667 40.5 41l34.5 49c-5.33301 -28 -20.333 -53.167 -45 -75.5s-52.334 -38.833 -83.001 -49.5c-4 -13.333 -7.16699 -24.666 -9.5 -33.999s-9.83301 -17.333 -22.5 -24
c3.33301 10 5.83301 19.167 7.5 27.5s3.5 19.833 5.5 34.5c-20.667 10 -36.167 24.333 -46.5 43s-15.5 40.334 -15.5 65.001c0 9.33301 1.66699 24.833 5 46.5s19 49.5 47 83.5s61 57 99 69l23 72h10z" />
    <glyph glyph-name="yen" unicode="&#xa5;" horiz-adv-x="420" 
d="M657 636h-23.999c-16.667 0 -33.167 -3.83301 -49.5 -11.5s-33.5 -23.5 -51.5 -47.5l-228 -306l-56 -232c-2 -10.667 3.16699 -18 15.5 -22s28.166 -6 47.499 -6h19.5c5.66699 0 10.834 0.333008 15.501 1c0 -2.66699 0.166992 -4.83398 0.5 -6.50098
s0.166016 -3.83398 -0.500977 -6.50098h-294c-0.666992 4 -1 7.16699 -1 9.5s0.333008 3.5 1 3.5c36.667 0 64.667 4.16699 84 12.5s31.666 23.833 36.999 46.5l58 221l-109 314c-4 12 -11.667 20.167 -23 24.5s-23.666 6.5 -36.999 6.5
c-11.333 -0.666992 -18.333 -1 -21 -1c-0.666992 2 -1.16699 3.83301 -1.5 5.5s0.5 4.16699 2.5 7.5l267 1c3.33301 -3.33301 5 -6.66602 5 -9.99902s-1.33301 -5.33301 -4 -6h-19.5h-24.5c-18 0 -32 -1.16699 -42 -3.5s-13.667 -7.5 -11 -15.5l100 -289l172 233
c12.667 17.333 19 32 19 44c0 12.667 -6.5 21 -19.5 25s-29.833 6 -50.5 6h-37c-2 0.666992 -2.66699 2.33398 -2 5.00098l2 8l259 1c1.33301 -2.66699 2.33301 -5.16699 3 -7.5s0 -3.83301 -2 -4.5zM376.001 232h-248.999c6.66699 4 11.5 9.16699 14.5 15.5
s5.16699 11.166 6.5 14.499h248c-8.66699 -3.33301 -13.834 -8.16602 -15.501 -14.499s-3.16699 -11.5 -4.5 -15.5zM359.002 168l-249 0.00195312c6.66699 4 11.5 9.16699 14.5 15.5s5.16699 11.166 6.5 14.499h247c-6.66699 -2.66699 -11 -6.83398 -13 -12.501z" />
    <glyph glyph-name="dieresis" unicode="&#xa8;" horiz-adv-x="345" 
d="M102 601c13.333 0 25 -4.66699 35 -14s15 -21 15 -35c0 -13.333 -5 -25 -15 -35s-21.667 -15 -35 -15c-14 0 -25.833 4.83301 -35.5 14.5s-14.5 21.5 -14.5 35.5s4.66699 25.667 14 35s21.333 14 36 14zM252 601c14 0 25.833 -4.83301 35.5 -14.5
s14.5 -21.167 14.5 -34.5c0 -14 -4.83301 -25.833 -14.5 -35.5s-21.5 -14.5 -35.5 -14.5s-25.667 4.66699 -35 14s-14 21.333 -14 36c0 14 4.66699 25.667 14 35s21 14 35 14z" />
    <glyph glyph-name="copyright" unicode="&#xa9;" horiz-adv-x="666" 
d="M439 627c70.667 0 128.001 -21.3359 172.001 -64.0029s66 -97.667 66 -165c0 -24.667 -7.66699 -65.667 -23 -123s-61.333 -116.166 -138 -176.499s-157.667 -90.5 -243 -90.5c-70.667 0 -128 21.333 -172 64s-66 97.334 -66 164.001c0 24.667 7.66699 65.834 23 123.501
s61.166 116.667 137.499 177s157.5 90.5 243.5 90.5zM65.001 316.997c-6.66699 -24.667 -10 -49.665 -10 -74.998c0 -62.667 20.667 -114 62 -154s95 -60 161 -60c79.333 0 155.166 28.167 227.499 84.5s115.5 110.666 129.5 162.999s21 91.166 21 116.499
c0 62.667 -20.667 114.334 -62 155.001s-94.666 61 -159.999 61c-80.667 0 -157 -28.333 -229 -85s-118.667 -125.334 -140 -206.001zM488.001 495.999c9.33301 1.33301 18.334 8.16699 27.001 20.5s16 19.5 22 21.5l-18.5 -80.5c-7 -31 -17.167 -64.5 -30.5 -100.5
c-1.33301 -0.666992 -2.66602 -0.166992 -3.99902 1.5s-2.33301 3.16699 -3 4.5c0 46.667 -2.83301 84 -8.5 112s-16.667 44.667 -33 50s-28.833 8 -37.5 8c-9.33301 0 -25.166 -6.83301 -47.499 -20.5s-39.333 -33.167 -51 -58.5s-25.5 -62.166 -41.5 -110.499
s-25.5 -79.166 -28.5 -92.499s-4.5 -27 -4.5 -41c0 -14.667 2.16699 -27.5 6.5 -38.5s13.333 -22.667 27 -35s31.167 -18.5 52.5 -18.5c14.667 0 31.167 5.5 49.5 16.5s34.833 26.667 49.5 47s31 47.166 49 80.499h8l-18.5 -44.5
c-5.66699 -13 -19.334 -34.833 -41.001 -65.5s-53.5 -46 -95.5 -46c-12 0 -27.333 2.83301 -46 8.5s-36 18.5 -52 38.5s-25.667 39.333 -29 58s-5 35.667 -5 51c0 51.333 13.667 100.5 41 147.5s57.833 80.667 91.5 101s64.5 30.5 92.5 30.5c10 0 19.167 -1.33301 27.5 -4
s17.666 -9.33398 27.999 -20.001s18.166 -17.667 23.499 -21z" />
    <glyph glyph-name="ordfeminine" unicode="&#xaa;" horiz-adv-x="413" 
d="M152 406h239v-9h-240zM316 627l11.001 27.0029h35c-4 -19.333 -13.833 -54.333 -29.5 -105s-23.5 -87 -23.5 -109c0 -3.33301 2.66699 -5 8 -5c4 0 10.167 3.66699 18.5 11s16.833 18.666 25.5 33.999l25 44c-7.33301 -21.333 -16.166 -40.666 -26.499 -57.999
s-20.333 -28.5 -30 -33.5s-15.834 -7.5 -18.501 -7.5c-6.66699 0 -12 1.83301 -16 5.5s-7.83301 8.16699 -11.5 13.5s-5.5 13.333 -5.5 24v10c0 2.66699 0.333008 5 1 7c-24.667 -29.333 -41.167 -47.333 -49.5 -54s-18.166 -10 -29.499 -10
c-2.66699 0 -7.83398 1.16699 -15.501 3.5s-14.334 8.16602 -20.001 17.499s-9.16699 17.833 -10.5 25.5s-2 15.5 -2 23.5c0 24 6 47.333 18 70s25.833 41.667 41.5 57s27 25.166 34 29.499s16.167 7.16602 27.5 8.49902c10 0 18.667 -2.66699 26 -8s13 -12.333 17 -21z
M251.001 636.003c-20 -23.333 -35.498 -51.3359 -46.498 -84.0029s-16.5 -64.667 -16.5 -96c0 -9.33301 2.66699 -16.666 8 -21.999s10.666 -6.66602 15.999 -3.99902c10.667 5.33301 20.667 12.833 30 22.5s19.166 22.834 29.499 39.501s19.333 34.167 27 52.5
s11.5 35.5 11.5 51.5c0 15.333 -3.16699 27.833 -9.5 37.5s-14.166 14.5 -23.499 14.5c-10.667 0 -19.334 -4 -26.001 -12z" />
    <glyph glyph-name="registered" unicode="&#xae;" horiz-adv-x="648" 
d="M427 627c70.667 0 127.998 -21.3359 171.998 -64.0029s66 -97.667 66 -165c0 -24.667 -7.66699 -65.667 -23 -123s-61.166 -116.166 -137.499 -176.499s-157.166 -90.5 -242.499 -90.5c-70.667 0 -128.167 21.5 -172.5 64.5s-66.5 98.167 -66.5 165.5
c0 24.667 7.5 65.334 22.5 122.001s61 115.334 138 176.001s158.167 91 243.5 91zM52.998 316.997c-6.66699 -24.667 -10 -49.665 -10 -74.998c0 -62.667 20.667 -114 62 -154s95.333 -60 162 -60c80 0 155.833 28.167 227.5 84.5s114.5 110.666 128.5 162.999
s21 91.166 21 116.499c0 62.667 -20.333 114.334 -61 155.001s-94.334 61 -161.001 61c-80 0 -156.167 -28.333 -228.5 -85s-119.166 -125.334 -140.499 -206.001zM166.998 143.999l0.99707 4.99121c7.33301 -1.33301 16.333 -0.166016 27 3.50098
s18.334 12.834 23.001 27.501l87 318c2.66699 10 -2.33301 15.833 -15 17.5s-22.667 2.5 -30 2.5h-11c0.666992 4 0.666992 6.66699 0 8c4.66699 -0.666992 10.167 -1 16.5 -1h20.5h57h52c14 0 31.333 -1.16699 52 -3.5s40 -10.666 58 -24.999s27 -32.5 27 -54.5
c0 -19.333 -4.83301 -35 -14.5 -47s-21.834 -22.333 -36.501 -31s-27.667 -14 -39 -16l-33 -6c2 -1.33301 10.167 -6.33301 24.5 -15s22.5 -18.167 24.5 -28.5s3 -20.166 3 -29.499c0 -15.333 -3.5 -33.166 -10.5 -53.499s-10.5 -33.5 -10.5 -39.5
c0 -4.66699 0.833008 -9 2.5 -13s5.5 -6 11.5 -6c4.66699 0 11.834 2 21.501 6s18.334 13.333 26.001 28s16.834 35.334 27.501 62.001l3 -1c-10 -28 -20.5 -51.167 -31.5 -69.5s-23 -29.666 -36 -33.999s-21.833 -6.5 -26.5 -6.5c-13.333 0 -24.166 5.83301 -32.499 17.5
s-12.5 24.834 -12.5 39.501c0 12.667 4 29.667 12 51s12 36.333 12 45c0 9.33301 -3.16699 17.5 -9.5 24.5s-14 12 -23 15s-20.167 4.5 -33.5 4.5h-18c-8 -1.33301 -13.667 -2 -17 -2l-40 -155c-0.666992 -2.66699 -1 -6 -1 -10c0 -9.33301 3.66699 -15.666 11 -18.999
s16.666 -5 27.999 -5c8.66699 0.666992 13.667 1 15 1v-5h-162zM365.995 517.99l-45.001 -166.002c6 0 12 -0.166992 18 -0.5s12 -0.5 18 -0.5c20.667 0 38.834 1.83301 54.501 5.5s28.667 11 39 22s18 22.333 23 34s7.5 23.834 7.5 36.501
c0 8.66699 -2.16699 18.334 -6.5 29.001s-13.833 20.167 -28.5 28.5s-34.667 12.5 -60 12.5h-11.5c-3 0 -5.83301 -0.333008 -8.5 -1z" />
    <glyph glyph-name="degree" unicode="&#xb0;" horiz-adv-x="228" 
d="M147 646c20 0 36.166 -6.16602 48.499 -18.499s18.5 -28.5 18.5 -48.5c0 -6.66699 -2.33301 -18 -7 -34s-17.5 -32.167 -38.5 -48.5s-43.833 -24.5 -68.5 -24.5c-19.333 0 -35.333 6 -48 18s-19 27 -19 45c0 7.33301 2 19.166 6 35.499s16.833 33 38.5 50
s44.834 25.5 69.501 25.5zM56.999 558.001c-2 -6 -3 -12.001 -3 -18.001c0 -13.333 4.5 -24.166 13.5 -32.499s20.833 -12.5 35.5 -12.5c18 0 34.833 6 50.5 18s26.167 27 31.5 45c1.33301 8 2 13.333 2 16c0 14 -4.5 25.5 -13.5 34.5s-21.167 13.5 -36.5 13.5
c-18 0 -34.667 -6 -50 -18s-25.333 -27.333 -30 -46z" />
    <glyph glyph-name="acute" unicode="&#xb4;" horiz-adv-x="413" 
d="M146 498l117.5 82.502c39 28.333 56.5 46.166 52.5 53.499c1.33301 -6.66699 2.5 -15 3.5 -25s1.5 -18.333 1.5 -25c0 -14.667 -1.66699 -25.334 -5 -32.001z" />
    <glyph glyph-name="paragraph" unicode="&#xb6;" horiz-adv-x="537" 
d="M418 12h48.998l-3 -13l-352 1l2 11l102 1l81 307c-16.667 0 -39 -0.5 -67 -1.5s-42.333 -1.5 -43 -1.5c-32.667 0 -60.167 2.66699 -82.5 8s-42.333 19 -60 41s-26.5 48.667 -26.5 80c0 20 8.33301 51.333 25 94s58.834 73.667 126.501 93s158.834 29 273.501 29
c22 0 57.333 -0.333008 106 -1s86 -1 112 -1l-4 -12h-67zM146.998 587c-18 -31.333 -32.0029 -62.501 -42.0029 -93.501s-15 -58.833 -15 -83.5c0 -16.667 2.83301 -31.667 8.5 -45s17.834 -23.166 36.501 -29.499s40.667 -9.5 66 -9.5c13.333 0 29.333 0.833008 48 2.5
s36.334 3.5 53.001 5.5l84 314h-26.5c-8.33301 0 -16.166 0.333008 -23.499 1c-42.667 0 -81.167 -4.16699 -115.5 -12.5s-58.833 -24.833 -73.5 -49.5zM506.995 646.999h-38l-173 -632l41 -3z" />
    <glyph glyph-name="ordmasculine" unicode="&#xba;" horiz-adv-x="360" 
d="M134 406h239v-9h-240zM337 622c9.33301 -18 14 -37.332 14 -57.999c0 -26.667 -8.5 -51.834 -25.5 -75.501s-32.667 -41 -47 -52s-31.833 -15.5 -52.5 -13.5c-24.667 0 -42.334 9.83301 -53.001 29.5s-16 40.167 -16 61.5c0 23.333 6.33301 45.833 19 67.5
s27.5 39.5 44.5 53.5s36.167 21 57.5 21c7.33301 0 16.833 -1.5 28.5 -4.5s21.834 -12.833 30.501 -29.5zM280 649.001c-20.667 -6.66699 -34.998 -17.832 -42.998 -33.499s-17.333 -37.5 -28 -65.5s-16.834 -45.167 -18.501 -51.5s-2.5 -13.833 -2.5 -22.5
c0 -18.667 4.66699 -31 14 -37s17.333 -9 24 -9c15.333 0 26.666 5 33.999 15c19.333 31.333 34 58.333 44 81s15 44.667 15 66c0 10.667 -1.33301 21.167 -4 31.5s-7.5 17.666 -14.5 21.999s-13.833 5.5 -20.5 3.5z" />
    <glyph glyph-name="questiondown" unicode="&#xbf;" horiz-adv-x="403" 
d="M33 96c-10 17.333 -15 36.335 -15 57.002c0 18 3.5 35.833 10.5 53.5s17.333 38.167 31 61.5s51 52.333 112 87s96.333 59.834 106 75.501s14.5 27.167 14.5 34.5c0 16 -4.66699 25.833 -14 29.5s-16.333 5.5 -21 5.5c-13.333 0 -24.5 -6.16699 -33.5 -18.5
s-16.167 -22.5 -21.5 -30.5c1.33301 10 5.5 20 12.5 30s14.5 17.833 22.5 23.5s16 8.5 24 8.5c10 0 19.5 -3.33301 28.5 -10s14.833 -14.667 17.5 -24s4 -19 4 -29c0 -32 -18.167 -66 -54.5 -102l-106.5 -105c-38 -42.667 -57 -84.667 -57 -126v-15.5
c0 -4.33301 1.66699 -13.333 5 -27s10.833 -25.5 22.5 -35.5s24.834 -17 39.501 -21s25.667 -6.66699 33 -8s16 -2 26 -2c37.333 0 69.166 13.667 95.499 41s39.5 57.666 39.5 90.999c0 12 -2.66699 24 -8 36c-5.33301 -4 -10.5 -7.66699 -15.5 -11s-12.167 -5 -21.5 -5
c-8 0 -16.667 2.33301 -26 7c-16 10 -24 24 -24 42c0 5.33301 1.5 11.666 4.5 18.999s9 13.333 18 18s18.833 7 29.5 7c8.66699 0 15.167 -0.666992 19.5 -2s11 -3.5 20 -6.5s16.833 -12.167 23.5 -27.5s10 -34 10 -56v-10c0 -30.667 -9.5 -57.834 -28.5 -81.501
s-43.167 -41.5 -72.5 -53.5c-26 -12 -52.667 -18 -80 -18c-34.667 0 -67.5 8.66699 -98.5 26s-54.833 41.333 -71.5 72zM310 555.002c-13.333 0 -24.5 4.5 -33.5 13.5s-13.5 20.167 -13.5 33.5s4.66699 24.666 14 33.999s20.333 14 33 14
c13.333 0 24.666 -4.66699 33.999 -14s14 -20.666 14 -33.999c0 -12.667 -4.66699 -23.667 -14 -33s-20.666 -14 -33.999 -14z" />
    <glyph glyph-name="Agrave" unicode="&#xc0;" horiz-adv-x="636" 
d="M533 650l-1.99707 -618.998c0 -6.66699 8 -11 24 -13l65 -4c2 -0.666992 2.66699 -2.33398 2 -5.00098s-1.33398 -5 -2.00098 -7l-286 -1c-1.33301 7.33301 -0.333008 11 3 11c9.33301 -0.666992 17.666 -1 24.999 -1c23.333 0 42.166 1.83301 56.499 5.5
s21.5 11.167 21.5 22.5v176l-173 3l-94 -166c-2.66699 -4.66699 -4 -9 -4 -13c0 -10.667 8 -17.834 24 -21.501s35.333 -5.5 58 -5.5h16l-1 -13l-256 1c0 7.33301 0.666992 11 2 11c5.33301 -1.33301 12 -2 20 -2c22 0 43.167 3.16699 63.5 9.5s40 25.333 59 57l92 152.5
l153.5 255.5c60 100.333 92.667 155.833 98 166.5c0.666992 2.66699 4.66699 4 12 4c4 0 8 -0.333008 12 -1s7.66699 -1.66699 11 -3zM442.003 513.002l-165 -271.001h163c0 22 1.16699 63.333 3.5 124s3.5 106.334 3.5 137.001zM407.003 726.001c-2 4 -3.33301 10 -4 18
s-1 13 -1 15c0 13.333 0.5 23.833 1.5 31.5s2.16699 13.5 3.5 17.5c-4 -7.33301 13.333 -25 52 -53l118 -83z" />
    <glyph glyph-name="Aacute" unicode="&#xc1;" horiz-adv-x="630" 
d="M533 650l-1.99707 -618.998c0 -6.66699 8 -11 24 -13l65 -4c2 -0.666992 2.66699 -2.33398 2 -5.00098s-1.33398 -5 -2.00098 -7l-286 -1c-1.33301 7.33301 -0.333008 11 3 11c9.33301 -0.666992 17.666 -1 24.999 -1c23.333 0 42.166 1.83301 56.499 5.5
s21.5 11.167 21.5 22.5v176l-173 3l-94 -166c-2.66699 -4.66699 -4 -9 -4 -13c0 -10.667 8 -17.834 24 -21.501s35.333 -5.5 58 -5.5h16l-1 -13l-256 1c0 7.33301 0.666992 11 2 11c5.33301 -1.33301 12 -2 20 -2c22 0 43.167 3.16699 63.5 9.5s40 25.333 59 57l92 152.5
l153.5 255.5c60 100.333 92.667 155.833 98 166.5c0.666992 2.66699 4.66699 4 12 4c4 0 8 -0.333008 12 -1s7.66699 -1.66699 11 -3zM442.003 513.002l-165 -271.001h163c0 22 1.16699 63.333 3.5 124s3.5 106.334 3.5 137.001zM408.003 667.001l117.5 82.502
c39 28.333 56.5 46.166 52.5 53.499c1.33301 -6.66699 2.5 -15 3.5 -25s1.5 -18.333 1.5 -25c0 -14.667 -1.66699 -25.334 -5 -32.001z" />
    <glyph glyph-name="Acircumflex" unicode="&#xc2;" horiz-adv-x="630" 
d="M533 650l-1.99707 -618.998c0 -6.66699 8 -11 24 -13l65 -4c2 -0.666992 2.66699 -2.33398 2 -5.00098s-1.33398 -5 -2.00098 -7l-286 -1c-1.33301 7.33301 -0.333008 11 3 11c9.33301 -0.666992 17.666 -1 24.999 -1c23.333 0 42.166 1.83301 56.499 5.5
s21.5 11.167 21.5 22.5v176l-173 3l-94 -166c-2.66699 -4.66699 -4 -9 -4 -13c0 -10.667 8 -17.834 24 -21.501s35.333 -5.5 58 -5.5h16l-1 -13l-256 1c0 7.33301 0.666992 11 2 11c5.33301 -1.33301 12 -2 20 -2c22 0 43.167 3.16699 63.5 9.5s40 25.333 59 57l92 152.5
l153.5 255.5c60 100.333 92.667 155.833 98 166.5c0.666992 2.66699 4.66699 4 12 4c4 0 8 -0.333008 12 -1s7.66699 -1.66699 11 -3zM442.003 513.002l-165 -271.001h163c0 22 1.16699 63.333 3.5 124s3.5 106.334 3.5 137.001zM381.003 665.001l140 146l127 -146h-82
l-74 92l-87 -92h-24z" />
    <glyph glyph-name="Atilde" unicode="&#xc3;" horiz-adv-x="642" 
d="M533 650l-1.99707 -618.998c0 -6.66699 8 -11 24 -13l65 -4c2 -0.666992 2.66699 -2.33398 2 -5.00098s-1.33398 -5 -2.00098 -7l-286 -1c-1.33301 7.33301 -0.333008 11 3 11c9.33301 -0.666992 17.666 -1 24.999 -1c23.333 0 42.166 1.83301 56.499 5.5
s21.5 11.167 21.5 22.5v176l-173 3l-94 -166c-2.66699 -4.66699 -4 -9 -4 -13c0 -10.667 8 -17.834 24 -21.501s35.333 -5.5 58 -5.5h16l-1 -13l-256 1c0 7.33301 0.666992 11 2 11c5.33301 -1.33301 12 -2 20 -2c22 0 43.167 3.16699 63.5 9.5s40 25.333 59 57l92 152.5
l153.5 255.5c60 100.333 92.667 155.833 98 166.5c0.666992 2.66699 4.66699 4 12 4c4 0 8 -0.333008 12 -1s7.66699 -1.66699 11 -3zM442.003 513.002l-165 -271.001h163c0 22 1.16699 63.333 3.5 124s3.5 106.334 3.5 137.001zM332.003 681.001
c0 37.333 9.83398 67.4971 29.501 90.4971s45.5 34.5 77.5 34.5c14.667 0 38 -12.667 70 -38s57.333 -36.666 76 -33.999c24 2.66699 43.167 8.33398 57.5 17.001s29.166 23.667 44.499 45c-10.667 -39.333 -22.5 -69.166 -35.5 -89.499s-28.5 -32.5 -46.5 -36.5
s-28.333 -6 -31 -6c-16 0 -38.5 14 -67.5 42s-53.167 42 -72.5 42c-24.667 0 -43 -3.83301 -55 -11.5s-27.667 -26.167 -47 -55.5z" />
    <glyph glyph-name="Adieresis" unicode="&#xc4;" horiz-adv-x="636" 
d="M533 650l-1.99707 -618.998c0 -6.66699 8 -11 24 -13l65 -4c2 -0.666992 2.66699 -2.33398 2 -5.00098s-1.33398 -5 -2.00098 -7l-286 -1c-1.33301 7.33301 -0.333008 11 3 11c9.33301 -0.666992 17.666 -1 24.999 -1c23.333 0 42.166 1.83301 56.499 5.5
s21.5 11.167 21.5 22.5v176l-173 3l-94 -166c-2.66699 -4.66699 -4 -9 -4 -13c0 -10.667 8 -17.834 24 -21.501s35.333 -5.5 58 -5.5h16l-1 -13l-256 1c0 7.33301 0.666992 11 2 11c5.33301 -1.33301 12 -2 20 -2c22 0 43.167 3.16699 63.5 9.5s40 25.333 59 57l92 152.5
l153.5 255.5c60 100.333 92.667 155.833 98 166.5c0.666992 2.66699 4.66699 4 12 4c4 0 8 -0.333008 12 -1s7.66699 -1.66699 11 -3zM442.003 513.002l-165 -271.001h163c0 22 1.16699 63.333 3.5 124s3.5 106.334 3.5 137.001zM451.003 781.001
c13.333 0 25 -4.66699 35 -14s15 -21 15 -35c0 -13.333 -5 -25 -15 -35s-21.667 -15 -35 -15c-14 0 -25.833 4.83301 -35.5 14.5s-14.5 21.5 -14.5 35.5s4.66699 25.667 14 35s21.333 14 36 14zM601.003 781.001c14 0 25.833 -4.83301 35.5 -14.5s14.5 -21.167 14.5 -34.5
c0 -14 -4.83301 -25.833 -14.5 -35.5s-21.5 -14.5 -35.5 -14.5s-25.667 4.66699 -35 14s-14 21.333 -14 36c0 14 4.66699 25.667 14 35s21 14 35 14z" />
    <glyph glyph-name="Aring" unicode="&#xc5;" horiz-adv-x="636" 
d="M533 650l-1.99707 -618.998c0 -6.66699 8 -11 24 -13l65 -4c2 -0.666992 2.66699 -2.33398 2 -5.00098s-1.33398 -5 -2.00098 -7l-286 -1c-1.33301 7.33301 -0.333008 11 3 11c9.33301 -0.666992 17.666 -1 24.999 -1c23.333 0 42.166 1.83301 56.499 5.5
s21.5 11.167 21.5 22.5v176l-173 3l-94 -166c-2.66699 -4.66699 -4 -9 -4 -13c0 -10.667 8 -17.834 24 -21.501s35.333 -5.5 58 -5.5h16l-1 -13l-256 1c0 7.33301 0.666992 11 2 11c5.33301 -1.33301 12 -2 20 -2c22 0 43.167 3.16699 63.5 9.5s40 25.333 59 57l92 152.5
l153.5 255.5c60 100.333 92.667 155.833 98 166.5c0.666992 2.66699 4.66699 4 12 4c4 0 8 -0.333008 12 -1s7.66699 -1.66699 11 -3zM442.003 513.002l-165 -271.001h163c0 22 1.16699 63.333 3.5 124s3.5 106.334 3.5 137.001zM549.003 815.001
c20 0 36.166 -6.16602 48.499 -18.499s18.5 -28.5 18.5 -48.5c0 -6.66699 -2.33301 -18 -7 -34s-17.5 -32.167 -38.5 -48.5s-43.833 -24.5 -68.5 -24.5c-19.333 0 -35.333 6 -48 18s-19 27 -19 45c0 7.33301 2 19.166 6 35.499s16.833 33 38.5 50s44.834 25.5 69.501 25.5z
M459.002 727.002c-2 -6 -3 -12.001 -3 -18.001c0 -13.333 4.5 -24.166 13.5 -32.499s20.833 -12.5 35.5 -12.5c18 0 34.833 6 50.5 18s26.167 27 31.5 45c1.33301 8 2 13.333 2 16c0 14 -4.5 25.5 -13.5 34.5s-21.167 13.5 -36.5 13.5c-18 0 -34.667 -6 -50 -18
s-25.333 -27.333 -30 -46z" />
    <glyph glyph-name="AE" unicode="&#xc6;" horiz-adv-x="858" 
d="M442 513l-165 -271h163c0 24.667 6.66699 64.167 20 118.5l41 165.5c14 56 21 95 21 117zM956 650c4 -1.33301 6 -8.32715 6 -20.9941c0 -31.333 -9.66699 -79.833 -29 -145.5s-33 -97.834 -41 -96.501c1.33301 6 2.83301 16.5 4.5 31.5s2.5 33.833 2.5 56.5
c0 27.333 -2.33301 51.666 -7 72.999s-13.334 38.333 -26.001 51s-27.667 21.334 -45 26.001s-37.666 7 -60.999 7c-15.333 0 -30.166 -0.333008 -44.499 -1l-42.5 -2c-8 0 -14.833 -3.5 -20.5 -10.5s-9.5 -14.5 -11.5 -22.5l-67 -242c-0.666992 -3.33301 0 -6 2 -8
s8 -3 18 -3c18.667 0 41 5 67 15s44 21.667 54 35l35 48.5c13.333 19 22.666 39.5 27.999 61.5h8c-30.667 -118.667 -62.667 -231.667 -96 -339h-8c3.33301 17.333 6 32.666 8 45.999s3 25.666 3 36.999c0 17.333 -3.33301 31.666 -10 42.999s-18.167 21 -34.5 29
s-32.833 12 -49.5 12c-23.333 0 -37.333 -9.66699 -42 -29l-25 -103l-1 -168c0 -6 8.83301 -10.167 26.5 -12.5s38.167 -3.5 61.5 -3.5c19.333 0.666992 30 1 32 1c48 4 90.667 31.667 128 83l91 162c2.66699 0 4 -5.33301 4 -16c0 -31.333 -9.33301 -80 -28 -146
s-34 -99 -46 -99h-508v11c2 -0.666992 6.66699 -1 14 -1c20.667 0 41.5 4 62.5 12s33.833 20.333 38.5 37l33 120v36l-173 3l-94 -166c-2.66699 -4.66699 -4 -9 -4 -13c0 -10.667 8 -17.834 24 -21.501s35.333 -5.5 58 -5.5h16l-1 -13l-256 1l2 11
c5.33301 -1.33301 12 -2 20 -2c22 0 43.167 3.16699 63.5 9.5s39.5 24.166 57.5 53.499l85.5 141l138 229.5l114.5 194.5h-29c-0.666992 2 -1 4 -1 6s0.666992 5 2 9h152h212.5c81.667 0 124.5 -0.666992 128.5 -2z" />
    <glyph glyph-name="Ccedilla" unicode="&#xc7;" horiz-adv-x="490" 
d="M239 -5c-2.66699 -20.667 -11.332 -36.501 -25.999 -47.501s-28.667 -17.5 -42 -19.5l-39 -6c20.667 10 35.5 21.667 44.5 35s13.5 27 13.5 41c-2.66699 0 -6.5 0.833008 -11.5 2.5s-8.5 2.5 -10.5 2.5c-36 11.333 -66.167 32.666 -90.5 63.999
s-38.666 60.833 -42.999 88.5s-6.66602 45.834 -6.99902 54.501s-0.5 15.334 -0.5 20.001c0 77.333 20.833 152 62.5 224s82.167 120 121.5 144s70 39.167 92 45.5s42.333 9.5 61 9.5c14.667 0 28.667 -2 42 -6s28.166 -14.167 44.499 -30.5s28.5 -26.833 36.5 -31.5
c14 2 27.5 12.333 40.5 31s24.167 29.667 33.5 33c-18.667 -80.667 -31.5 -135 -38.5 -163s-18.833 -65 -35.5 -111c-7.33301 0 -11 3.33301 -11 10c0 70 -4.33301 126 -13 168s-25.334 67.167 -50.001 75.5s-42.667 12.5 -54 12.5c-15.333 0 -40.333 -10.333 -75 -31
s-60.5 -49.667 -77.5 -87s-37.833 -93.5 -62.5 -168.5s-39.167 -122.167 -43.5 -141.5s-6.5 -39.333 -6.5 -60c0 -21.333 3.5 -40.833 10.5 -58.5s20.833 -35.667 41.5 -54s46.667 -27.5 78 -27.5c22.667 0 48 8.66699 76 26s53.5 41.833 76.5 73.5s47.167 71.5 72.5 119.5
h11c-10 -29.333 -19.833 -53.5 -29.5 -72.5s-24.334 -42.333 -44.001 -70s-42 -49.667 -67 -66s-51.833 -25.833 -80.5 -28.5z" />
    <glyph glyph-name="Egrave" unicode="&#xc8;" horiz-adv-x="618" 
d="M676 650c4 -1.33301 6.00195 -8.32812 6.00195 -20.9951c0 -31.333 -9.66699 -79.833 -29 -145.5s-33 -97.834 -41 -96.501c1.33301 6 2.83301 16.5 4.5 31.5s2.5 33.833 2.5 56.5c0 27.333 -2.33301 51.666 -7 72.999s-13.334 38.333 -26.001 51
s-27.667 21.334 -45 26.001s-37.666 7 -60.999 7c-15.333 0 -30.166 -0.333008 -44.499 -1l-42.5 -2c-8.66699 -0.666992 -15.667 -4.16699 -21 -10.5s-9 -13.833 -11 -22.5l-67 -242c-0.666992 -3.33301 0 -6 2 -8s8 -3 18 -3c18.667 0 41 5 67 15s44 21.667 54 35l35 48.5
c13.333 19 22.666 39.5 27.999 61.5h8c-30.667 -118.667 -62.667 -231.667 -96 -339h-8c3.33301 17.333 6 32.666 8 45.999s3 25.666 3 36.999c0 17.333 -3.33301 31.666 -10 42.999s-18.167 21 -34.5 29s-32.833 12 -49.5 12c-23.333 0 -37.333 -9.66699 -42 -29l-60 -241
c-0.666992 -2 -1 -4.16699 -1 -6.5v-4.5c0 -14 8 -23.833 24 -29.5s36.333 -8.5 61 -8.5c12 0 25 0.5 39 1.5s34.667 2.66699 62 5s59.666 29.166 96.999 80.499l91 162c2.66699 0 4 -5.33301 4 -16c0 -31.333 -9.33301 -80 -28 -146s-34 -99 -46 -99h-140.5h-187h-180.5
c-0.666992 1.33301 -1 2.83301 -1 4.5s0.333008 3.83398 1 6.50098c2 -0.666992 6.66699 -1 14 -1c20.667 0 41.5 4 62.5 12s33.833 20.333 38.5 37l150 550c3.33301 13.333 -9.66699 21.666 -39 24.999c-18.667 0.666992 -37.334 1.66699 -56.001 3c-0.666992 2 -1 4 -1 6
s0.666992 5 2 9h96h146h164.5c53.667 0 82.5 -0.666992 86.5 -2zM360.002 721.005c-2 4 -3.33301 10 -4 18s-1 13 -1 15c0 13.333 0.5 23.833 1.5 31.5s2.16699 13.5 3.5 17.5c-4 -7.33301 13.333 -25 52 -53l118 -83z" />
    <glyph glyph-name="Eacute" unicode="&#xc9;" horiz-adv-x="595" 
d="M676 650c4 -1.33301 6.00195 -8.32812 6.00195 -20.9951c0 -31.333 -9.66699 -79.833 -29 -145.5s-33 -97.834 -41 -96.501c1.33301 6 2.83301 16.5 4.5 31.5s2.5 33.833 2.5 56.5c0 27.333 -2.33301 51.666 -7 72.999s-13.334 38.333 -26.001 51
s-27.667 21.334 -45 26.001s-37.666 7 -60.999 7c-15.333 0 -30.166 -0.333008 -44.499 -1l-42.5 -2c-8.66699 -0.666992 -15.667 -4.16699 -21 -10.5s-9 -13.833 -11 -22.5l-67 -242c-0.666992 -3.33301 0 -6 2 -8s8 -3 18 -3c18.667 0 41 5 67 15s44 21.667 54 35l35 48.5
c13.333 19 22.666 39.5 27.999 61.5h8c-30.667 -118.667 -62.667 -231.667 -96 -339h-8c3.33301 17.333 6 32.666 8 45.999s3 25.666 3 36.999c0 17.333 -3.33301 31.666 -10 42.999s-18.167 21 -34.5 29s-32.833 12 -49.5 12c-23.333 0 -37.333 -9.66699 -42 -29l-60 -241
c-0.666992 -2 -1 -4.16699 -1 -6.5v-4.5c0 -14 8 -23.833 24 -29.5s36.333 -8.5 61 -8.5c12 0 25 0.5 39 1.5s34.667 2.66699 62 5s59.666 29.166 96.999 80.499l91 162c2.66699 0 4 -5.33301 4 -16c0 -31.333 -9.33301 -80 -28 -146s-34 -99 -46 -99h-140.5h-187h-180.5
c-0.666992 1.33301 -1 2.83301 -1 4.5s0.333008 3.83398 1 6.50098c2 -0.666992 6.66699 -1 14 -1c20.667 0 41.5 4 62.5 12s33.833 20.333 38.5 37l150 550c3.33301 13.333 -9.66699 21.666 -39 24.999c-18.667 0.666992 -37.334 1.66699 -56.001 3c-0.666992 2 -1 4 -1 6
s0.666992 5 2 9h96h146h164.5c53.667 0 82.5 -0.666992 86.5 -2zM332.002 667.005l117.5 82.502c39 28.333 56.5 46.166 52.5 53.499c1.33301 -6.66699 2.5 -15 3.5 -25s1.5 -18.333 1.5 -25c0 -14.667 -1.66699 -25.334 -5 -32.001z" />
    <glyph glyph-name="Ecircumflex" unicode="&#xca;" horiz-adv-x="618" 
d="M676 650c4 -1.33301 6.00195 -8.32812 6.00195 -20.9951c0 -31.333 -9.66699 -79.833 -29 -145.5s-33 -97.834 -41 -96.501c1.33301 6 2.83301 16.5 4.5 31.5s2.5 33.833 2.5 56.5c0 27.333 -2.33301 51.666 -7 72.999s-13.334 38.333 -26.001 51
s-27.667 21.334 -45 26.001s-37.666 7 -60.999 7c-15.333 0 -30.166 -0.333008 -44.499 -1l-42.5 -2c-8.66699 -0.666992 -15.667 -4.16699 -21 -10.5s-9 -13.833 -11 -22.5l-67 -242c-0.666992 -3.33301 0 -6 2 -8s8 -3 18 -3c18.667 0 41 5 67 15s44 21.667 54 35l35 48.5
c13.333 19 22.666 39.5 27.999 61.5h8c-30.667 -118.667 -62.667 -231.667 -96 -339h-8c3.33301 17.333 6 32.666 8 45.999s3 25.666 3 36.999c0 17.333 -3.33301 31.666 -10 42.999s-18.167 21 -34.5 29s-32.833 12 -49.5 12c-23.333 0 -37.333 -9.66699 -42 -29l-60 -241
c-0.666992 -2 -1 -4.16699 -1 -6.5v-4.5c0 -14 8 -23.833 24 -29.5s36.333 -8.5 61 -8.5c12 0 25 0.5 39 1.5s34.667 2.66699 62 5s59.666 29.166 96.999 80.499l91 162c2.66699 0 4 -5.33301 4 -16c0 -31.333 -9.33301 -80 -28 -146s-34 -99 -46 -99h-140.5h-187h-180.5
c-0.666992 1.33301 -1 2.83301 -1 4.5s0.333008 3.83398 1 6.50098c2 -0.666992 6.66699 -1 14 -1c20.667 0 41.5 4 62.5 12s33.833 20.333 38.5 37l150 550c3.33301 13.333 -9.66699 21.666 -39 24.999c-18.667 0.666992 -37.334 1.66699 -56.001 3c-0.666992 2 -1 4 -1 6
s0.666992 5 2 9h96h146h164.5c53.667 0 82.5 -0.666992 86.5 -2zM328.002 660.005l140 146l127 -146h-82l-74 92l-87 -92h-24z" />
    <glyph glyph-name="Edieresis" unicode="&#xcb;" horiz-adv-x="624" 
d="M676 650c4 -1.33301 6.00195 -8.32812 6.00195 -20.9951c0 -31.333 -9.66699 -79.833 -29 -145.5s-33 -97.834 -41 -96.501c1.33301 6 2.83301 16.5 4.5 31.5s2.5 33.833 2.5 56.5c0 27.333 -2.33301 51.666 -7 72.999s-13.334 38.333 -26.001 51
s-27.667 21.334 -45 26.001s-37.666 7 -60.999 7c-15.333 0 -30.166 -0.333008 -44.499 -1l-42.5 -2c-8.66699 -0.666992 -15.667 -4.16699 -21 -10.5s-9 -13.833 -11 -22.5l-67 -242c-0.666992 -3.33301 0 -6 2 -8s8 -3 18 -3c18.667 0 41 5 67 15s44 21.667 54 35l35 48.5
c13.333 19 22.666 39.5 27.999 61.5h8c-30.667 -118.667 -62.667 -231.667 -96 -339h-8c3.33301 17.333 6 32.666 8 45.999s3 25.666 3 36.999c0 17.333 -3.33301 31.666 -10 42.999s-18.167 21 -34.5 29s-32.833 12 -49.5 12c-23.333 0 -37.333 -9.66699 -42 -29l-60 -241
c-0.666992 -2 -1 -4.16699 -1 -6.5v-4.5c0 -14 8 -23.833 24 -29.5s36.333 -8.5 61 -8.5c12 0 25 0.5 39 1.5s34.667 2.66699 62 5s59.666 29.166 96.999 80.499l91 162c2.66699 0 4 -5.33301 4 -16c0 -31.333 -9.33301 -80 -28 -146s-34 -99 -46 -99h-140.5h-187h-180.5
c-0.666992 1.33301 -1 2.83301 -1 4.5s0.333008 3.83398 1 6.50098c2 -0.666992 6.66699 -1 14 -1c20.667 0 41.5 4 62.5 12s33.833 20.333 38.5 37l150 550c3.33301 13.333 -9.66699 21.666 -39 24.999c-18.667 0.666992 -37.334 1.66699 -56.001 3c-0.666992 2 -1 4 -1 6
s0.666992 5 2 9h96h146h164.5c53.667 0 82.5 -0.666992 86.5 -2zM376.002 781.005c13.333 0 25 -4.66699 35 -14s15 -21 15 -35c0 -13.333 -5 -25 -15 -35s-21.667 -15 -35 -15c-14 0 -25.833 4.83301 -35.5 14.5s-14.5 21.5 -14.5 35.5s4.66699 25.667 14 35
s21.333 14 36 14zM526.002 781.005c14 0 25.833 -4.83301 35.5 -14.5s14.5 -21.167 14.5 -34.5c0 -14 -4.83301 -25.833 -14.5 -35.5s-21.5 -14.5 -35.5 -14.5s-25.667 4.66699 -35 14s-14 21.333 -14 36c0 14 4.66699 25.667 14 35s21 14 35 14z" />
    <glyph glyph-name="Igrave" unicode="&#xcc;" horiz-adv-x="350" 
d="M484 650c1.33301 -2.66699 2.16699 -5.33203 2.5 -7.99902s-0.5 -4.33398 -2.5 -5.00098h-12c-4 0 -8.33301 0.333008 -13 1c-21.333 0 -39.666 -2.66699 -54.999 -8s-25.333 -16 -30 -32l-154 -546c-0.666992 -2.66699 -1 -6 -1 -10c0 -12 6.33301 -20.167 19 -24.5
s27.667 -6.5 45 -6.5h14c-0.666992 -4 -1.33398 -7.66699 -2.00098 -11l-275 -1c-0.666992 4 -1 7.16699 -1 9.5s0.333008 3.5 1 3.5c2 -0.666992 8.33301 -1 19 -1c22 0 42 3 60 9s29 16.667 33 32l164 550c3.33301 13.333 -0.5 22.333 -11.5 27s-26.167 7 -45.5 7h-32
c-1.33301 0 -2.83301 0.666992 -4.5 2s-0.166992 5 4.5 11zM272.001 726.002c-2 4 -3.33301 10 -4 18s-1 13 -1 15c0 13.333 0.5 23.833 1.5 31.5s2.16699 13.5 3.5 17.5c-4 -7.33301 13.333 -25 52 -53l118 -83z" />
    <glyph glyph-name="Iacute" unicode="&#xcd;" horiz-adv-x="356" 
d="M484 650c1.33301 -2.66699 2.16699 -5.33203 2.5 -7.99902s-0.5 -4.33398 -2.5 -5.00098h-12c-4 0 -8.33301 0.333008 -13 1c-21.333 0 -39.666 -2.66699 -54.999 -8s-25.333 -16 -30 -32l-154 -546c-0.666992 -2.66699 -1 -6 -1 -10c0 -12 6.33301 -20.167 19 -24.5
s27.667 -6.5 45 -6.5h14c-0.666992 -4 -1.33398 -7.66699 -2.00098 -11l-275 -1c-0.666992 4 -1 7.16699 -1 9.5s0.333008 3.5 1 3.5c2 -0.666992 8.33301 -1 19 -1c22 0 42 3 60 9s29 16.667 33 32l164 550c3.33301 13.333 -0.5 22.333 -11.5 27s-26.167 7 -45.5 7h-32
c-1.33301 0 -2.83301 0.666992 -4.5 2s-0.166992 5 4.5 11zM256.001 667.002l117.5 82.502c39 28.333 56.5 46.166 52.5 53.499c1.33301 -6.66699 2.5 -15 3.5 -25s1.5 -18.333 1.5 -25c0 -14.667 -1.66699 -25.334 -5 -32.001z" />
    <glyph glyph-name="Icircumflex" unicode="&#xce;" horiz-adv-x="368" 
d="M484 650c1.33301 -2.66699 2.16699 -5.33203 2.5 -7.99902s-0.5 -4.33398 -2.5 -5.00098h-12c-4 0 -8.33301 0.333008 -13 1c-21.333 0 -39.666 -2.66699 -54.999 -8s-25.333 -16 -30 -32l-154 -546c-0.666992 -2.66699 -1 -6 -1 -10c0 -12 6.33301 -20.167 19 -24.5
s27.667 -6.5 45 -6.5h14c-0.666992 -4 -1.33398 -7.66699 -2.00098 -11l-275 -1c-0.666992 4 -1 7.16699 -1 9.5s0.333008 3.5 1 3.5c2 -0.666992 8.33301 -1 19 -1c22 0 42 3 60 9s29 16.667 33 32l164 550c3.33301 13.333 -0.5 22.333 -11.5 27s-26.167 7 -45.5 7h-32
c-1.33301 0 -2.83301 0.666992 -4.5 2s-0.166992 5 4.5 11zM211.001 665.002l140 146l127 -146h-82l-74 92l-87 -92h-24z" />
    <glyph glyph-name="Idieresis" unicode="&#xcf;" horiz-adv-x="344" 
d="M484 650c1.33301 -2.66699 2.16699 -5.33203 2.5 -7.99902s-0.5 -4.33398 -2.5 -5.00098h-12c-4 0 -8.33301 0.333008 -13 1c-21.333 0 -39.666 -2.66699 -54.999 -8s-25.333 -16 -30 -32l-154 -546c-0.666992 -2.66699 -1 -6 -1 -10c0 -12 6.33301 -20.167 19 -24.5
s27.667 -6.5 45 -6.5h14c-0.666992 -4 -1.33398 -7.66699 -2.00098 -11l-275 -1c-0.666992 4 -1 7.16699 -1 9.5s0.333008 3.5 1 3.5c2 -0.666992 8.33301 -1 19 -1c22 0 42 3 60 9s29 16.667 33 32l164 550c3.33301 13.333 -0.5 22.333 -11.5 27s-26.167 7 -45.5 7h-32
c-1.33301 0 -2.83301 0.666992 -4.5 2s-0.166992 5 4.5 11zM282.001 787.002c13.333 0 25 -4.66699 35 -14s15 -21 15 -35c0 -13.333 -5 -25 -15 -35s-21.667 -15 -35 -15c-14 0 -25.833 4.83301 -35.5 14.5s-14.5 21.5 -14.5 35.5s4.66699 25.667 14 35s21.333 14 36 14z
M432.001 787.002c14 0 25.833 -4.83301 35.5 -14.5s14.5 -21.167 14.5 -34.5c0 -14 -4.83301 -25.833 -14.5 -35.5s-21.5 -14.5 -35.5 -14.5s-25.667 4.66699 -35 14s-14 21.333 -14 36c0 14 4.66699 25.667 14 35s21 14 35 14z" />
    <glyph glyph-name="Ntilde" unicode="&#xd1;" horiz-adv-x="683" 
d="M379 583l161.999 -410.997l104 363c4 13.333 6 24.666 6 33.999c0 25.333 -10 42.833 -30 52.5s-41.667 14.5 -65 14.5c-9.33301 -0.666992 -15 -1 -17 -1c0 4 0.333008 8.33301 1 13h259c-0.666992 -4 -1 -7.66699 -1 -11h-25c-20 0 -38 -3.83301 -54 -11.5
s-27.667 -23.834 -35 -48.501l-165 -577h-6l-200 531l-118 -446c-2 -9.33301 -3 -17.333 -3 -24c0 -20 8.16699 -33.333 24.5 -40s35.166 -10 56.499 -10h18c0 -4 0.333008 -8 1 -12h-264l1 12h15c24.667 0 47.834 5.66699 69.501 17s37.834 35.666 48.501 72.999l125 447
c3.33301 14.667 5 25.667 5 33c0 17.333 -5.83301 30.666 -17.5 39.999s-33.5 14 -65.5 14h-32c-2 0.666992 -2.66699 2.33398 -2 5.00098l2 8h39c12.667 0 25 0.333008 37 1c36.667 0 64.167 -4 82.5 -12s32.833 -26 43.5 -54zM325.999 681.003
c0 37.333 9.83398 67.4971 29.501 90.4971s45.5 34.5 77.5 34.5c14.667 0 38 -12.667 70 -38s57.333 -36.666 76 -33.999c24 2.66699 43.167 8.33398 57.5 17.001s29.166 23.667 44.499 45c-10.667 -39.333 -22.5 -69.166 -35.5 -89.499s-28.5 -32.5 -46.5 -36.5
s-28.333 -6 -31 -6c-16 0 -38.5 14 -67.5 42s-53.167 42 -72.5 42c-24.667 0 -43 -3.83301 -55 -11.5s-27.667 -26.167 -47 -55.5z" />
    <glyph glyph-name="Ograve" unicode="&#xd2;" horiz-adv-x="531" 
d="M483 577c29.333 -51.333 43.999 -107.332 43.999 -167.999c0 -85.333 -23.167 -160.5 -69.5 -225.5s-89 -111.833 -128 -140.5s-83.167 -43 -132.5 -43c-30 0 -57 9.83301 -81 29.5s-42.5 48 -55.5 85s-19.5 79.167 -19.5 126.5c0 66 14.833 130 44.5 192
s64.834 109.167 105.501 141.5s71.167 53.166 91.5 62.499s42.5 14 66.5 14c11.333 0 26.333 -2.16699 45 -6.5s35.667 -12 51 -23s28 -25.833 38 -44.5zM336.999 633.001c-47.333 -26.667 -80.665 -55.668 -99.998 -87.001s-46.333 -93.5 -81 -186.5s-52 -158.5 -52 -196.5
c0 -24.667 3.5 -47.667 10.5 -69s17.333 -40 31 -56s30.5 -24 50.5 -24c8 0 15.333 0.833008 22 2.5s20.167 7.66699 40.5 18s41.833 32.333 64.5 66s40.167 66 52.5 97s27.666 72.5 45.999 124.5s30 89.167 35 111.5s7.5 42.5 7.5 60.5
c0 20.667 -2.83301 40.334 -8.5 59.001s-15.334 38 -29.001 58s-33.167 30 -58.5 30c-12 0 -22.333 -2.66699 -31 -8zM290 721c-2 4 -3.33301 10 -4 18s-1 13 -1 15c0 13.333 0.5 23.833 1.5 31.5s2.16699 13.5 3.5 17.5c-4 -7.33301 13.333 -25 52 -53l118 -83z" />
    <glyph glyph-name="Oacute" unicode="&#xd3;" 
d="M483 577c29.333 -51.333 43.999 -107.332 43.999 -167.999c0 -85.333 -23.167 -160.5 -69.5 -225.5s-89 -111.833 -128 -140.5s-83.167 -43 -132.5 -43c-30 0 -57 9.83301 -81 29.5s-42.5 48 -55.5 85s-19.5 79.167 -19.5 126.5c0 66 14.833 130 44.5 192
s64.834 109.167 105.501 141.5s71.167 53.166 91.5 62.499s42.5 14 66.5 14c11.333 0 26.333 -2.16699 45 -6.5s35.667 -12 51 -23s28 -25.833 38 -44.5zM336.999 633.001c-47.333 -26.667 -80.665 -55.668 -99.998 -87.001s-46.333 -93.5 -81 -186.5s-52 -158.5 -52 -196.5
c0 -24.667 3.5 -47.667 10.5 -69s17.333 -40 31 -56s30.5 -24 50.5 -24c8 0 15.333 0.833008 22 2.5s20.167 7.66699 40.5 18s41.833 32.333 64.5 66s40.167 66 52.5 97s27.666 72.5 45.999 124.5s30 89.167 35 111.5s7.5 42.5 7.5 60.5
c0 20.667 -2.83301 40.334 -8.5 59.001s-15.334 38 -29.001 58s-33.167 30 -58.5 30c-12 0 -22.333 -2.66699 -31 -8zM274 667l117.5 82.502c39 28.333 56.5 46.166 52.5 53.499c1.33301 -6.66699 2.5 -15 3.5 -25s1.5 -18.333 1.5 -25
c0 -14.667 -1.66699 -25.334 -5 -32.001z" />
    <glyph glyph-name="Ocircumflex" unicode="&#xd4;" horiz-adv-x="531" 
d="M483 577c29.333 -51.333 43.999 -107.332 43.999 -167.999c0 -85.333 -23.167 -160.5 -69.5 -225.5s-89 -111.833 -128 -140.5s-83.167 -43 -132.5 -43c-30 0 -57 9.83301 -81 29.5s-42.5 48 -55.5 85s-19.5 79.167 -19.5 126.5c0 66 14.833 130 44.5 192
s64.834 109.167 105.501 141.5s71.167 53.166 91.5 62.499s42.5 14 66.5 14c11.333 0 26.333 -2.16699 45 -6.5s35.667 -12 51 -23s28 -25.833 38 -44.5zM336.999 633.001c-47.333 -26.667 -80.665 -55.668 -99.998 -87.001s-46.333 -93.5 -81 -186.5s-52 -158.5 -52 -196.5
c0 -24.667 3.5 -47.667 10.5 -69s17.333 -40 31 -56s30.5 -24 50.5 -24c8 0 15.333 0.833008 22 2.5s20.167 7.66699 40.5 18s41.833 32.333 64.5 66s40.167 66 52.5 97s27.666 72.5 45.999 124.5s30 89.167 35 111.5s7.5 42.5 7.5 60.5
c0 20.667 -2.83301 40.334 -8.5 59.001s-15.334 38 -29.001 58s-33.167 30 -58.5 30c-12 0 -22.333 -2.66699 -31 -8zM246 660l140 146l127 -146h-82l-74 92l-87 -92h-24z" />
    <glyph glyph-name="Otilde" unicode="&#xd5;" horiz-adv-x="537" 
d="M186 681c0 37.333 9.83398 67.4971 29.501 90.4971s45.5 34.5 77.5 34.5c14.667 0 38 -12.667 70 -38s57.333 -36.666 76 -33.999c24 2.66699 43.167 8.33398 57.5 17.001s29.166 23.667 44.499 45c-10.667 -39.333 -22.5 -69.166 -35.5 -89.499s-28.5 -32.5 -46.5 -36.5
s-28.333 -6 -31 -6c-16 0 -38.5 14 -67.5 42s-53.167 42 -72.5 42c-24.667 0 -43 -3.83301 -55 -11.5s-27.667 -26.167 -47 -55.5zM483.001 576.997c29.333 -51.333 43.999 -107.332 43.999 -167.999c0 -85.333 -23.167 -160.5 -69.5 -225.5s-89 -111.833 -128 -140.5
s-83.167 -43 -132.5 -43c-30 0 -57 9.83301 -81 29.5s-42.5 48 -55.5 85s-19.5 79.167 -19.5 126.5c0 66 14.833 130 44.5 192s64.834 109.167 105.501 141.5s71.167 53.166 91.5 62.499s42.5 14 66.5 14c11.333 0 26.333 -2.16699 45 -6.5s35.667 -12 51 -23
s28 -25.833 38 -44.5zM337 632.998c-47.333 -26.667 -80.665 -55.668 -99.998 -87.001s-46.333 -93.5 -81 -186.5s-52 -158.5 -52 -196.5c0 -24.667 3.5 -47.667 10.5 -69s17.333 -40 31 -56s30.5 -24 50.5 -24c8 0 15.333 0.833008 22 2.5s20.167 7.66699 40.5 18
s41.833 32.333 64.5 66s40.167 66 52.5 97s27.666 72.5 45.999 124.5s30 89.167 35 111.5s7.5 42.5 7.5 60.5c0 20.667 -2.83301 40.334 -8.5 59.001s-15.334 38 -29.001 58s-33.167 30 -58.5 30c-12 0 -22.333 -2.66699 -31 -8z" />
    <glyph glyph-name="Odieresis" unicode="&#xd6;" 
d="M483 577c29.333 -51.333 43.999 -107.332 43.999 -167.999c0 -85.333 -23.167 -160.5 -69.5 -225.5s-89 -111.833 -128 -140.5s-83.167 -43 -132.5 -43c-30 0 -57 9.83301 -81 29.5s-42.5 48 -55.5 85s-19.5 79.167 -19.5 126.5c0 66 14.833 130 44.5 192
s64.834 109.167 105.501 141.5s71.167 53.166 91.5 62.499s42.5 14 66.5 14c11.333 0 26.333 -2.16699 45 -6.5s35.667 -12 51 -23s28 -25.833 38 -44.5zM336.999 633.001c-47.333 -26.667 -80.665 -55.668 -99.998 -87.001s-46.333 -93.5 -81 -186.5s-52 -158.5 -52 -196.5
c0 -24.667 3.5 -47.667 10.5 -69s17.333 -40 31 -56s30.5 -24 50.5 -24c8 0 15.333 0.833008 22 2.5s20.167 7.66699 40.5 18s41.833 32.333 64.5 66s40.167 66 52.5 97s27.666 72.5 45.999 124.5s30 89.167 35 111.5s7.5 42.5 7.5 60.5
c0 20.667 -2.83301 40.334 -8.5 59.001s-15.334 38 -29.001 58s-33.167 30 -58.5 30c-12 0 -22.333 -2.66699 -31 -8zM288 793c13.333 0 25 -4.66699 35 -14s15 -21 15 -35c0 -13.333 -5 -25 -15 -35s-21.667 -15 -35 -15c-14 0 -25.833 4.83301 -35.5 14.5
s-14.5 21.5 -14.5 35.5s4.66699 25.667 14 35s21.333 14 36 14zM438 793c14 0 25.833 -4.83301 35.5 -14.5s14.5 -21.167 14.5 -34.5c0 -14 -4.83301 -25.833 -14.5 -35.5s-21.5 -14.5 -35.5 -14.5s-25.667 4.66699 -35 14s-14 21.333 -14 36c0 14 4.66699 25.667 14 35
s21 14 35 14z" />
    <glyph glyph-name="Oslash" unicode="&#xd8;" 
d="M483 577c29.333 -51.333 43.999 -107.332 43.999 -167.999c0 -85.333 -23.167 -160.5 -69.5 -225.5s-89 -111.833 -128 -140.5s-83.167 -43 -132.5 -43c-30 0 -57 9.83301 -81 29.5s-42.5 48 -55.5 85s-19.5 79.167 -19.5 126.5c0 66 14.833 130 44.5 192
s64.834 109.167 105.501 141.5s71.167 53.166 91.5 62.499s42.5 14 66.5 14c11.333 0 26.333 -2.16699 45 -6.5s35.667 -12 51 -23s28 -25.833 38 -44.5zM336.999 633.001c-47.333 -26.667 -80.665 -55.668 -99.998 -87.001s-46.333 -93.5 -81 -186.5s-52 -158.5 -52 -196.5
c0 -24.667 3.5 -47.667 10.5 -69s17.333 -40 31 -56s30.5 -24 50.5 -24c8 0 15.333 0.833008 22 2.5s20.167 7.66699 40.5 18s41.833 32.333 64.5 66s40.167 66 52.5 97s27.666 72.5 45.999 124.5s30 89.167 35 111.5s7.5 42.5 7.5 60.5
c0 20.667 -2.83301 40.334 -8.5 59.001s-15.334 38 -29.001 58s-33.167 30 -58.5 30c-12 0 -22.333 -2.66699 -31 -8zM448 745l-97.999 -274.5l-111.5 -311.5l-82.5 -221c-3.33301 -2 -6.83301 -3.33301 -10.5 -4s-7.83398 -1 -12.501 -1c-10 0.666992 -17.667 1 -23 1
l294 807c4.66699 2.66699 12.667 4 24 4h20z" />
    <glyph glyph-name="Ugrave" unicode="&#xd9;" horiz-adv-x="554" 
d="M656 650c1.33301 -2.66699 1.99902 -4.83301 1.99902 -6.5v-5.5c-22 0 -47.167 -2.5 -75.5 -7.5s-47.5 -29.5 -57.5 -73.5l-83 -361c-8.66699 -40 -15.5 -66.333 -20.5 -79s-16.833 -30 -35.5 -52s-43.167 -39 -73.5 -51s-62.166 -18 -95.499 -18c-25.333 0 -50 4 -74 12
s-47.167 21.667 -69.5 41s-35.833 35 -40.5 47s-7 24 -7 36c0 8.66699 1.66699 19 5 31l122 443c4 14 -7 23 -33 27l-53 4v12l259 1v-12h-29c-15.333 0 -28 -2.16699 -38 -6.5s-17 -14.166 -21 -29.499l-132 -470c-3.33301 -13.333 -5 -25.333 -5 -36
c0 -11.333 1.5 -20.833 4.5 -28.5s13.833 -18.667 32.5 -33s46.334 -21.5 83.001 -21.5c34.667 0 68.167 9.16699 100.5 27.5s54.333 37.166 66 56.499s22.5 52.666 32.5 99.999l87 405c4 18 -6 29 -30 33c-27.333 1.33301 -42.333 2.33301 -45 3
s-3.83398 2.33398 -3.50098 5.00098s0.5 5 0.5 7h227zM301.999 721.001c-2 4 -3.33301 10 -4 18s-1 13 -1 15c0 13.333 0.5 23.833 1.5 31.5s2.16699 13.5 3.5 17.5c-4 -7.33301 13.333 -25 52 -53l118 -83z" />
    <glyph glyph-name="Uacute" unicode="&#xda;" horiz-adv-x="543" 
d="M656 650c1.33301 -2.66699 1.99902 -4.83301 1.99902 -6.5v-5.5c-22 0 -47.167 -2.5 -75.5 -7.5s-47.5 -29.5 -57.5 -73.5l-83 -361c-8.66699 -40 -15.5 -66.333 -20.5 -79s-16.833 -30 -35.5 -52s-43.167 -39 -73.5 -51s-62.166 -18 -95.499 -18c-25.333 0 -50 4 -74 12
s-47.167 21.667 -69.5 41s-35.833 35 -40.5 47s-7 24 -7 36c0 8.66699 1.66699 19 5 31l122 443c4 14 -7 23 -33 27l-53 4v12l259 1v-12h-29c-15.333 0 -28 -2.16699 -38 -6.5s-17 -14.166 -21 -29.499l-132 -470c-3.33301 -13.333 -5 -25.333 -5 -36
c0 -11.333 1.5 -20.833 4.5 -28.5s13.833 -18.667 32.5 -33s46.334 -21.5 83.001 -21.5c34.667 0 68.167 9.16699 100.5 27.5s54.333 37.166 66 56.499s22.5 52.666 32.5 99.999l87 405c4 18 -6 29 -30 33c-27.333 1.33301 -42.333 2.33301 -45 3
s-3.83398 2.33398 -3.50098 5.00098s0.5 5 0.5 7h227zM273.999 667.001l117.5 82.502c39 28.333 56.5 46.166 52.5 53.499c1.33301 -6.66699 2.5 -15 3.5 -25s1.5 -18.333 1.5 -25c0 -14.667 -1.66699 -25.334 -5 -32.001z" />
    <glyph glyph-name="Ucircumflex" unicode="&#xdb;" horiz-adv-x="531" 
d="M656 650c1.33301 -2.66699 1.99902 -4.83301 1.99902 -6.5v-5.5c-22 0 -47.167 -2.5 -75.5 -7.5s-47.5 -29.5 -57.5 -73.5l-83 -361c-8.66699 -40 -15.5 -66.333 -20.5 -79s-16.833 -30 -35.5 -52s-43.167 -39 -73.5 -51s-62.166 -18 -95.499 -18c-25.333 0 -50 4 -74 12
s-47.167 21.667 -69.5 41s-35.833 35 -40.5 47s-7 24 -7 36c0 8.66699 1.66699 19 5 31l122 443c4 14 -7 23 -33 27l-53 4v12l259 1v-12h-29c-15.333 0 -28 -2.16699 -38 -6.5s-17 -14.166 -21 -29.499l-132 -470c-3.33301 -13.333 -5 -25.333 -5 -36
c0 -11.333 1.5 -20.833 4.5 -28.5s13.833 -18.667 32.5 -33s46.334 -21.5 83.001 -21.5c34.667 0 68.167 9.16699 100.5 27.5s54.333 37.166 66 56.499s22.5 52.666 32.5 99.999l87 405c4 18 -6 29 -30 33c-27.333 1.33301 -42.333 2.33301 -45 3
s-3.83398 2.33398 -3.50098 5.00098s0.5 5 0.5 7h227zM245.999 660.001l140 146l127 -146h-82l-74 92l-87 -92h-24z" />
    <glyph glyph-name="Udieresis" unicode="&#xdc;" horiz-adv-x="578" 
d="M656 650c1.33301 -2.66699 1.99902 -4.83301 1.99902 -6.5v-5.5c-22 0 -47.167 -2.5 -75.5 -7.5s-47.5 -29.5 -57.5 -73.5l-83 -361c-8.66699 -40 -15.5 -66.333 -20.5 -79s-16.833 -30 -35.5 -52s-43.167 -39 -73.5 -51s-62.166 -18 -95.499 -18c-25.333 0 -50 4 -74 12
s-47.167 21.667 -69.5 41s-35.833 35 -40.5 47s-7 24 -7 36c0 8.66699 1.66699 19 5 31l122 443c4 14 -7 23 -33 27l-53 4v12l259 1v-12h-29c-15.333 0 -28 -2.16699 -38 -6.5s-17 -14.166 -21 -29.499l-132 -470c-3.33301 -13.333 -5 -25.333 -5 -36
c0 -11.333 1.5 -20.833 4.5 -28.5s13.833 -18.667 32.5 -33s46.334 -21.5 83.001 -21.5c34.667 0 68.167 9.16699 100.5 27.5s54.333 37.166 66 56.499s22.5 52.666 32.5 99.999l87 405c4 18 -6 29 -30 33c-27.333 1.33301 -42.333 2.33301 -45 3
s-3.83398 2.33398 -3.50098 5.00098s0.5 5 0.5 7h227zM299.999 787.001c13.333 0 25 -4.66699 35 -14s15 -21 15 -35c0 -13.333 -5 -25 -15 -35s-21.667 -15 -35 -15c-14 0 -25.833 4.83301 -35.5 14.5s-14.5 21.5 -14.5 35.5s4.66699 25.667 14 35s21.333 14 36 14z
M449.999 787.001c14 0 25.833 -4.83301 35.5 -14.5s14.5 -21.167 14.5 -34.5c0 -14 -4.83301 -25.833 -14.5 -35.5s-21.5 -14.5 -35.5 -14.5s-25.667 4.66699 -35 14s-14 21.333 -14 36c0 14 4.66699 25.667 14 35s21 14 35 14z" />
    <glyph glyph-name="agrave" unicode="&#xe0;" horiz-adv-x="449" 
d="M326 370l8.99512 23.5039c2.66699 7 6.66699 15.5 12 25.5l65 1c-7.33301 -34.667 -20.5 -82.834 -39.5 -144.501s-33.667 -111.834 -44 -150.501s-15.5 -72 -15.5 -100c0 -6.66699 4.33301 -10 13 -10c10 0 22.5 7 37.5 21s30.667 35.167 47 63.5l45.5 80.5
c-13.333 -38.667 -29.833 -74.334 -49.5 -107.001s-37.667 -53.334 -54 -62.001s-27.833 -13 -34.5 -13c-9.33301 0 -18.666 3.16699 -27.999 9.5s-16.666 13.333 -21.999 21s-8.66602 15.167 -9.99902 22.5s-2 15.333 -2 24c0 13.333 0.166992 21.5 0.5 24.5
s1.16602 5.83301 2.49902 8.5c-26 -32 -49.5 -59.667 -70.5 -83s-46.833 -35 -77.5 -35c-6.66699 0 -16.667 2.16699 -30 6.5s-24.666 14.5 -33.999 30.5s-15.666 32.5 -18.999 49.5s-5 30.833 -5 41.5c0 43.333 11.5 86.5 34.5 129.5s49.167 78.5 78.5 106.5
s50 45.667 62 53s28.667 12.333 50 15c18 0 33.333 -4.5 46 -13.5s23.334 -21.833 32.001 -38.5zM205.995 386.004c-38 -44.667 -66.667 -96.333 -86 -155s-29 -118.334 -29 -179.001c0 -15.333 3.16699 -27.166 9.5 -35.499s14.5 -12.5 24.5 -12.5
c2 0 8.83301 2.66699 20.5 8s26.5 17.5 44.5 36.5s36.833 44 56.5 75s36.167 63 49.5 96s20 63.833 20 92.5c0 28 -5.83301 50.833 -17.5 68.5s-26.5 26.5 -44.5 26.5c-20 0 -36 -7 -48 -21zM149.995 552.005c-2 4 -3.33301 10 -4 18s-1 13 -1 15
c0 13.333 0.5 23.833 1.5 31.5s2.16699 13.5 3.5 17.5c-4 -7.33301 13.333 -25 52 -53l118 -83z" />
    <glyph glyph-name="aacute" unicode="&#xe1;" horiz-adv-x="461" 
d="M326 370l8.99512 23.5039c2.66699 7 6.66699 15.5 12 25.5l65 1c-7.33301 -34.667 -20.5 -82.834 -39.5 -144.501s-33.667 -111.834 -44 -150.501s-15.5 -72 -15.5 -100c0 -6.66699 4.33301 -10 13 -10c10 0 22.5 7 37.5 21s30.667 35.167 47 63.5l45.5 80.5
c-13.333 -38.667 -29.833 -74.334 -49.5 -107.001s-37.667 -53.334 -54 -62.001s-27.833 -13 -34.5 -13c-9.33301 0 -18.666 3.16699 -27.999 9.5s-16.666 13.333 -21.999 21s-8.66602 15.167 -9.99902 22.5s-2 15.333 -2 24c0 13.333 0.166992 21.5 0.5 24.5
s1.16602 5.83301 2.49902 8.5c-26 -32 -49.5 -59.667 -70.5 -83s-46.833 -35 -77.5 -35c-6.66699 0 -16.667 2.16699 -30 6.5s-24.666 14.5 -33.999 30.5s-15.666 32.5 -18.999 49.5s-5 30.833 -5 41.5c0 43.333 11.5 86.5 34.5 129.5s49.167 78.5 78.5 106.5
s50 45.667 62 53s28.667 12.333 50 15c18 0 33.333 -4.5 46 -13.5s23.334 -21.833 32.001 -38.5zM205.995 386.004c-38 -44.667 -66.667 -96.333 -86 -155s-29 -118.334 -29 -179.001c0 -15.333 3.16699 -27.166 9.5 -35.499s14.5 -12.5 24.5 -12.5
c2 0 8.83301 2.66699 20.5 8s26.5 17.5 44.5 36.5s36.833 44 56.5 75s36.167 63 49.5 96s20 63.833 20 92.5c0 28 -5.83301 50.833 -17.5 68.5s-26.5 26.5 -44.5 26.5c-20 0 -36 -7 -48 -21zM197.995 498.005l117.5 82.502c39 28.333 56.5 46.166 52.5 53.499
c1.33301 -6.66699 2.5 -15 3.5 -25s1.5 -18.333 1.5 -25c0 -14.667 -1.66699 -25.334 -5 -32.001z" />
    <glyph glyph-name="acircumflex" unicode="&#xe2;" horiz-adv-x="461" 
d="M326 370l8.99512 23.5039c2.66699 7 6.66699 15.5 12 25.5l65 1c-7.33301 -34.667 -20.5 -82.834 -39.5 -144.501s-33.667 -111.834 -44 -150.501s-15.5 -72 -15.5 -100c0 -6.66699 4.33301 -10 13 -10c10 0 22.5 7 37.5 21s30.667 35.167 47 63.5l45.5 80.5
c-13.333 -38.667 -29.833 -74.334 -49.5 -107.001s-37.667 -53.334 -54 -62.001s-27.833 -13 -34.5 -13c-9.33301 0 -18.666 3.16699 -27.999 9.5s-16.666 13.333 -21.999 21s-8.66602 15.167 -9.99902 22.5s-2 15.333 -2 24c0 13.333 0.166992 21.5 0.5 24.5
s1.16602 5.83301 2.49902 8.5c-26 -32 -49.5 -59.667 -70.5 -83s-46.833 -35 -77.5 -35c-6.66699 0 -16.667 2.16699 -30 6.5s-24.666 14.5 -33.999 30.5s-15.666 32.5 -18.999 49.5s-5 30.833 -5 41.5c0 43.333 11.5 86.5 34.5 129.5s49.167 78.5 78.5 106.5
s50 45.667 62 53s28.667 12.333 50 15c18 0 33.333 -4.5 46 -13.5s23.334 -21.833 32.001 -38.5zM205.995 386.004c-38 -44.667 -66.667 -96.333 -86 -155s-29 -118.334 -29 -179.001c0 -15.333 3.16699 -27.166 9.5 -35.499s14.5 -12.5 24.5 -12.5
c2 0 8.83301 2.66699 20.5 8s26.5 17.5 44.5 36.5s36.833 44 56.5 75s36.167 63 49.5 96s20 63.833 20 92.5c0 28 -5.83301 50.833 -17.5 68.5s-26.5 26.5 -44.5 26.5c-20 0 -36 -7 -48 -21zM106.995 491.005l140 146l127 -146h-82l-74 92l-87 -92h-24z" />
    <glyph glyph-name="atilde" unicode="&#xe3;" horiz-adv-x="461" 
d="M326 370l8.99512 23.5039c2.66699 7 6.66699 15.5 12 25.5l65 1c-7.33301 -34.667 -20.5 -82.834 -39.5 -144.501s-33.667 -111.834 -44 -150.501s-15.5 -72 -15.5 -100c0 -6.66699 4.33301 -10 13 -10c10 0 22.5 7 37.5 21s30.667 35.167 47 63.5l45.5 80.5
c-13.333 -38.667 -29.833 -74.334 -49.5 -107.001s-37.667 -53.334 -54 -62.001s-27.833 -13 -34.5 -13c-9.33301 0 -18.666 3.16699 -27.999 9.5s-16.666 13.333 -21.999 21s-8.66602 15.167 -9.99902 22.5s-2 15.333 -2 24c0 13.333 0.166992 21.5 0.5 24.5
s1.16602 5.83301 2.49902 8.5c-26 -32 -49.5 -59.667 -70.5 -83s-46.833 -35 -77.5 -35c-6.66699 0 -16.667 2.16699 -30 6.5s-24.666 14.5 -33.999 30.5s-15.666 32.5 -18.999 49.5s-5 30.833 -5 41.5c0 43.333 11.5 86.5 34.5 129.5s49.167 78.5 78.5 106.5
s50 45.667 62 53s28.667 12.333 50 15c18 0 33.333 -4.5 46 -13.5s23.334 -21.833 32.001 -38.5zM205.995 386.004c-38 -44.667 -66.667 -96.333 -86 -155s-29 -118.334 -29 -179.001c0 -15.333 3.16699 -27.166 9.5 -35.499s14.5 -12.5 24.5 -12.5
c2 0 8.83301 2.66699 20.5 8s26.5 17.5 44.5 36.5s36.833 44 56.5 75s36.167 63 49.5 96s20 63.833 20 92.5c0 28 -5.83301 50.833 -17.5 68.5s-26.5 26.5 -44.5 26.5c-20 0 -36 -7 -48 -21zM74.9951 472.005c0 37.333 9.83398 67.4971 29.501 90.4971s45.5 34.5 77.5 34.5
c14.667 0 38 -12.667 70 -38s57.333 -36.666 76 -33.999c24 2.66699 43.167 8.33398 57.5 17.001s29.166 23.667 44.499 45c-10.667 -39.333 -22.5 -69.166 -35.5 -89.499s-28.5 -32.5 -46.5 -36.5s-28.333 -6 -31 -6c-16 0 -38.5 14 -67.5 42s-53.167 42 -72.5 42
c-24.667 0 -43 -3.83301 -55 -11.5s-27.667 -26.167 -47 -55.5z" />
    <glyph glyph-name="adieresis" unicode="&#xe4;" horiz-adv-x="455" 
d="M326 370l8.99512 23.5039c2.66699 7 6.66699 15.5 12 25.5l65 1c-7.33301 -34.667 -20.5 -82.834 -39.5 -144.501s-33.667 -111.834 -44 -150.501s-15.5 -72 -15.5 -100c0 -6.66699 4.33301 -10 13 -10c10 0 22.5 7 37.5 21s30.667 35.167 47 63.5l45.5 80.5
c-13.333 -38.667 -29.833 -74.334 -49.5 -107.001s-37.667 -53.334 -54 -62.001s-27.833 -13 -34.5 -13c-9.33301 0 -18.666 3.16699 -27.999 9.5s-16.666 13.333 -21.999 21s-8.66602 15.167 -9.99902 22.5s-2 15.333 -2 24c0 13.333 0.166992 21.5 0.5 24.5
s1.16602 5.83301 2.49902 8.5c-26 -32 -49.5 -59.667 -70.5 -83s-46.833 -35 -77.5 -35c-6.66699 0 -16.667 2.16699 -30 6.5s-24.666 14.5 -33.999 30.5s-15.666 32.5 -18.999 49.5s-5 30.833 -5 41.5c0 43.333 11.5 86.5 34.5 129.5s49.167 78.5 78.5 106.5
s50 45.667 62 53s28.667 12.333 50 15c18 0 33.333 -4.5 46 -13.5s23.334 -21.833 32.001 -38.5zM205.995 386.004c-38 -44.667 -66.667 -96.333 -86 -155s-29 -118.334 -29 -179.001c0 -15.333 3.16699 -27.166 9.5 -35.499s14.5 -12.5 24.5 -12.5
c2 0 8.83301 2.66699 20.5 8s26.5 17.5 44.5 36.5s36.833 44 56.5 75s36.167 63 49.5 96s20 63.833 20 92.5c0 28 -5.83301 50.833 -17.5 68.5s-26.5 26.5 -44.5 26.5c-20 0 -36 -7 -48 -21zM188.995 601.005c13.333 0 25 -4.66699 35 -14s15 -21 15 -35
c0 -13.333 -5 -25 -15 -35s-21.667 -15 -35 -15c-14 0 -25.833 4.83301 -35.5 14.5s-14.5 21.5 -14.5 35.5s4.66699 25.667 14 35s21.333 14 36 14zM338.995 601.005c14 0 25.833 -4.83301 35.5 -14.5s14.5 -21.167 14.5 -34.5c0 -14 -4.83301 -25.833 -14.5 -35.5
s-21.5 -14.5 -35.5 -14.5s-25.667 4.66699 -35 14s-14 21.333 -14 36c0 14 4.66699 25.667 14 35s21 14 35 14z" />
    <glyph glyph-name="aring" unicode="&#xe5;" horiz-adv-x="455" 
d="M326 370l8.99512 23.5039c2.66699 7 6.66699 15.5 12 25.5l65 1c-7.33301 -34.667 -20.5 -82.834 -39.5 -144.501s-33.667 -111.834 -44 -150.501s-15.5 -72 -15.5 -100c0 -6.66699 4.33301 -10 13 -10c10 0 22.5 7 37.5 21s30.667 35.167 47 63.5l45.5 80.5
c-13.333 -38.667 -29.833 -74.334 -49.5 -107.001s-37.667 -53.334 -54 -62.001s-27.833 -13 -34.5 -13c-9.33301 0 -18.666 3.16699 -27.999 9.5s-16.666 13.333 -21.999 21s-8.66602 15.167 -9.99902 22.5s-2 15.333 -2 24c0 13.333 0.166992 21.5 0.5 24.5
s1.16602 5.83301 2.49902 8.5c-26 -32 -49.5 -59.667 -70.5 -83s-46.833 -35 -77.5 -35c-6.66699 0 -16.667 2.16699 -30 6.5s-24.666 14.5 -33.999 30.5s-15.666 32.5 -18.999 49.5s-5 30.833 -5 41.5c0 43.333 11.5 86.5 34.5 129.5s49.167 78.5 78.5 106.5
s50 45.667 62 53s28.667 12.333 50 15c18 0 33.333 -4.5 46 -13.5s23.334 -21.833 32.001 -38.5zM205.995 386.004c-38 -44.667 -66.667 -96.333 -86 -155s-29 -118.334 -29 -179.001c0 -15.333 3.16699 -27.166 9.5 -35.499s14.5 -12.5 24.5 -12.5
c2 0 8.83301 2.66699 20.5 8s26.5 17.5 44.5 36.5s36.833 44 56.5 75s36.167 63 49.5 96s20 63.833 20 92.5c0 28 -5.83301 50.833 -17.5 68.5s-26.5 26.5 -44.5 26.5c-20 0 -36 -7 -48 -21zM344.995 646.005c20 0 36.166 -6.16602 48.499 -18.499s18.5 -28.5 18.5 -48.5
c0 -6.66699 -2.33301 -18 -7 -34s-17.5 -32.167 -38.5 -48.5s-43.833 -24.5 -68.5 -24.5c-19.333 0 -35.333 6 -48 18s-19 27 -19 45c0 7.33301 2 19.166 6 35.499s16.833 33 38.5 50s44.834 25.5 69.501 25.5zM254.994 558.006c-2 -6 -3 -12.001 -3 -18.001
c0 -13.333 4.5 -24.166 13.5 -32.499s20.833 -12.5 35.5 -12.5c18 0 34.833 6 50.5 18s26.167 27 31.5 45c1.33301 8 2 13.333 2 16c0 14 -4.5 25.5 -13.5 34.5s-21.167 13.5 -36.5 13.5c-18 0 -34.667 -6 -50 -18s-25.333 -27.333 -30 -46z" />
    <glyph glyph-name="ae" unicode="&#xe6;" horiz-adv-x="560" 
d="M345 197c55.333 6 100.67 31.335 136.003 76.002c14 20 23.167 35.167 27.5 45.5s6.5 20.833 6.5 31.5c0 11.333 -2.33301 21.5 -7 30.5s-8.83398 15.333 -12.501 19s-9.5 5.5 -17.5 5.5c-4 0 -11.333 -2 -22 -6s-22.834 -13.833 -36.501 -29.5
s-24.834 -32.834 -33.501 -51.501s-16 -37.834 -22 -57.501zM249.004 127.002c0 14 8.16699 44.833 24.5 92.5s30.5 78.834 42.5 93.501c0 27.333 -5.83301 49.833 -17.5 67.5s-26.5 26.5 -44.5 26.5c-20 0 -42.5 -14.667 -67.5 -44s-47.167 -73.333 -66.5 -132
s-29 -118.334 -29 -179.001c0 -15.333 3.16699 -27.166 9.5 -35.499s14.5 -12.5 24.5 -12.5c2 0 8.83301 2.66699 20.5 8s26.5 17.5 44.5 36.5s35.333 41.833 52 68.5c0 0.666992 1 2.16699 3 4.5s3.33301 4.16602 4 5.49902zM452.004 419.002c20 0 35.499 -1 46.499 -3
s25 -9.5 42 -22.5s25.5 -32.833 25.5 -59.5c0 -9.33301 -5.16699 -25.666 -15.5 -48.999s-34.333 -43.666 -72 -60.999s-83.834 -31.333 -138.501 -42l-12.5 -37.5c-7.66699 -23 -11.5 -43.167 -11.5 -60.5c0 -7.33301 0.166992 -16 0.5 -26s3.16602 -18.333 8.49902 -25
s16.666 -12.834 33.999 -18.501s29.333 -7.5 36 -5.5c32 10.667 61.333 30.834 88 60.501s48 62.167 64 97.5h5c-8 -36.667 -24.167 -70 -48.5 -100s-48.166 -49.167 -71.499 -57.5s-40.666 -13.5 -51.999 -15.5s-23.333 -3 -36 -3c-18.667 0 -35.667 2.33301 -51 7
s-27.5 12.167 -36.5 22.5s-13.5 21.833 -13.5 34.5c0 13.333 4.66699 25.666 14 36.999l-3 10c-26 -32.667 -50.167 -59.5 -72.5 -80.5s-45.833 -31.5 -70.5 -31.5c-6.66699 0 -16.667 2.16699 -30 6.5s-24.666 14.5 -33.999 30.5s-15.666 32.5 -18.999 49.5
s-5 30.833 -5 41.5c0 43.333 11.5 86.5 34.5 129.5s49.167 78.5 78.5 106.5s50 45.667 62 53s28.667 12.333 50 15c20 0 38.333 -7.33301 55 -22s26.334 -35.334 29.001 -62.001l17.5 26c6.33301 9.33301 14.666 18 24.999 26s22 14.833 35 20.5s27.167 8.5 42.5 8.5z" />
    <glyph glyph-name="ccedilla" unicode="&#xe7;" horiz-adv-x="333" 
d="M311 173l-5.00293 0.00195312c-24 -50 -47.667 -87 -71 -111s-42.5 -38.667 -57.5 -44s-26.5 -8 -34.5 -8c-15.333 0 -28.5 3 -39.5 9s-16.5 15 -16.5 27c0 66 9.33301 130.5 28 193.5s40.334 107.167 65.001 132.5s44.667 38 60 38c18 0 29.667 -4.16699 35 -12.5
s8 -13.833 8 -16.5c0 -6.66699 -6.66699 -14 -20 -22s-21.833 -15.333 -25.5 -22s-5.5 -15 -5.5 -25c0 -17.333 4.5 -27.833 13.5 -31.5s15.833 -5.5 20.5 -5.5c10.667 0 20.834 4.16699 30.501 12.5s16.667 17.666 21 27.999s6.5 19.833 6.5 28.5
c0 21.333 -6.83301 38 -20.5 50s-25.5 19.167 -35.5 21.5s-23.333 3.5 -40 3.5c-42 0 -78.167 -14.167 -108.5 -42.5s-54.166 -63.166 -71.499 -104.499s-26 -82.333 -26 -123c0 -48.667 10 -86.667 30 -114c14 -16.667 30.667 -28 50 -34
c1.33301 -12.667 -2.83398 -26.334 -12.501 -41.001s-25.167 -27 -46.5 -37c22.667 3.33301 38.5 6 47.5 8s20.333 8 34 18s22.834 26.667 27.501 50c39.333 8 72.833 29.167 100.5 63.5s47.167 71.166 58.5 110.499z" />
    <glyph glyph-name="egrave" unicode="&#xe8;" horiz-adv-x="333" 
d="M298 400c23.333 -18 35.0029 -40.333 35.0029 -67c0 -9.33301 -5.16699 -25.833 -15.5 -49.5s-34.5 -43.834 -72.5 -60.501s-86.667 -31 -146 -43c-4 -16.667 -7.66699 -34.167 -11 -52.5s-5 -33.833 -5 -46.5c0 -19.333 2.66699 -34.833 8 -46.5
s11.666 -19.334 18.999 -23.001s16.666 -5.5 27.999 -5.5c8 0 16 1 24 3c32 10.667 61.333 30.834 88 60.501s47.667 62.167 63 97.5h5c-8 -36 -24.5 -68.5 -49.5 -97.5s-49.833 -49 -74.5 -60s-43 -16.5 -55 -16.5c-14.667 0 -28 2.83301 -40 8.5
s-29.167 20.167 -51.5 43.5s-33.5 57 -33.5 101c0 16.667 10.333 56.834 31 120.501s57.167 105.667 109.5 126s82.833 30.5 91.5 30.5c17.333 0 34.666 -7.66699 51.999 -23zM232.003 402c-28.667 -10 -52.668 -33.668 -72.001 -71.001s-37 -82 -53 -134
c58 5.33301 99 23.333 123 54s38.667 51.5 44 62.5s8 23.167 8 36.5c0 12 -2.33301 22.333 -7 31s-9.16699 14.834 -13.5 18.501s-10.166 5.5 -17.499 5.5c-4 0 -8 -1 -12 -3zM109.002 551.999c-2 4 -3.33301 10 -4 18s-1 13 -1 15c0 13.333 0.5 23.833 1.5 31.5
s2.16699 13.5 3.5 17.5c-4 -7.33301 13.333 -25 52 -53l118 -83z" />
    <glyph glyph-name="eacute" unicode="&#xe9;" horiz-adv-x="338" 
d="M298 400c23.333 -18 35.0029 -40.333 35.0029 -67c0 -9.33301 -5.16699 -25.833 -15.5 -49.5s-34.5 -43.834 -72.5 -60.501s-86.667 -31 -146 -43c-4 -16.667 -7.66699 -34.167 -11 -52.5s-5 -33.833 -5 -46.5c0 -19.333 2.66699 -34.833 8 -46.5
s11.666 -19.334 18.999 -23.001s16.666 -5.5 27.999 -5.5c8 0 16 1 24 3c32 10.667 61.333 30.834 88 60.501s47.667 62.167 63 97.5h5c-8 -36 -24.5 -68.5 -49.5 -97.5s-49.833 -49 -74.5 -60s-43 -16.5 -55 -16.5c-14.667 0 -28 2.83301 -40 8.5
s-29.167 20.167 -51.5 43.5s-33.5 57 -33.5 101c0 16.667 10.333 56.834 31 120.501s57.167 105.667 109.5 126s82.833 30.5 91.5 30.5c17.333 0 34.666 -7.66699 51.999 -23zM232.003 402c-28.667 -10 -52.668 -33.668 -72.001 -71.001s-37 -82 -53 -134
c58 5.33301 99 23.333 123 54s38.667 51.5 44 62.5s8 23.167 8 36.5c0 12 -2.33301 22.333 -7 31s-9.16699 14.834 -13.5 18.501s-10.166 5.5 -17.499 5.5c-4 0 -8 -1 -12 -3zM111.002 497.999l117.5 82.502c39 28.333 56.5 46.166 52.5 53.499
c1.33301 -6.66699 2.5 -15 3.5 -25s1.5 -18.333 1.5 -25c0 -14.667 -1.66699 -25.334 -5 -32.001z" />
    <glyph glyph-name="ecircumflex" unicode="&#xea;" horiz-adv-x="327" 
d="M298 400c23.333 -18 35.0029 -40.333 35.0029 -67c0 -9.33301 -5.16699 -25.833 -15.5 -49.5s-34.5 -43.834 -72.5 -60.501s-86.667 -31 -146 -43c-4 -16.667 -7.66699 -34.167 -11 -52.5s-5 -33.833 -5 -46.5c0 -19.333 2.66699 -34.833 8 -46.5
s11.666 -19.334 18.999 -23.001s16.666 -5.5 27.999 -5.5c8 0 16 1 24 3c32 10.667 61.333 30.834 88 60.501s47.667 62.167 63 97.5h5c-8 -36 -24.5 -68.5 -49.5 -97.5s-49.833 -49 -74.5 -60s-43 -16.5 -55 -16.5c-14.667 0 -28 2.83301 -40 8.5
s-29.167 20.167 -51.5 43.5s-33.5 57 -33.5 101c0 16.667 10.333 56.834 31 120.501s57.167 105.667 109.5 126s82.833 30.5 91.5 30.5c17.333 0 34.666 -7.66699 51.999 -23zM232.003 402c-28.667 -10 -52.668 -33.668 -72.001 -71.001s-37 -82 -53 -134
c58 5.33301 99 23.333 123 54s38.667 51.5 44 62.5s8 23.167 8 36.5c0 12 -2.33301 22.333 -7 31s-9.16699 14.834 -13.5 18.501s-10.166 5.5 -17.499 5.5c-4 0 -8 -1 -12 -3zM83.002 490.999l140 146l127 -146h-82l-74 92l-87 -92h-24z" />
    <glyph glyph-name="edieresis" unicode="&#xeb;" horiz-adv-x="327" 
d="M298 400c23.333 -18 35.0029 -40.333 35.0029 -67c0 -9.33301 -5.16699 -25.833 -15.5 -49.5s-34.5 -43.834 -72.5 -60.501s-86.667 -31 -146 -43c-4 -16.667 -7.66699 -34.167 -11 -52.5s-5 -33.833 -5 -46.5c0 -19.333 2.66699 -34.833 8 -46.5
s11.666 -19.334 18.999 -23.001s16.666 -5.5 27.999 -5.5c8 0 16 1 24 3c32 10.667 61.333 30.834 88 60.501s47.667 62.167 63 97.5h5c-8 -36 -24.5 -68.5 -49.5 -97.5s-49.833 -49 -74.5 -60s-43 -16.5 -55 -16.5c-14.667 0 -28 2.83301 -40 8.5
s-29.167 20.167 -51.5 43.5s-33.5 57 -33.5 101c0 16.667 10.333 56.834 31 120.501s57.167 105.667 109.5 126s82.833 30.5 91.5 30.5c17.333 0 34.666 -7.66699 51.999 -23zM232.003 402c-28.667 -10 -52.668 -33.668 -72.001 -71.001s-37 -82 -53 -134
c58 5.33301 99 23.333 123 54s38.667 51.5 44 62.5s8 23.167 8 36.5c0 12 -2.33301 22.333 -7 31s-9.16699 14.834 -13.5 18.501s-10.166 5.5 -17.499 5.5c-4 0 -8 -1 -12 -3zM154.002 600.999c13.333 0 25 -4.66699 35 -14s15 -21 15 -35c0 -13.333 -5 -25 -15 -35
s-21.667 -15 -35 -15c-14 0 -25.833 4.83301 -35.5 14.5s-14.5 21.5 -14.5 35.5s4.66699 25.667 14 35s21.333 14 36 14zM304.002 600.999c14 0 25.833 -4.83301 35.5 -14.5s14.5 -21.167 14.5 -34.5c0 -14 -4.83301 -25.833 -14.5 -35.5s-21.5 -14.5 -35.5 -14.5
s-25.667 4.66699 -35 14s-14 21.333 -14 36c0 14 4.66699 25.667 14 35s21 14 35 14z" />
    <glyph glyph-name="igrave" unicode="&#xec;" horiz-adv-x="286" 
d="M198 383c8 -18.667 11.9971 -38.998 11.9971 -60.998c0 -24.667 -13.333 -67.334 -40 -128.001s-40 -105 -40 -133c0 -10.667 1 -22 3 -34c2.66699 -8.66699 11 -13 25 -13c7.33301 0 17.833 5.16699 31.5 15.5s28.667 32.166 45 65.499l46.5 96
c-5.33301 -38 -17 -73.833 -35 -107.5s-36 -56.167 -54 -67.5s-30.667 -17 -38 -17c-11.333 0 -22.166 4.16699 -32.499 12.5s-18.166 18.333 -23.499 30s-9.16602 22.5 -11.499 32.5s-3.5 21 -3.5 33c0 30.667 12.5 75.834 37.5 135.501s37.5 104.167 37.5 133.5
c0 9.33301 -0.333008 16.333 -1 21c0 8 -6 12 -18 12c-9.33301 0 -21.333 -6.66699 -36 -20s-29 -31.5 -43 -54.5s-25 -48.167 -33 -75.5h-11c17.333 49.333 34.5 85.666 51.5 108.999s32.5 39 46.5 47s24.333 12 31 12c10.667 0 21 -4.33301 31 -13s17.333 -19 22 -31z
M85.9971 552.002c-2 4 -3.33301 10 -4 18s-1 13 -1 15c0 13.333 0.5 23.833 1.5 31.5s2.16699 13.5 3.5 17.5c-4 -7.33301 13.333 -25 52 -53l118 -83z" />
    <glyph glyph-name="iacute" unicode="&#xed;" horiz-adv-x="286" 
d="M198 383c8 -18.667 11.9971 -38.998 11.9971 -60.998c0 -24.667 -13.333 -67.334 -40 -128.001s-40 -105 -40 -133c0 -10.667 1 -22 3 -34c2.66699 -8.66699 11 -13 25 -13c7.33301 0 17.833 5.16699 31.5 15.5s28.667 32.166 45 65.499l46.5 96
c-5.33301 -38 -17 -73.833 -35 -107.5s-36 -56.167 -54 -67.5s-30.667 -17 -38 -17c-11.333 0 -22.166 4.16699 -32.499 12.5s-18.166 18.333 -23.499 30s-9.16602 22.5 -11.499 32.5s-3.5 21 -3.5 33c0 30.667 12.5 75.834 37.5 135.501s37.5 104.167 37.5 133.5
c0 9.33301 -0.333008 16.333 -1 21c0 8 -6 12 -18 12c-9.33301 0 -21.333 -6.66699 -36 -20s-29 -31.5 -43 -54.5s-25 -48.167 -33 -75.5h-11c17.333 49.333 34.5 85.666 51.5 108.999s32.5 39 46.5 47s24.333 12 31 12c10.667 0 21 -4.33301 31 -13s17.333 -19 22 -31z
M58.9971 498.002l117.5 82.502c39 28.333 56.5 46.166 52.5 53.499c1.33301 -6.66699 2.5 -15 3.5 -25s1.5 -18.333 1.5 -25c0 -14.667 -1.66699 -25.334 -5 -32.001z" />
    <glyph glyph-name="icircumflex" unicode="&#xee;" horiz-adv-x="292" 
d="M198 383c8 -18.667 11.9971 -38.998 11.9971 -60.998c0 -24.667 -13.333 -67.334 -40 -128.001s-40 -105 -40 -133c0 -10.667 1 -22 3 -34c2.66699 -8.66699 11 -13 25 -13c7.33301 0 17.833 5.16699 31.5 15.5s28.667 32.166 45 65.499l46.5 96
c-5.33301 -38 -17 -73.833 -35 -107.5s-36 -56.167 -54 -67.5s-30.667 -17 -38 -17c-11.333 0 -22.166 4.16699 -32.499 12.5s-18.166 18.333 -23.499 30s-9.16602 22.5 -11.499 32.5s-3.5 21 -3.5 33c0 30.667 12.5 75.834 37.5 135.501s37.5 104.167 37.5 133.5
c0 9.33301 -0.333008 16.333 -1 21c0 8 -6 12 -18 12c-9.33301 0 -21.333 -6.66699 -36 -20s-29 -31.5 -43 -54.5s-25 -48.167 -33 -75.5h-11c17.333 49.333 34.5 85.666 51.5 108.999s32.5 39 46.5 47s24.333 12 31 12c10.667 0 21 -4.33301 31 -13s17.333 -19 22 -31z
M13.9971 491.002l140 146l127 -146h-82l-74 92l-87 -92h-24z" />
    <glyph glyph-name="idieresis" unicode="&#xef;" horiz-adv-x="292" 
d="M198 383c8 -18.667 11.9971 -38.998 11.9971 -60.998c0 -24.667 -13.333 -67.334 -40 -128.001s-40 -105 -40 -133c0 -10.667 1 -22 3 -34c2.66699 -8.66699 11 -13 25 -13c7.33301 0 17.833 5.16699 31.5 15.5s28.667 32.166 45 65.499l46.5 96
c-5.33301 -38 -17 -73.833 -35 -107.5s-36 -56.167 -54 -67.5s-30.667 -17 -38 -17c-11.333 0 -22.166 4.16699 -32.499 12.5s-18.166 18.333 -23.499 30s-9.16602 22.5 -11.499 32.5s-3.5 21 -3.5 33c0 30.667 12.5 75.834 37.5 135.501s37.5 104.167 37.5 133.5
c0 9.33301 -0.333008 16.333 -1 21c0 8 -6 12 -18 12c-9.33301 0 -21.333 -6.66699 -36 -20s-29 -31.5 -43 -54.5s-25 -48.167 -33 -75.5h-11c17.333 49.333 34.5 85.666 51.5 108.999s32.5 39 46.5 47s24.333 12 31 12c10.667 0 21 -4.33301 31 -13s17.333 -19 22 -31z
M95.9971 601.002c13.333 0 25 -4.66699 35 -14s15 -21 15 -35c0 -13.333 -5 -25 -15 -35s-21.667 -15 -35 -15c-14 0 -25.833 4.83301 -35.5 14.5s-14.5 21.5 -14.5 35.5s4.66699 25.667 14 35s21.333 14 36 14zM245.997 601.002c14 0 25.833 -4.83301 35.5 -14.5
s14.5 -21.167 14.5 -34.5c0 -14 -4.83301 -25.833 -14.5 -35.5s-21.5 -14.5 -35.5 -14.5s-25.667 4.66699 -35 14s-14 21.333 -14 36c0 14 4.66699 25.667 14 35s21 14 35 14z" />
    <glyph glyph-name="ntilde" unicode="&#xf1;" horiz-adv-x="467" 
d="M390 373c4.66699 -18 6.99707 -36.668 6.99707 -56.001c0 -32 -12 -81.667 -36 -149s-36 -114.333 -36 -141c0 -10 7.66699 -15 23 -15c5.33301 0 14.833 3.83301 28.5 11.5s28 26.167 43 55.5l42.5 85c-24.667 -64 -42.5 -104.333 -53.5 -121
s-24.333 -28.334 -40 -35.001s-27.167 -10 -34.5 -10c-26.667 0 -42.834 8 -48.501 24s-9.5 30.333 -11.5 43s-3 24 -3 34c0 34 12.333 81 37 141s37 104.667 37 134c0 9.33301 -0.333008 16.333 -1 21s-3.16699 8.16699 -7.5 10.5s-10.166 3.5 -17.499 3.5
c-16.667 0 -32.667 -11.5 -48 -34.5s-32.333 -54.833 -51 -95.5s-35.167 -81.334 -49.5 -122.001l-53.5 -157h-68c8 30 22.333 76.333 43 139s35.334 111.334 44.001 146.001s13 68.667 13 102c0 2.66699 -1.66699 5.5 -5 8.5s-8.66602 4.5 -15.999 4.5
c-6 0 -17.833 -8.16699 -35.5 -24.5s-31.667 -33.666 -42 -51.999s-23.166 -51.833 -38.499 -100.5c9.33301 50 20 88.333 32 115s28.167 45.834 48.5 57.501s33.166 17.5 38.499 17.5c12.667 0 25 -5 37 -15s18 -22 18 -36c0 -20.667 0.5 -37.334 1.5 -50.001
s3.5 -25.667 7.5 -39c18.667 41.333 36.167 76.333 52.5 105s39.833 43 70.5 43c16.667 0 31.834 -4.16699 45.501 -12.5s22.5 -20.166 26.5 -35.499zM57.9971 471.999c0 37.333 9.83398 67.4971 29.501 90.4971s45.5 34.5 77.5 34.5c14.667 0 38 -12.667 70 -38
s57.333 -36.666 76 -33.999c24 2.66699 43.167 8.33398 57.5 17.001s29.166 23.667 44.499 45c-10.667 -39.333 -22.5 -69.166 -35.5 -89.499s-28.5 -32.5 -46.5 -36.5s-28.333 -6 -31 -6c-16 0 -38.5 14 -67.5 42s-53.167 42 -72.5 42c-24.667 0 -43 -3.83301 -55 -11.5
s-27.667 -26.167 -47 -55.5z" />
    <glyph glyph-name="ograve" unicode="&#xf2;" horiz-adv-x="368" 
d="M349 360c17.333 -34 26.002 -68.667 26.002 -104c0 -24.667 -4.33301 -49.334 -13 -74.001s-23.667 -52 -45 -82s-46 -55.167 -74 -75.5s-61 -30.5 -99 -30.5c-48 4 -81.167 24 -99.5 60s-27.5 72.333 -27.5 109c0 21.333 2.33301 41.333 7 60s16.5 44 35.5 76
s43.833 60.667 74.5 86s65.667 38 105 38c13.333 0 31.166 -2.66699 53.499 -8s41.166 -23.666 56.499 -54.999zM243.002 409c-44.667 -14 -79.999 -52.3311 -105.999 -114.998l-36.5 -99.5c-7.66699 -20.333 -13.667 -38.833 -18 -55.5s-6.5 -32.667 -6.5 -48
c0 -17.333 2.83301 -32 8.5 -44s14.167 -21.5 25.5 -28.5s22.666 -10.5 33.999 -10.5c12 0 24 2.66699 36 8s28.333 24.166 49 56.499s40.167 69.333 58.5 111s27.5 82.5 27.5 122.5c0 21.333 -2.33301 40.166 -7 56.499s-12 28.5 -22 36.5s-20.333 12 -31 12
c-2.66699 0 -6.66699 -0.666992 -12 -2zM133.003 552.002c-2 4 -3.33301 10 -4 18s-1 13 -1 15c0 13.333 0.5 23.833 1.5 31.5s2.16699 13.5 3.5 17.5c-4 -7.33301 13.333 -25 52 -53l118 -83z" />
    <glyph glyph-name="oacute" unicode="&#xf3;" horiz-adv-x="373" 
d="M349 360c17.333 -34 26.002 -68.667 26.002 -104c0 -24.667 -4.33301 -49.334 -13 -74.001s-23.667 -52 -45 -82s-46 -55.167 -74 -75.5s-61 -30.5 -99 -30.5c-48 4 -81.167 24 -99.5 60s-27.5 72.333 -27.5 109c0 21.333 2.33301 41.333 7 60s16.5 44 35.5 76
s43.833 60.667 74.5 86s65.667 38 105 38c13.333 0 31.166 -2.66699 53.499 -8s41.166 -23.666 56.499 -54.999zM243.002 409c-44.667 -14 -79.999 -52.3311 -105.999 -114.998l-36.5 -99.5c-7.66699 -20.333 -13.667 -38.833 -18 -55.5s-6.5 -32.667 -6.5 -48
c0 -17.333 2.83301 -32 8.5 -44s14.167 -21.5 25.5 -28.5s22.666 -10.5 33.999 -10.5c12 0 24 2.66699 36 8s28.333 24.166 49 56.499s40.167 69.333 58.5 111s27.5 82.5 27.5 122.5c0 21.333 -2.33301 40.166 -7 56.499s-12 28.5 -22 36.5s-20.333 12 -31 12
c-2.66699 0 -6.66699 -0.666992 -12 -2zM146.003 498.002l117.5 82.502c39 28.333 56.5 46.166 52.5 53.499c1.33301 -6.66699 2.5 -15 3.5 -25s1.5 -18.333 1.5 -25c0 -14.667 -1.66699 -25.334 -5 -32.001z" />
    <glyph glyph-name="ocircumflex" unicode="&#xf4;" horiz-adv-x="379" 
d="M349 360c17.333 -34 26.002 -68.667 26.002 -104c0 -24.667 -4.33301 -49.334 -13 -74.001s-23.667 -52 -45 -82s-46 -55.167 -74 -75.5s-61 -30.5 -99 -30.5c-48 4 -81.167 24 -99.5 60s-27.5 72.333 -27.5 109c0 21.333 2.33301 41.333 7 60s16.5 44 35.5 76
s43.833 60.667 74.5 86s65.667 38 105 38c13.333 0 31.166 -2.66699 53.499 -8s41.166 -23.666 56.499 -54.999zM243.002 409c-44.667 -14 -79.999 -52.3311 -105.999 -114.998l-36.5 -99.5c-7.66699 -20.333 -13.667 -38.833 -18 -55.5s-6.5 -32.667 -6.5 -48
c0 -17.333 2.83301 -32 8.5 -44s14.167 -21.5 25.5 -28.5s22.666 -10.5 33.999 -10.5c12 0 24 2.66699 36 8s28.333 24.166 49 56.499s40.167 69.333 58.5 111s27.5 82.5 27.5 122.5c0 21.333 -2.33301 40.166 -7 56.499s-12 28.5 -22 36.5s-20.333 12 -31 12
c-2.66699 0 -6.66699 -0.666992 -12 -2zM107.003 491.002l140 146l127 -146h-82l-74 92l-87 -92h-24z" />
    <glyph glyph-name="otilde" unicode="&#xf5;" horiz-adv-x="379" 
d="M349 360c17.333 -34 26.002 -68.667 26.002 -104c0 -24.667 -4.33301 -49.334 -13 -74.001s-23.667 -52 -45 -82s-46 -55.167 -74 -75.5s-61 -30.5 -99 -30.5c-48 4 -81.167 24 -99.5 60s-27.5 72.333 -27.5 109c0 21.333 2.33301 41.333 7 60s16.5 44 35.5 76
s43.833 60.667 74.5 86s65.667 38 105 38c13.333 0 31.166 -2.66699 53.499 -8s41.166 -23.666 56.499 -54.999zM243.002 409c-44.667 -14 -79.999 -52.3311 -105.999 -114.998l-36.5 -99.5c-7.66699 -20.333 -13.667 -38.833 -18 -55.5s-6.5 -32.667 -6.5 -48
c0 -17.333 2.83301 -32 8.5 -44s14.167 -21.5 25.5 -28.5s22.666 -10.5 33.999 -10.5c12 0 24 2.66699 36 8s28.333 24.166 49 56.499s40.167 69.333 58.5 111s27.5 82.5 27.5 122.5c0 21.333 -2.33301 40.166 -7 56.499s-12 28.5 -22 36.5s-20.333 12 -31 12
c-2.66699 0 -6.66699 -0.666992 -12 -2zM69.0029 472.002c0 37.333 9.83398 67.4971 29.501 90.4971s45.5 34.5 77.5 34.5c14.667 0 38 -12.667 70 -38s57.333 -36.666 76 -33.999c24 2.66699 43.167 8.33398 57.5 17.001s29.166 23.667 44.499 45
c-10.667 -39.333 -22.5 -69.166 -35.5 -89.499s-28.5 -32.5 -46.5 -36.5s-28.333 -6 -31 -6c-16 0 -38.5 14 -67.5 42s-53.167 42 -72.5 42c-24.667 0 -43 -3.83301 -55 -11.5s-27.667 -26.167 -47 -55.5z" />
    <glyph glyph-name="odieresis" unicode="&#xf6;" horiz-adv-x="373" 
d="M349 360c17.333 -34 26.002 -68.667 26.002 -104c0 -24.667 -4.33301 -49.334 -13 -74.001s-23.667 -52 -45 -82s-46 -55.167 -74 -75.5s-61 -30.5 -99 -30.5c-48 4 -81.167 24 -99.5 60s-27.5 72.333 -27.5 109c0 21.333 2.33301 41.333 7 60s16.5 44 35.5 76
s43.833 60.667 74.5 86s65.667 38 105 38c13.333 0 31.166 -2.66699 53.499 -8s41.166 -23.666 56.499 -54.999zM243.002 409c-44.667 -14 -79.999 -52.3311 -105.999 -114.998l-36.5 -99.5c-7.66699 -20.333 -13.667 -38.833 -18 -55.5s-6.5 -32.667 -6.5 -48
c0 -17.333 2.83301 -32 8.5 -44s14.167 -21.5 25.5 -28.5s22.666 -10.5 33.999 -10.5c12 0 24 2.66699 36 8s28.333 24.166 49 56.499s40.167 69.333 58.5 111s27.5 82.5 27.5 122.5c0 21.333 -2.33301 40.166 -7 56.499s-12 28.5 -22 36.5s-20.333 12 -31 12
c-2.66699 0 -6.66699 -0.666992 -12 -2zM201.003 601.002c13.333 0 25 -4.66699 35 -14s15 -21 15 -35c0 -13.333 -5 -25 -15 -35s-21.667 -15 -35 -15c-14 0 -25.833 4.83301 -35.5 14.5s-14.5 21.5 -14.5 35.5s4.66699 25.667 14 35s21.333 14 36 14zM351.003 601.002
c14 0 25.833 -4.83301 35.5 -14.5s14.5 -21.167 14.5 -34.5c0 -14 -4.83301 -25.833 -14.5 -35.5s-21.5 -14.5 -35.5 -14.5s-25.667 4.66699 -35 14s-14 21.333 -14 36c0 14 4.66699 25.667 14 35s21 14 35 14z" />
    <glyph glyph-name="oslash" unicode="&#xf8;" horiz-adv-x="373" 
d="M349 360c17.333 -34 26.002 -68.667 26.002 -104c0 -24.667 -4.33301 -49.334 -13 -74.001s-23.667 -52 -45 -82s-46 -55.167 -74 -75.5s-61 -30.5 -99 -30.5c-48 4 -81.167 24 -99.5 60s-27.5 72.333 -27.5 109c0 21.333 2.33301 41.333 7 60s16.5 44 35.5 76
s43.833 60.667 74.5 86s65.667 38 105 38c13.333 0 31.166 -2.66699 53.499 -8s41.166 -23.666 56.499 -54.999zM243.002 409c-44.667 -14 -79.999 -52.3311 -105.999 -114.998l-36.5 -99.5c-7.66699 -20.333 -13.667 -38.833 -18 -55.5s-6.5 -32.667 -6.5 -48
c0 -17.333 2.83301 -32 8.5 -44s14.167 -21.5 25.5 -28.5s22.666 -10.5 33.999 -10.5c12 0 24 2.66699 36 8s28.333 24.166 49 56.499s40.167 69.333 58.5 111s27.5 82.5 27.5 122.5c0 21.333 -2.33301 40.166 -7 56.499s-12 28.5 -22 36.5s-20.333 12 -31 12
c-2.66699 0 -6.66699 -0.666992 -12 -2zM378.003 663.002l-97.999 -274.5l-111.5 -311.5l-82.5 -221c-3.33301 -2 -6.83301 -3.33301 -10.5 -4s-7.83398 -1 -12.501 -1c-10 0.666992 -17.667 1 -23 1l294 807c4.66699 2.66699 12.667 4 24 4h20z" />
    <glyph glyph-name="ugrave" unicode="&#xf9;" horiz-adv-x="484" 
d="M444 425l-107.997 -378.997c-0.666992 -7.33301 2.33301 -13.666 9 -18.999s14.334 -8 23.001 -8c4 0 12.167 3.66699 24.5 11s26.5 27 42.5 59l37 83h14c-30 -70.667 -50.833 -116.167 -62.5 -136.5s-33.167 -30.5 -64.5 -30.5c-20.667 0 -34.5 3.83301 -41.5 11.5
s-12.167 18.167 -15.5 31.5s-5.33301 26.833 -6 40.5s-1 25.5 -1 35.5v16v8c-4.66699 -4.66699 -22 -30.834 -52 -78.501s-57.667 -71.5 -83 -71.5c-3.33301 0 -12 1.66699 -26 5s-26.333 14.5 -37 33.5s-16 41.167 -16 66.5c0 8 0.833008 21 2.5 39s14.667 60.167 39 126.5
s37.5 105.5 39.5 117.5c2 5.33301 0.833008 9.83301 -3.5 13.5s-7.5 6.16699 -9.5 7.5c-33.333 -10 -61 -36 -83 -78s-36.333 -67 -43 -75h-9c22.667 48 45 87.833 67 119.5s45.667 47.5 71 47.5c6 0 14.667 -2.16699 26 -6.5s19.666 -13.333 24.999 -27s8 -31.5 8 -53.5
c0 -19.333 -12.833 -60.833 -38.5 -124.5s-38.5 -112.5 -38.5 -146.5c0 -10.667 0.666992 -21.167 2 -31.5s8.66602 -15.5 21.999 -15.5c17.333 0 32.166 8.33301 44.499 25s25.5 36.667 39.5 60s29 51.666 45 84.999s30.333 68.666 43 105.999s25 79.666 37 126.999
c3.33301 1.33301 9 2 17 2c5.33301 0 11 -0.333008 17 -1l18 -2c9.33301 0 17.666 2.33301 24.999 7zM197.003 552.003c-2 4 -3.33301 10 -4 18s-1 13 -1 15c0 13.333 0.5 23.833 1.5 31.5s2.16699 13.5 3.5 17.5c-4 -7.33301 13.333 -25 52 -53l118 -83z" />
    <glyph glyph-name="uacute" unicode="&#xfa;" horiz-adv-x="833" 
d="M444 425l-107.997 -378.997c-0.666992 -7.33301 2.33301 -13.666 9 -18.999s14.334 -8 23.001 -8c4 0 12.167 3.66699 24.5 11s26.5 27 42.5 59l37 83h14c-30 -70.667 -50.833 -116.167 -62.5 -136.5s-33.167 -30.5 -64.5 -30.5c-20.667 0 -34.5 3.83301 -41.5 11.5
s-12.167 18.167 -15.5 31.5s-5.33301 26.833 -6 40.5s-1 25.5 -1 35.5v16v8c-4.66699 -4.66699 -22 -30.834 -52 -78.501s-57.667 -71.5 -83 -71.5c-3.33301 0 -12 1.66699 -26 5s-26.333 14.5 -37 33.5s-16 41.167 -16 66.5c0 8 0.833008 21 2.5 39s14.667 60.167 39 126.5
s37.5 105.5 39.5 117.5c2 5.33301 0.833008 9.83301 -3.5 13.5s-7.5 6.16699 -9.5 7.5c-33.333 -10 -61 -36 -83 -78s-36.333 -67 -43 -75h-9c22.667 48 45 87.833 67 119.5s45.667 47.5 71 47.5c6 0 14.667 -2.16699 26 -6.5s19.666 -13.333 24.999 -27s8 -31.5 8 -53.5
c0 -19.333 -12.833 -60.833 -38.5 -124.5s-38.5 -112.5 -38.5 -146.5c0 -10.667 0.666992 -21.167 2 -31.5s8.66602 -15.5 21.999 -15.5c17.333 0 32.166 8.33301 44.499 25s25.5 36.667 39.5 60s29 51.666 45 84.999s30.333 68.666 43 105.999s25 79.666 37 126.999
c3.33301 1.33301 9 2 17 2c5.33301 0 11 -0.333008 17 -1l18 -2c9.33301 0 17.666 2.33301 24.999 7z" />
    <glyph glyph-name="ucircumflex" unicode="&#xfb;" horiz-adv-x="484" 
d="M444 425l-107.997 -378.997c-0.666992 -7.33301 2.33301 -13.666 9 -18.999s14.334 -8 23.001 -8c4 0 12.167 3.66699 24.5 11s26.5 27 42.5 59l37 83h14c-30 -70.667 -50.833 -116.167 -62.5 -136.5s-33.167 -30.5 -64.5 -30.5c-20.667 0 -34.5 3.83301 -41.5 11.5
s-12.167 18.167 -15.5 31.5s-5.33301 26.833 -6 40.5s-1 25.5 -1 35.5v16v8c-4.66699 -4.66699 -22 -30.834 -52 -78.501s-57.667 -71.5 -83 -71.5c-3.33301 0 -12 1.66699 -26 5s-26.333 14.5 -37 33.5s-16 41.167 -16 66.5c0 8 0.833008 21 2.5 39s14.667 60.167 39 126.5
s37.5 105.5 39.5 117.5c2 5.33301 0.833008 9.83301 -3.5 13.5s-7.5 6.16699 -9.5 7.5c-33.333 -10 -61 -36 -83 -78s-36.333 -67 -43 -75h-9c22.667 48 45 87.833 67 119.5s45.667 47.5 71 47.5c6 0 14.667 -2.16699 26 -6.5s19.666 -13.333 24.999 -27s8 -31.5 8 -53.5
c0 -19.333 -12.833 -60.833 -38.5 -124.5s-38.5 -112.5 -38.5 -146.5c0 -10.667 0.666992 -21.167 2 -31.5s8.66602 -15.5 21.999 -15.5c17.333 0 32.166 8.33301 44.499 25s25.5 36.667 39.5 60s29 51.666 45 84.999s30.333 68.666 43 105.999s25 79.666 37 126.999
c3.33301 1.33301 9 2 17 2c5.33301 0 11 -0.333008 17 -1l18 -2c9.33301 0 17.666 2.33301 24.999 7zM165.003 491.003l140 146l127 -146h-82l-74 92l-87 -92h-24z" />
    <glyph glyph-name="udieresis" unicode="&#xfc;" horiz-adv-x="484" 
d="M444 425l-107.997 -378.997c-0.666992 -7.33301 2.33301 -13.666 9 -18.999s14.334 -8 23.001 -8c4 0 12.167 3.66699 24.5 11s26.5 27 42.5 59l37 83h14c-30 -70.667 -50.833 -116.167 -62.5 -136.5s-33.167 -30.5 -64.5 -30.5c-20.667 0 -34.5 3.83301 -41.5 11.5
s-12.167 18.167 -15.5 31.5s-5.33301 26.833 -6 40.5s-1 25.5 -1 35.5v16v8c-4.66699 -4.66699 -22 -30.834 -52 -78.501s-57.667 -71.5 -83 -71.5c-3.33301 0 -12 1.66699 -26 5s-26.333 14.5 -37 33.5s-16 41.167 -16 66.5c0 8 0.833008 21 2.5 39s14.667 60.167 39 126.5
s37.5 105.5 39.5 117.5c2 5.33301 0.833008 9.83301 -3.5 13.5s-7.5 6.16699 -9.5 7.5c-33.333 -10 -61 -36 -83 -78s-36.333 -67 -43 -75h-9c22.667 48 45 87.833 67 119.5s45.667 47.5 71 47.5c6 0 14.667 -2.16699 26 -6.5s19.666 -13.333 24.999 -27s8 -31.5 8 -53.5
c0 -19.333 -12.833 -60.833 -38.5 -124.5s-38.5 -112.5 -38.5 -146.5c0 -10.667 0.666992 -21.167 2 -31.5s8.66602 -15.5 21.999 -15.5c17.333 0 32.166 8.33301 44.499 25s25.5 36.667 39.5 60s29 51.666 45 84.999s30.333 68.666 43 105.999s25 79.666 37 126.999
c3.33301 1.33301 9 2 17 2c5.33301 0 11 -0.333008 17 -1l18 -2c9.33301 0 17.666 2.33301 24.999 7zM183.003 601.003c13.333 0 25 -4.66699 35 -14s15 -21 15 -35c0 -13.333 -5 -25 -15 -35s-21.667 -15 -35 -15c-14 0 -25.833 4.83301 -35.5 14.5s-14.5 21.5 -14.5 35.5
s4.66699 25.667 14 35s21.333 14 36 14zM333.003 601.003c14 0 25.833 -4.83301 35.5 -14.5s14.5 -21.167 14.5 -34.5c0 -14 -4.83301 -25.833 -14.5 -35.5s-21.5 -14.5 -35.5 -14.5s-25.667 4.66699 -35 14s-14 21.333 -14 36c0 14 4.66699 25.667 14 35s21 14 35 14z" />
    <glyph glyph-name="ydieresis" unicode="&#xff;" horiz-adv-x="449" 
d="M447 419l-139.998 -466c-12 -38.667 -39.167 -68.167 -81.5 -88.5s-92.833 -30.5 -151.5 -30.5c-22.667 0 -41.5 3.5 -56.5 10.5s-23.833 19.5 -26.5 37.5c-2 14 0.166992 26.5 6.5 37.5s15.166 20 26.499 27s21.333 10.5 30 10.5c16.667 0 29.334 -11.333 38.001 -34
c2.66699 -7.33301 -1 -19.166 -11 -35.499s-15 -26.5 -15 -30.5c0 -8 4.5 -12.333 13.5 -13s17.5 -1 25.5 -1c28 0 53.5 6.66699 76.5 20s38.833 34.5 47.5 63.5l32.5 106.5c13 42 22.167 74.667 27.5 98c-28.667 -39.333 -54.334 -72.666 -77.001 -99.999s-47 -41 -73 -41
c-8.66699 0 -19 2.16699 -31 6.5s-22 14.333 -30 30s-12 34.167 -12 55.5v15c0 35.333 16 84.666 48 147.999s48 108.666 48 135.999v12c0 9.33301 -7 14 -21 14c-12.667 0 -25.5 -6 -38.5 -18s-28.5 -32.167 -46.5 -60.5l-51 -81.5c6.66699 36 21.667 71.333 45 106
s43.5 54.5 60.5 59.5s28.5 7.5 34.5 7.5c12 0 23 -3.66699 33 -11s16.833 -15.833 20.5 -25.5s6.66699 -19.334 9 -29.001s3.5 -21.167 3.5 -34.5c0 -34 -15 -79.667 -45 -137s-45 -101.666 -45 -132.999c0 -14 1.5 -26 4.5 -36s8.83301 -15 17.5 -15
c10 0 26 10.167 48 30.5s45.5 51.833 70.5 94.5s45.667 86.667 62 132s34.166 100.333 53.499 165h15c9.33301 0 18.833 -0.166992 28.5 -0.5s18.5 -0.833008 26.5 -1.5zM224.002 601c13.333 0 25 -4.66699 35 -14s15 -21 15 -35c0 -13.333 -5 -25 -15 -35
s-21.667 -15 -35 -15c-14 0 -25.833 4.83301 -35.5 14.5s-14.5 21.5 -14.5 35.5s4.66699 25.667 14 35s21.333 14 36 14zM374.002 601c14 0 25.833 -4.83301 35.5 -14.5s14.5 -21.167 14.5 -34.5c0 -14 -4.83301 -25.833 -14.5 -35.5s-21.5 -14.5 -35.5 -14.5
s-25.667 4.66699 -35 14s-14 21.333 -14 36c0 14 4.66699 25.667 14 35s21 14 35 14z" />
    <glyph glyph-name="OE" unicode="&#x152;" horiz-adv-x="833" 
d="M522 345c4 -1.33301 8.66602 -2.00195 13.999 -2.00195c19.333 0 41.833 5 67.5 15s43.5 21.667 53.5 35l35 48.5c13.333 19 22.666 39.5 27.999 61.5h7l-46.5 -174.5c-13.667 -49 -29.834 -103.833 -48.501 -164.5h-9c3.33301 18 6 33.333 8 46s3 24.334 3 35.001
c0 18.667 -3.16699 33.667 -9.5 45s-17.666 21 -33.999 29s-32.5 12 -48.5 12c-8.66699 0 -17 -1.66699 -25 -5c-3.33301 -15.333 -13.166 -50.333 -29.499 -105l-37.5 -126c-8.66699 -29.333 -13 -45 -13 -47c0 -13.333 7.66699 -22.833 23 -28.5s35 -8.5 59 -8.5
c16.667 0 31.334 0.666992 44.001 2s32.834 3.16602 60.501 5.49902s60.167 29.166 97.5 80.499l91 162c2.66699 0 4 -4.66699 4 -14c0 -32 -9.33301 -81.167 -28 -147.5s-34 -99.5 -46 -99.5h-508l-1 3l-36 -3c-30 0 -57 9.83301 -81 29.5s-42.5 48 -55.5 85
s-19.5 79.167 -19.5 126.5c0 66 14.833 130 44.5 192s66 110.167 109 144.5s76.167 55.333 99.5 63s60.333 11.5 111 11.5h96h145h164.5c53.667 0 82.667 -0.5 87 -1.5s6.5 -8.16699 6.5 -21.5c0 -32 -9.66699 -80.667 -29 -146s-33.333 -97.333 -42 -96
c2 10.667 3.83301 23.334 5.5 38.001s2.5 32 2.5 52c0 27.333 -2.33301 51.333 -7 72s-13.334 37.334 -26.001 50.001s-27.834 21.334 -45.501 26.001s-37.834 7 -60.501 7c-15.333 0 -30.166 -0.333008 -44.499 -1l-42.5 -2c-9.33301 0 -16.666 -3 -21.999 -9
s-11.833 -24.667 -19.5 -56l-31.5 -127.5c-13.333 -53.667 -20 -84.167 -20 -91.5zM416.999 311.998c14 37.333 24.334 67.1689 31.001 89.502s11.5 44.833 14.5 67.5s4.5 39 4.5 49c0 16 -1.16699 26.833 -3.5 32.5s-14.5 25.834 -36.5 60.501c-14 20 -33.667 30 -59 30
c-12 0 -32 -8 -60 -24s-51.667 -39.667 -71 -71s-46.333 -93.5 -81 -186.5s-52 -158.5 -52 -196.5c0 -24.667 3.5 -47.667 10.5 -69s17.333 -40 31 -56s30.5 -24 50.5 -24c8 0 15.333 0.833008 22 2.5s19.167 7.16699 37.5 16.5s37.666 28.166 57.999 56.499
s37 57.666 50 87.999s30.833 75.166 53.5 134.499z" />
    <glyph glyph-name="oe" unicode="&#x153;" horiz-adv-x="613" 
d="M501 402c-29.333 -10 -53.666 -33.499 -72.999 -70.499s-37 -81.833 -53 -134.5c57.333 5.33301 104.333 30.666 141 75.999c14 20 23.167 35.167 27.5 45.5s6.5 20.833 6.5 31.5c0 11.333 -2.33301 21.5 -7 30.5s-8.83398 15.333 -12.501 19s-9.5 5.5 -17.5 5.5
c-4 0 -8 -1 -12 -3zM287 182.001c2.66699 6.66699 5.83203 15.1709 9.49902 25.5039s6.66699 20.333 9 30s4.5 21 6.5 34s3 25.5 3 37.5c0 19.333 -2.33301 37.166 -7 53.499s-12 28.5 -22 36.5s-20.333 12 -31 12c-2.66699 0 -16.5 -3.83301 -41.5 -11.5
s-50.5 -42.834 -76.5 -105.501l-36.5 -99.5c-7.66699 -20.333 -13.667 -38.833 -18 -55.5s-6.5 -32.667 -6.5 -48c0 -17.333 2.83301 -32 8.5 -44s14.167 -21.5 25.5 -28.5s22.666 -10.5 33.999 -10.5c12 0 24 2.66699 36 8s23.333 16.166 34 32.499
s22.834 36.666 36.501 60.999s25.834 48.5 36.501 72.5zM361.998 327.005c34.667 40.667 66.5029 66.835 95.5029 78.502s47.833 17.5 56.5 17.5c9.33301 0 18.166 -1.83301 26.499 -5.5s20.5 -11.834 36.5 -24.501s24 -32.334 24 -59.001
c0 -9.33301 -5.16699 -26 -15.5 -50s-34.5 -44.333 -72.5 -61s-86.667 -31 -146 -43l-10.5 -52c-3.66699 -18.667 -5.5 -34 -5.5 -46c0 -20 2.66699 -35.833 8 -47.5s11.666 -19.334 18.999 -23.001s16.666 -5.5 27.999 -5.5c8 0 16 1 24 3
c32 10.667 61.333 30.834 88 60.501s48 62.167 64 97.5h5c-7.33301 -35.333 -23.833 -67.666 -49.5 -96.999s-51 -49.5 -76 -60.5s-43.167 -16.5 -54.5 -16.5c-14 0 -27 2.83301 -39 8.5s-22.667 13.167 -32 22.5s-16.833 18.166 -22.5 26.499s-10.834 16.833 -15.501 25.5
c-22.667 -28 -45.667 -48.667 -69 -62s-51.666 -20 -84.999 -20c-48 4 -81.167 24 -99.5 60s-27.5 72.333 -27.5 109c0 21.333 2.33301 41.333 7 60s16.5 44 35.5 76s43.833 60.667 74.5 86s65.667 38 105 38c13.333 0 31.166 -2.66699 53.499 -8s37.833 -17 46.5 -35
s14.334 -30 17.001 -36s4.66699 -11.667 6 -17z" />
    <glyph glyph-name="Ydieresis" unicode="&#x178;" 
d="M657 636h-23.999c-16.667 0 -33.167 -3.83301 -49.5 -11.5s-33.5 -23.5 -51.5 -47.5l-228 -306l-56 -232c-2 -10.667 3.16699 -18 15.5 -22s28.166 -6 47.499 -6h19.5c5.66699 0 10.834 0.333008 15.501 1c0 -2.66699 0.166992 -4.83398 0.5 -6.50098
s0.166016 -3.83398 -0.500977 -6.50098h-294c-0.666992 4 -1 7.16699 -1 9.5s0.333008 3.5 1 3.5c36.667 0 64.667 4.16699 84 12.5s31.666 23.833 36.999 46.5l58 221l-109 314c-4 12 -11.667 20.167 -23 24.5s-23.666 6.5 -36.999 6.5
c-11.333 -0.666992 -18.333 -1 -21 -1c-0.666992 2 -1.16699 3.83301 -1.5 5.5s0.5 4.16699 2.5 7.5l267 1c3.33301 -3.33301 5 -6.66602 5 -9.99902s-1.33301 -5.33301 -4 -6h-19.5h-24.5c-18 0 -32 -1.16699 -42 -3.5s-13.667 -7.5 -11 -15.5l100 -289l172 233
c12.667 17.333 19 32 19 44c0 12.667 -6.5 21 -19.5 25s-29.833 6 -50.5 6h-37c-2 0.666992 -2.66699 2.33398 -2 5.00098l2 8l259 1c1.33301 -2.66699 2.33301 -5.16699 3 -7.5s0 -3.83301 -2 -4.5zM300.001 787c13.333 0 25 -4.66699 35 -14s15 -21 15 -35
c0 -13.333 -5 -25 -15 -35s-21.667 -15 -35 -15c-14 0 -25.833 4.83301 -35.5 14.5s-14.5 21.5 -14.5 35.5s4.66699 25.667 14 35s21.333 14 36 14zM450.001 787c14 0 25.833 -4.83301 35.5 -14.5s14.5 -21.167 14.5 -34.5c0 -14 -4.83301 -25.833 -14.5 -35.5
s-21.5 -14.5 -35.5 -14.5s-25.667 4.66699 -35 14s-14 21.333 -14 36c0 14 4.66699 25.667 14 35s21 14 35 14z" />
    <glyph glyph-name="endash" unicode="&#x2013;" horiz-adv-x="395" 
d="M340 313l-307.002 -6.00098c6 9.33301 10.5 19.833 13.5 31.5s5.5 22.834 7.5 33.501h306c-7.33301 -6 -12.166 -14.667 -14.499 -26s-4.16602 -22.333 -5.49902 -33z" />
    <glyph glyph-name="emdash" unicode="&#x2014;" 
d="M462 313l-416 -6c6 8.66699 10.5 19 13.5 31s5.5 23.333 7.5 34h415c-6.66699 -6 -11.167 -14.667 -13.5 -26s-4.5 -22.333 -6.5 -33z" />
    <glyph glyph-name="quoteleft" unicode="&#x2018;" horiz-adv-x="205" 
d="M297 617c1.33301 -8 2.00098 -13.668 2.00098 -17.001c0 -20.667 -5.66699 -33 -17 -37s-18.333 -6 -21 -6c-6 0 -15 2 -27 6s-20.667 6 -26 6c-11.333 0 -18 -4.83301 -20 -14.5s-3 -16.834 -3 -21.501v-11c0 -16.667 1.16699 -31.167 3.5 -43.5
s10.166 -42.833 23.499 -91.5c-4.66699 -4 -9.16699 -2.16699 -13.5 5.5s-7.16602 11.834 -8.49902 12.501c-15.333 36 -23 73.333 -23 112c0 40.667 7.5 72.334 22.5 95.001s35.5 34 61.5 34c11.333 0 21.166 -2.5 29.499 -7.5s13.833 -12.167 16.5 -21.5z" />
    <glyph glyph-name="quoteright" unicode="&#x2019;" horiz-adv-x="242" 
d="M302 725c2.66699 -10 3.99902 -20.3291 3.99902 -30.9961c0 -30.667 -10.5 -57.667 -31.5 -81s-49.167 -47 -84.5 -71c-2.66699 2 -5.83398 1.66699 -9.50098 -1s-6.5 -2.33398 -8.5 0.999023c2.66699 3.33301 18.834 17.166 48.501 41.499s44.5 45.5 44.5 63.5
c0 5.33301 -1.66699 12 -5 20c-15.333 4 -28.166 9.33301 -38.499 16s-15.5 16 -15.5 28c0 13.333 2.5 24.666 7.5 33.999s11.667 15.166 20 17.499s13.833 3.5 16.5 3.5c12 0 23 -4 33 -12s16.333 -17.667 19 -29z" />
    <glyph glyph-name="quotesinglbase" unicode="&#x201a;" horiz-adv-x="242" 
d="M167 194c2.66699 -10 4.00098 -20.665 4.00098 -31.998c0 -31.333 -9.83301 -58 -29.5 -80s-48.167 -45.333 -85.5 -70c-2.66699 1.33301 -5.83398 0.833008 -9.50098 -1.5s-6.5 -1.83301 -8.5 1.5c2 2 18 15.333 48 40s45 46 45 64c0 6 -1.66699 13 -5 21
c-19.333 4.66699 -33.166 10.5 -41.499 17.5s-12.5 15.5 -12.5 25.5c0 13.333 2.5 24.666 7.5 33.999s11.667 15.166 20 17.499s14.166 3.5 17.499 3.5c12 0 22.833 -4 32.5 -12s15.5 -17.667 17.5 -29z" />
    <glyph glyph-name="quotedblleft" unicode="&#x201c;" horiz-adv-x="348" 
d="M253 617c1.33301 -8 2.00098 -13.666 2.00098 -16.999c0 -20.667 -5.5 -33 -16.5 -37s-17.833 -6 -20.5 -6c-6 0 -15 2 -27 6s-20.667 6 -26 6c-12 0 -19 -5 -21 -15s-3 -19 -3 -27c0 -24.667 3.33301 -49.834 10 -75.501l17 -64.5c-4 -4 -8 -2.33301 -12 5
s-7 11.666 -9 12.999c-15.333 36 -23 73.333 -23 112c0 40.667 7.5 72.334 22.5 95.001s35.5 34 61.5 34c11.333 0 21.166 -2.5 29.499 -7.5s13.5 -12.167 15.5 -21.5zM405.001 617.001c1.33301 -8 2.00098 -13.668 2.00098 -17.001c0 -20.667 -5.5 -33 -16.5 -37
s-17.833 -6 -20.5 -6c-6 0 -15 2 -27 6s-20.667 6 -26 6c-12 0 -19 -5 -21 -15s-3 -19.667 -3 -29c0 -24.667 3.33301 -49.667 10 -75l17 -63c-4.66699 -4 -9.16699 -2.33301 -13.5 5s-7.16602 11.666 -8.49902 12.999c-8 18.667 -13.833 37.167 -17.5 55.5
s-5.5 37.5 -5.5 57.5c0 19.333 2.16699 37.333 6.5 54s10.166 30.834 17.499 42.501s16.5 19.834 27.5 24.501s22.167 7 33.5 7s21.166 -2.5 29.499 -7.5s13.5 -12.167 15.5 -21.5z" />
    <glyph glyph-name="quotedblright" unicode="&#x201d;" horiz-adv-x="358" 
d="M293 725c2.66699 -10.667 3.99805 -21.665 3.99805 -32.998c0 -30.667 -10 -57.167 -30 -79.5s-48.333 -45.833 -85 -70.5c-2.66699 2 -5.83398 1.66699 -9.50098 -1s-6.5 -2.33398 -8.5 0.999023c2.66699 3.33301 18.834 17.166 48.501 41.499s44.5 45.5 44.5 63.5
c0 5.33301 -1.66699 12 -5 20c-14.667 4 -27.5 9.33301 -38.5 16s-16.5 16 -16.5 28c0 28.667 6.83301 45 20.5 49s21.834 6 24.501 6c12 0 22.833 -3.83301 32.5 -11.5s15.834 -17.5 18.501 -29.5zM438.998 725.002c2.66699 -10.667 3.99609 -21.665 3.99609 -32.998
c0 -30 -10.333 -56.333 -31 -79s-49 -46.334 -85 -71.001c-2.66699 2 -5.66699 1.66699 -9 -1s-6 -2.33398 -8 0.999023c2.66699 4 18.834 18 48.501 42s44.5 44.333 44.5 61c0 6.66699 -2 14 -6 22c-15.333 4.66699 -28.166 10.167 -38.499 16.5s-15.5 15.5 -15.5 27.5
c0 28.667 6.83301 45 20.5 49s21.834 6 24.501 6c12 0 22.833 -3.83301 32.5 -11.5s15.834 -17.5 18.501 -29.5z" />
    <glyph glyph-name="quotedblbase" unicode="&#x201e;" horiz-adv-x="358" 
d="M165 188c2.66699 -10 4.00098 -20.667 4.00098 -32c0 -30.667 -10.167 -57.334 -30.5 -80.001s-48.833 -46 -85.5 -70c-2.66699 2 -5.66699 1.66699 -9 -1s-6 -2.33398 -8 0.999023c2 3.33301 18 17 48 41s45 44.667 45 62c0 6.66699 -2 14 -6 22
c-16.667 4.66699 -29.834 9.83398 -39.501 15.501s-14.5 14.834 -14.5 27.501c0 14 2.66699 25.5 8 34.5s12.166 14.667 20.499 17s13.833 3.5 16.5 3.5c12 0 22.833 -3.83301 32.5 -11.5s15.834 -17.5 18.501 -29.5zM311.001 188
c2.66699 -10 4.00098 -20.3291 4.00098 -30.9961c0 -30.667 -10.167 -57.334 -30.5 -80.001s-48.833 -46.334 -85.5 -71.001c-2 2 -5 1.66699 -9 -1s-6.66699 -2.33398 -8 0.999023c3.33301 4.66699 19.666 18.667 48.999 42s44 43.666 44 60.999c0 6.66699 -2 14 -6 22
c-16 4.66699 -29 9.83398 -39 15.501s-15 14.834 -15 27.501c0 13.333 2.5 24.666 7.5 33.999s11.667 15.166 20 17.499s14.166 3.5 17.499 3.5c12 0 22.833 -3.83301 32.5 -11.5s15.834 -17.5 18.501 -29.5z" />
    <glyph glyph-name="bullet" unicode="&#x2022;" horiz-adv-x="413" 
d="M257 442c38.667 0 70.167 -11.833 94.5 -35.5s36.5 -53.834 36.5 -90.501c0 -14 -4.16699 -36.5 -12.5 -67.5s-33.5 -63.167 -75.5 -96.5s-86.333 -50 -133 -50c-38.667 0 -70.167 11.833 -94.5 35.5s-36.5 53.834 -36.5 90.501c0 14 4.16699 36.667 12.5 68
s33.333 63.5 75 96.5s86.167 49.5 133.5 49.5z" />
    <glyph glyph-name="ellipsis" unicode="&#x2026;" horiz-adv-x="589" 
d="M77 78c14 0 26.001 -5 36.001 -15s15 -22 15 -36s-4.83301 -26.167 -14.5 -36.5s-21.834 -15.5 -36.501 -15.5s-27 5 -37 15s-15 22.333 -15 37c0 14 5 26 15 36s22.333 15 37 15zM269.001 78c13.333 0 25.333 -5 36 -15s16 -22 16 -36c0 -14.667 -5 -27 -15 -37
s-22.333 -15 -37 -15c-14 0 -26.167 5.16699 -36.5 15.5s-15.5 22.5 -15.5 36.5s5 26 15 36s22.333 15 37 15zM462.001 78c14 0 26.001 -5 36.001 -15s15 -22 15 -36s-4.83301 -26.167 -14.5 -36.5s-21.834 -15.5 -36.501 -15.5s-27 5 -37 15s-15 22.333 -15 37
c0 14 5 26 15 36s22.333 15 37 15z" />
    <glyph glyph-name="trademark" unicode="&#x2122;" horiz-adv-x="648" 
d="M367 650l-10.499 -43.5c-3.66699 -15 -8.16699 -29.833 -13.5 -44.5c-0.666992 6 -0.666992 11.833 0 17.5l2 17.5c0 11.333 -3 21 -9 29c-10 10.667 -22 16 -36 16l-58 -192c-2 -7.33301 0.333008 -12.5 7 -15.5s17.667 -4.5 33 -4.5l-112 -3l2 3
c11.333 0 20.666 0.833008 27.999 2.5s12.333 7.5 15 17.5l54 189c-4 2 -8 3 -12 3c-6 0 -12.167 -2 -18.5 -6s-13.5 -9.66699 -21.5 -17s-15.5 -17.833 -22.5 -31.5l-14.5 -28.5l23 90zM470.001 645c0 -16.667 0.667969 -39.8301 2.00098 -69.4971s3 -59.5 5 -89.5l95 162
c0.666992 0.666992 4.33398 1 11.001 1h17h26h14v-5c-8.66699 1.33301 -17.167 1.16602 -25.5 -0.500977s-13.5 -6.5 -15.5 -14.5l-52 -188c-1.33301 -4.66699 2 -7.33398 10 -8.00098s15.667 -1 23 -1v-4h-96v4c9.33301 0 17.166 0.666992 23.499 2s10.5 5 12.5 11l52 184
l-120 -200l-10 200l-48 -172c-3.33301 -13.333 -2.5 -20.833 2.5 -22.5s12.833 -2.5 23.5 -2.5v-4h-72c0 1.33301 0.333008 2.66602 1 3.99902c9.33301 0 16.666 2.33301 21.999 7s9.33301 11.667 12 21l49 169c2 8 -0.166992 12.667 -6.5 14s-14.5 2 -24.5 2l1 5l64 -1z
" />
    <glyph glyph-name="fraction" unicode="&#x2215;" horiz-adv-x="790" 
d="M377 585l40.002 8.00684c2 -6 8.5 -11.333 19.5 -16s20.667 -10.834 29 -18.501s17 -18 26 -31s13.5 -27.5 13.5 -43.5c2.66699 -6.66699 4.66699 -16.167 6 -28.5s2 -23.5 2 -33.5h5c12.667 14 22.5 27.833 29.5 41.5s10.5 28.167 10.5 43.5
c0 5.33301 -0.333008 9.33301 -1 12c0 4.66699 3.16699 11.334 9.5 20.001s8.16602 16.334 5.49902 23.001c-5.33301 6.66699 -9.66602 12.5 -12.999 17.5s-3.33301 10.833 0 17.5c6.66699 10 16.334 15 29.001 15c10.667 -4.66699 17 -15.5 19 -32.5
s3.66699 -27.167 5 -30.5c10.667 -4.66699 27.667 -7.83398 51 -9.50098s39 -3.5 47 -5.5c-1.33301 -6.66699 2 -13.667 10 -21s12 -12.333 12 -15c0 -4 -3.66699 -8.33301 -11 -13c-4.66699 0 -10 -3.33301 -16 -10s-12 -10 -18 -10c-8 -2 -16 -3 -24 -3
c-10.667 0 -21.834 1.33301 -33.501 4s-20.834 4.66699 -27.501 6c-10 -31.333 -27.667 -59.833 -53 -85.5l-64 -64.5c3.33301 -7.33301 10 -11.333 20 -12s17.333 -3.33398 22 -8.00098c3.33301 2.66699 12.666 13.334 27.999 32.001s28 28 38 28
c5.33301 0 11.666 -2 18.999 -6l16 -18c4 -4.66699 7 -10 9 -16c17.333 13.333 30.833 23 40.5 29s21.167 9 34.5 9c5.33301 0 11.666 -1 18.999 -3c6 -4 10.833 -9.16699 14.5 -15.5s4.83398 -12.833 3.50098 -19.5c-4.66699 -28.667 -17.334 -54.834 -38.001 -78.501
s-45 -41.834 -73 -54.501c-7.33301 -0.666992 -13.166 0.5 -17.499 3.5s-9.33301 7.66699 -15 14s-8.5 14.166 -8.5 23.499c0.666992 13.333 1 23 1 29c0 10 -3.33301 17.667 -10 23c-1.33301 -4 -7.5 -11.333 -18.5 -22s-15.833 -21 -14.5 -31
c-6.66699 -14 -16.167 -26 -28.5 -36s-25.5 -15 -39.5 -15l-43 -32l2 -5l22 -23.5c8 -8.33301 16.667 -12.5 26 -12.5c2 0 5 0.666992 9 2c4.66699 -2 8.5 -5.16699 11.5 -9.5s5.5 -9.5 7.5 -15.5c1.33301 -14 -3.16699 -25.833 -13.5 -35.5s-23.833 -19.5 -40.5 -29.5
c-12.667 -5.33301 -25.667 -9.5 -39 -12.5s-26 -4.5 -38 -4.5c-22 0 -41.667 5.33301 -59 16c-4.66699 7.33301 -7 14.666 -7 21.999c0 2 0.833008 5.16699 2.5 9.5s3.83398 9.16602 6.50098 14.499c-9.33301 0 -18.833 -0.166992 -28.5 -0.5s-19.167 -0.5 -28.5 -0.5
c-44.667 0 -77 2.16699 -97 6.5s-39.333 11.5 -58 21.5c-4 3.33301 -7.33301 7.16602 -10 11.499l-8 12.5c-0.666992 7.33301 0.833008 13.333 4.5 18s9.33398 8.33398 17.001 11.001s14.167 4 19.5 4c12.667 0 30 -5.16699 52 -15.5s39.333 -15.5 52 -15.5
c14 -2 26.833 -3.5 38.5 -4.5s22.5 -1.5 32.5 -1.5c6.66699 0 13.667 0.166992 21 0.5s18.333 2.83301 33 7.5c-3.33301 8.66699 -5.83301 15.834 -7.5 21.501s-2.16699 10.167 -1.5 13.5c2.66699 8 10 16.5 22 25.5s19.333 15.5 22 19.5
c-7.33301 9.33301 -12.833 19.166 -16.5 29.499s-4.83398 21.166 -3.50098 32.499c-4 4 -8.16699 8.66699 -12.5 14s-7.5 10.666 -9.5 15.999c-24 0 -59.333 -1.16699 -106 -3.5s-79.667 -3.5 -99 -3.5c-10.667 -21.333 -22 -38.833 -34 -52.5s-26.667 -20.5 -44 -20.5
c-2.66699 1.33301 -6.5 1 -11.5 -1s-10.5 -4 -16.5 -6c-3.33301 0 -6.5 1.66699 -9.5 5s-4.5 7.33301 -4.5 12c0.666992 5.33301 1 9.33301 1 12c0 4 -2 6.66699 -6 8c0 7.33301 2.5 14.166 7.5 20.499s15.5 17.833 31.5 34.5s26.333 30.334 31 41.001
c-7.33301 16 -14.333 32.333 -21 49c0 7.33301 4.33301 13.666 13 18.999l18 2c7.33301 -4.66699 11.5 -11.667 12.5 -21s1.83301 -18.333 2.5 -27c8 0 16 -4.66699 24 -14s15.333 -14 22 -14h51c14 0 27.833 0.333008 41.5 1s26.834 2 39.501 4c-4 10 -14 16.5 -30 19.5
s-26.333 6.5 -31 10.5c0.666992 1.33301 3.33398 2 8.00098 2s7.33398 1 8.00098 3c-2.66699 2.66699 -7.33398 5.33398 -14.001 8.00098s-11.334 5 -14.001 7c2.66699 20.667 4.16699 35.5 4.5 44.5s0.5 16.167 0.5 21.5c0 20.667 -1.83301 38.834 -5.5 54.501
s-10.5 31.5 -20.5 47.5v5l55 -19c5.33301 9.33301 16.833 18.166 34.5 26.499s28.167 17.833 31.5 28.5l7 32c5.33301 -4.66699 11.666 -12 18.999 -22s12 -16 14 -18zM392.002 584.007c-1.33301 -6.66699 -2.00098 -11.6641 -2.00098 -14.9971
c0 -11.333 1.66699 -20.833 5 -28.5s13 -23.834 29 -48.501c2 -0.666992 7.5 -4.16699 16.5 -10.5s15.5 -9.5 19.5 -9.5c5.33301 0 10 2.33301 14 7c6 0.666992 12 1.66699 18 3c2 5.33301 3.5 9.66602 4.5 12.999s1.16699 6.66602 0.5 9.99902
c-7.33301 21.333 -21.166 39.833 -41.499 55.5s-41.5 23.5 -63.5 23.5zM358.001 564.01c-6 2 -12 3 -18 3c-18.667 0 -34 -6 -46 -18s-18 -25.333 -18 -40c0 -8.66699 1.5 -18.334 4.5 -29.001s6.83301 -20.667 11.5 -30c8.66699 -7.33301 17 -13.833 25 -19.5
s15 -8.5 21 -8.5c6.66699 -1.33301 11.667 -2 15 -2c10 0 18.667 2 26 6s16 10.667 26 20c6.66699 8.66699 10 19.334 10 32.001c0 6.66699 -1 13 -3 19l-23.5 37.5c-8.33301 13 -18.5 22.833 -30.5 29.5zM422.001 488.01c0 -12 -2 -23.3359 -6 -34.0029
s-10.667 -19 -20 -25c-11.333 -9.33301 -26.666 -14 -45.999 -14c-6 0 -15 0.666992 -27 2s-21 2 -27 2c-6.66699 -1.33301 -11.667 -5.16602 -15 -11.499s-4 -13.166 -2 -20.499c5.33301 -18 15.5 -32.667 30.5 -44s32.5 -19.666 52.5 -24.999c19.333 0 37 2.16699 53 6.5
s31.167 11.833 45.5 22.5s26.166 23.834 35.499 39.501s14 31.834 14 48.501c0 4 -0.666992 10 -2 18c-1.33301 -4.66699 -4.5 -8.83398 -9.5 -12.501s-9.5 -6.33398 -13.5 -8.00098s-8.66699 -2.5 -14 -2.5c-10.667 0 -17.334 2.83301 -20.001 8.5s-4 10.5 -4 14.5
c0 6.66699 2 12 6 16c-5.33301 1.33301 -10.666 3.83301 -15.999 7.5s-10.333 7.5 -15 11.5zM500.001 482.007l-1 -6zM715.001 355.007c-8.66699 -4.66699 -17.6699 -9.83203 -27.0029 -15.499s-17.166 -13.667 -23.499 -24s-8.5 -21.5 -6.5 -33.5
c2.66699 -7.33301 7 -11 13 -11c8 -2 16.833 1 26.5 9s15.834 12 18.501 12c-6.66699 -9.33301 -9.66699 -18.333 -9 -27l8 -6c18 19.333 27 40.666 27 63.999c0 4 -0.666992 10 -2 18c-7.33301 9.33301 -15.666 14 -24.999 14zM648.998 299.009l-20.001 -30.9971
c-3.33301 -6.66699 -6.83301 -14.834 -10.5 -24.501s-5.5 -17.834 -5.5 -24.501c0 -9.33301 3 -17 9 -23c16 -2 29.833 1.66699 41.5 11s26.834 24.666 45.501 45.999c-5.33301 1.33301 -8 5.33301 -8 12c0.666992 5.33301 1 9.33301 1 12
c-8 -4.66699 -14.5 -8.16699 -19.5 -10.5s-10.5 -2.5 -16.5 -0.5s-9.66699 5.5 -11 10.5s-2 12.5 -2 22.5h-4zM486.997 415.012c-6.66699 -20 -17.8301 -37.5 -33.4971 -52.5s-29.834 -23.667 -42.501 -26s-20.334 -3.5 -23.001 -3.5c-12.667 0 -22.667 2.83301 -30 8.5
s-14.833 15 -22.5 28s-16.834 18.833 -27.501 17.5c-4.66699 1.33301 -9.33398 3 -14.001 5l-2 -10c-4 2 -4.33301 6.66699 -1 14c0.666992 2.66699 3.66699 4.16699 9 4.5s8.33301 0.833008 9 1.5l-10 -6c8 -5.33301 17.667 -9.33301 29 -12s22.666 -4 33.999 -4
c13.333 0 25.333 1 36 3s26 5.33301 46 10c10.667 5.33301 20.334 10.5 29.001 15.5s16.334 11.167 23.001 18.5c1.33301 -2 -1.66699 -6 -9 -12zM458.001 502.012c0 -8.66699 -2.66504 -13.333 -7.99805 -14c-7.33301 4 -13 9.66699 -17 17s-7.66699 16.333 -11 27
c0 3.33301 1.16699 5.83301 3.5 7.5s5.16602 1.16699 8.49902 -1.5c6 -4.66699 10.667 -9.66699 14 -15s6.66602 -12.333 9.99902 -21zM357.003 455.013c0.666992 -2.66699 -1.66602 -6.66406 -6.99902 -11.9971c-8 0 -13.833 3.83301 -17.5 11.5s-7.16699 15.5 -10.5 23.5
v13c0 7.33301 2.33301 11.666 7 12.999c7.33301 -2.66699 12.666 -7.83398 15.999 -15.501s7.33301 -18.834 12 -33.501zM349.003 365.016c-2 -2 -1.99805 -4.33301 0.00195312 -7s6.16699 -6.66699 12.5 -12s15.166 -8 26.499 -8c2.66699 0 6 0.5 10 1.5s6.33301 2.5 7 4.5
s0 4 -2 6c-4.66699 12 -14.334 17 -29.001 15c0 -1.33301 1.83301 -4 5.5 -8s4.5 -7.66699 2.5 -11c-6 12.667 -17 19 -33 19z" />
    <glyph glyph-name="periodcentered" unicode="&#x2219;" horiz-adv-x="152" 
d="M77 416c14 0 26.001 -5 36.001 -15s15 -22 15 -36s-4.83301 -26.167 -14.5 -36.5s-21.834 -15.5 -36.501 -15.5s-27 5 -37 15s-15 22.333 -15 37c0 14 5 26 15 36s22.333 15 37 15z" />
    <glyph glyph-name="infinity" unicode="&#x221e;" horiz-adv-x="735" 
d="M78 510c16 13.333 31 23.334 45 30.001s29.333 10 46 10c4.66699 0 16.5 -1.5 35.5 -4.5s41.167 -16.833 66.5 -41.5c27.333 -32 48 -55 62 -69c18 34.667 41.667 64 71 88s62.666 36 99.999 36c49.333 0 91.666 -16.833 126.999 -50.5s56.5 -66.334 63.5 -98.001
s11.833 -55.5 14.5 -71.5s4 -30.333 4 -43c0 -18 -2 -33.667 -6 -47s-17.333 -34.166 -40 -62.499s-60.334 -42.5 -113.001 -42.5c-36 0 -64.667 10 -86 30s-48 51.667 -80 95c-18 -28 -33.667 -49.333 -47 -64s-30.166 -24.5 -50.499 -29.5s-38.166 -7.5 -53.499 -7.5
c-35.333 0 -68 9.83301 -98 29.5s-52.667 43.5 -68 71.5s-26 52 -32 72s-9 40.333 -9 61c0 21.333 3.83301 41.166 11.5 59.499s19.834 34.5 36.501 48.5zM132 242.001c19.333 -8.66699 37.999 -12.999 55.999 -12.999c19.333 0 41.5 6 66.5 18s41.5 29 49.5 51
s16.667 57.667 26 107c-16 25.333 -36.167 45.833 -60.5 61.5s-51.166 23.5 -80.499 23.5c-8 0 -20.833 -1.83301 -38.5 -5.5s-35 -10.5 -52 -20.5s-28.333 -22 -34 -36s-9.16699 -24.833 -10.5 -32.5s-2 -15.834 -2 -24.501c0 -27.333 7.16699 -52.833 21.5 -76.5
s33.833 -41.167 58.5 -52.5zM395.999 311.002c0 -22 9.66797 -40.333 29.001 -55s41.666 -26 66.999 -34s47 -12 65 -12c23.333 0 45 5.66699 65 17s36 24.5 48 39.5s19.5 30.167 22.5 45.5s4.5 27.333 4.5 36c0 17.333 -3.5 33.833 -10.5 49.5s-16.833 32.167 -29.5 49.5
s-27.667 30.833 -45 40.5s-36.666 14.5 -57.999 14.5c-24 0 -43.833 -5.5 -59.5 -16.5s-31.334 -26.667 -47.001 -47s-27 -41.833 -34 -64.5s-12.833 -43.667 -17.5 -63z" />
    <glyph glyph-name="apple" unicode="&#xf000;" horiz-adv-x="671" 
d="M522 594c24.667 -6.66699 46.8311 -19.3359 66.498 -38.0029s33.167 -40 40.5 -64c9.33301 -41.333 14 -86.666 14 -135.999c0 -33.333 -1.83301 -69.5 -5.5 -108.5l-8.5 -91.5c-7.33301 -35.333 -19 -65.5 -35 -90.5s-39.333 -41.167 -70 -48.5
c-16.667 -5.33301 -36 -9.33301 -58 -12s-42.667 -4 -62 -4c-22 0 -59.667 2.16699 -113 6.5s-89 6.5 -107 6.5c-28 4.66699 -53.5 13 -76.5 25s-40.167 29 -51.5 51c-8.66699 22 -15 48.167 -19 78.5s-6 59.833 -6 88.5c0 30.667 2 66.334 6 107.001s7.5 73 10.5 97
s10.833 46.833 23.5 68.5s31.334 39.834 56.001 54.501c27.333 10.667 55.333 18.167 84 22.5s60.334 6.5 95.001 6.5c30 0 56 -0.833008 78 -2.5s68 -7.16699 138 -16.5zM382.997 586.998c24.667 -7.33301 47.665 -21.502 68.998 -42.502s34 -43.5 38 -67.5
c4 -12 6 -24.667 6 -38c0 -31.333 -8.33301 -57.666 -25 -78.999s-35.667 -32 -57 -32c-13.333 0 -33.833 4.83301 -61.5 14.5s-47.834 14.5 -60.501 14.5c-22.667 -2 -42.5 -8.16699 -59.5 -18.5s-29.833 -25.166 -38.5 -44.499c-16 -20 -24 -46 -24 -78
c0 -26 5.66699 -48.667 17 -68c0.666992 -4.66699 4.33398 -11 11.001 -19s10 -14 10 -18c0 -2.66699 -1 -5.66699 -3 -9c-6.66699 2.66699 -13.667 7.66699 -21 15l-21 22c-14 18.667 -25 41.334 -33 68.001s-12 53.334 -12 80.001c0 34 8.16699 66.667 24.5 98
s39.5 59 69.5 83s63.333 36 100 36c21.333 3.33301 37 -7.33398 47 -32.001s18.667 -39.334 26 -44.001c5.33301 -2 10.333 -3 15 -3c11.333 0 22 4 32 12c9.33301 13.333 14 28.333 14 45c0 3.33301 -1 10.666 -3 21.999s-9.5 22.666 -22.5 33.999
s-28.167 20.666 -45.5 27.999c-22 6 -44 9 -66 9c-42 0 -80.5 -8.5 -115.5 -25.5s-63.833 -42.167 -86.5 -75.5c-34 -55.333 -51 -115.666 -51 -180.999c0 -44 8.33301 -85 25 -123c18 -46 50.667 -79.833 98 -101.5s100.333 -35.167 159 -40.5
c-32 10.667 -59.333 30.667 -82 60s-34 60.666 -34 93.999c-0.666992 3.33301 -1 8.33301 -1 15c0 40.667 8.66699 66.5 26 77.5s29.333 17.167 36 18.5s12.667 2 18 2c10 0 19.167 -1.16699 27.5 -3.5s27.166 -9.83301 56.499 -22.5c8.66699 -2.66699 18.667 -4 30 -4
c34.667 0 63 13 85 39c10 17.333 18 35.5 24 54.5s9 37.833 9 56.5c0 14 -2 28 -6 42c-1.33301 4.66699 1 7 7 7c12.667 -18 21.834 -38.333 27.501 -61s8.5 -47 8.5 -73c0 -22 -0.833008 -39.833 -2.5 -53.5s-8.5 -33 -20.5 -58s-32.5 -48.167 -61.5 -69.5
s-61.833 -32 -98.5 -32c-10 5.33301 -17.833 12.166 -23.5 20.499s-7.5 17.833 -5.5 28.5c-2.66699 9.33301 -8.16699 16.333 -16.5 21s-18.166 6.33398 -29.499 5.00098c-8 -4 -14.167 -8.16699 -18.5 -12.5s-7.33301 -9.5 -9 -15.5s-2.5 -12.333 -2.5 -19
c0 -18.667 5.5 -36.5 16.5 -53.5s26.167 -30 45.5 -39s41 -13.5 65 -13.5c31.333 6.66699 59.333 16.5 84 29.5s51.5 39.167 80.5 78.5s43.5 96 43.5 170c0 58.667 -12 107.334 -36 146.001s-52.167 66.834 -84.5 84.501s-70.166 30.834 -113.499 39.501z" />
    <glyph glyph-name="fi" unicode="&#xf001;" horiz-adv-x="438" 
d="M257 402h-62.001l-147 -504l-61 5l141 502h-83l2 16l89 1c18 65.333 40.333 114 67 146s49.834 50.5 69.501 55.5s33.5 7.5 41.5 7.5c21.333 0 38 -6.66699 50 -20s19.667 -23.5 23 -30.5s5 -15.167 5 -24.5c0 -5.33301 -1.5 -12.333 -4.5 -21
s-7.83301 -16.334 -14.5 -23.001s-15.334 -10 -26.001 -10s-20.167 3.33301 -28.5 10s-13.5 15.334 -15.5 26.001c-1.33301 10.667 2.5 21.334 11.5 32.001l28.5 34c0 5.33301 -5.5 9.5 -16.5 12.5s-18.167 4.5 -21.5 4.5c-16 0 -29.833 -4.33301 -41.5 -13
s-19.167 -20.667 -22.5 -36l-39 -151h84c12.667 2.66699 25.167 -0.333008 37.5 -9s20.5 -18.5 24.5 -29.5s7.16699 -21.333 9.5 -31s3.5 -21.167 3.5 -34.5c0 -30 -13.333 -72.667 -40 -128s-40 -99 -40 -131c0 -13.333 1.16699 -25 3.5 -35s10.5 -15 24.5 -15
c6.66699 0 17.167 5.16699 31.5 15.5s29.5 32.166 45.5 65.499l46 96c-5.33301 -38 -16.833 -73.833 -34.5 -107.5s-35.5 -56.167 -53.5 -67.5s-30.667 -17 -38 -17c-12 0 -23.167 4.16699 -33.5 12.5s-19.166 20.833 -26.499 37.5s-11 36.667 -11 60
s12.5 66.833 37.5 130.5s37.5 109.167 37.5 136.5c0 9.33301 -0.333008 16.333 -1 21c0 6.66699 -8.33301 10 -25 10c-8 0.666992 -14 1 -18 1h-9z" />
    <glyph glyph-name="fl" unicode="&#xf002;" horiz-adv-x="490" 
d="M343 619c-6.66699 1.33301 -11.667 2.00098 -15 2.00098c-15.333 0 -29 -4.33301 -41 -13s-19.667 -20.667 -23 -36l-38 -151h83l-4 -19h-87l-146 -504l-62 5l142 502h-84l2 16l89 1c13.333 48.667 32.666 92.667 57.999 132s49.666 62 72.999 68s39 9 47 9
c21.333 0 38.166 -6.83301 50.499 -20.5s20 -25 23 -34s5.5 -19.833 7.5 -32.5s3.66699 -32.167 5 -58.5s2 -41.5 2 -45.5c0 -18 -3.66699 -43.5 -11 -76.5s-18.666 -76.167 -33.999 -129.5l-34.5 -118.5c-7.66699 -25.667 -11.834 -42 -12.501 -49s-1 -13.167 -1 -18.5
c0 -24 4.66699 -36 14 -36c31.333 0 56 18.667 74 56l52 107c-15.333 -55.333 -28.666 -95 -39.999 -119s-27.166 -40.333 -47.499 -49s-33.833 -13 -40.5 -13c-11.333 0 -22.166 3.66699 -32.499 11s-20 17.833 -29 31.5s-13.5 29.834 -13.5 48.501
c0 9.33301 0.833008 18.166 2.5 26.499s4.5 19.833 8.5 34.5l98 372c4.66699 18.667 7 35 7 49c0 27.333 -14 44.666 -42 51.999z" />
    <glyph glyph-name=".null" horiz-adv-x="0" 
 />
    <glyph glyph-name="nonmarkingreturn" horiz-adv-x="242" 
 />
  </font>
</defs>
</svg>
